{"glyphs":{"0":{"ha":994,"x_min":85,"x_max":910,"o":"m 499 -17 q 282 51 375 -17 q 137 238 189 118 q 85 518 85 358 q 137 799 85 679 q 281 985 189 918 q 497 1051 374 1051 q 713 985 621 1051 q 858 798 806 918 q 910 518 910 678 q 858 238 910 358 q 715 51 807 118 q 499 -17 622 -17 m 499 133 q 631 181 575 133 q 717 314 686 228 q 747 518 747 400 q 717 722 747 636 q 631 856 686 808 q 497 903 575 903 q 365 856 421 903 q 279 722 310 808 q 249 518 249 636 q 279 315 249 401 q 366 181 310 228 q 499 133 422 133 z "},"1":{"ha":544,"x_min":46,"x_max":407,"o":"m 244 0 l 244 896 l 46 896 l 46 1035 l 407 1035 l 407 0 l 244 0 z "},"2":{"ha":831,"x_min":63,"x_max":757,"o":"m 69 0 l 69 118 l 353 421 q 484 565 436 510 q 553 661 532 619 q 575 749 575 703 q 529 865 575 824 q 411 906 483 906 q 282 863 336 906 q 207 740 228 821 l 63 782 q 129 924 79 864 q 252 1018 179 985 q 410 1051 325 1051 q 582 1015 508 1051 q 697 913 656 978 q 738 761 738 847 q 716 651 738 704 q 650 538 694 597 q 536 406 606 479 l 286 139 l 757 139 l 757 0 l 69 0 z "},"3":{"ha":849,"x_min":51,"x_max":774,"o":"m 407 -17 q 251 14 324 -17 q 126 100 178 44 q 51 231 74 156 l 190 283 q 275 169 218 210 q 407 129 332 129 q 513 153 468 129 q 584 219 558 176 q 610 324 610 263 q 584 426 610 383 q 513 492 558 469 q 407 514 468 514 q 356 510 382 514 q 311 499 331 506 l 275 575 l 547 896 l 107 896 l 107 1035 l 731 1035 l 731 903 l 464 583 l 460 636 q 624 595 553 635 q 734 487 694 556 q 774 328 774 418 q 726 152 774 231 q 597 28 679 74 q 407 -17 514 -17 z "},"4":{"ha":897,"x_min":54,"x_max":846,"o":"m 547 0 l 547 233 l 54 233 l 54 369 l 540 1035 l 703 1035 l 703 369 l 846 369 l 846 233 l 703 233 l 703 0 l 547 0 m 175 310 l 149 369 l 547 369 l 547 904 l 592 890 l 175 310 z "},"5":{"ha":854,"x_min":61,"x_max":776,"o":"m 415 -17 q 261 13 333 -17 q 136 97 189 43 q 61 228 83 151 l 199 281 q 285 168 225 207 q 415 129 344 129 q 518 156 474 129 q 588 228 563 182 q 614 332 614 274 q 588 437 614 392 q 518 508 563 482 q 415 533 474 533 q 308 507 357 533 q 238 436 260 481 l 106 465 l 186 1035 l 738 1035 l 738 896 l 250 896 l 313 964 l 253 528 l 201 563 q 303 647 243 621 q 439 674 363 674 q 616 628 540 674 q 734 506 692 583 q 776 332 776 429 q 729 154 776 233 q 601 29 682 75 q 415 -17 519 -17 z "},"6":{"ha":835,"x_min":68,"x_max":769,"o":"m 418 -17 q 238 28 317 -17 q 113 150 158 72 q 68 326 68 228 q 79 429 68 378 q 119 536 90 481 q 196 656 147 592 l 485 1035 l 681 1035 l 326 576 l 299 594 q 341 629 318 617 q 390 647 364 642 q 444 653 415 653 q 611 610 538 653 q 727 493 685 567 q 769 324 769 419 q 724 149 769 226 q 599 28 678 72 q 418 -17 521 -17 m 418 129 q 514 154 472 129 q 581 223 556 179 q 606 322 606 267 q 581 422 606 379 q 515 490 557 465 q 418 514 472 514 q 323 490 365 514 q 256 422 281 465 q 231 322 231 379 q 256 223 231 267 q 323 154 281 179 q 418 129 365 129 z "},"7":{"ha":769,"x_min":49,"x_max":717,"o":"m 104 0 l 546 896 l 49 896 l 49 1035 l 717 1035 l 717 896 l 282 0 l 104 0 z "},"8":{"ha":876,"x_min":78,"x_max":800,"o":"m 438 -17 q 248 26 329 -17 q 122 140 167 68 q 78 299 78 211 q 133 472 78 399 q 288 578 188 544 l 281 536 q 165 630 207 564 q 122 775 122 696 q 163 917 122 854 q 276 1015 204 979 q 438 1051 347 1051 q 600 1016 529 1051 q 712 918 671 981 q 753 775 753 856 q 710 628 753 693 q 596 536 668 564 l 589 578 q 744 471 689 543 q 800 299 800 399 q 755 140 800 211 q 628 26 710 68 q 438 -17 546 -17 m 438 122 q 542 145 497 122 q 611 208 586 168 q 636 303 636 249 q 611 397 636 357 q 542 460 586 438 q 438 482 497 482 q 335 460 379 482 q 265 397 290 438 q 240 303 240 357 q 265 208 240 249 q 335 145 290 168 q 438 122 379 122 m 438 621 q 516 640 482 621 q 569 692 550 658 q 589 767 589 725 q 569 842 589 810 q 516 894 550 875 q 438 913 482 913 q 360 894 394 913 q 306 842 325 875 q 286 767 286 810 q 306 692 286 725 q 360 640 325 658 q 438 621 394 621 z "},"9":{"ha":835,"x_min":65,"x_max":767,"o":"m 154 0 l 508 458 l 536 440 q 494 407 517 419 q 445 389 471 394 q 390 383 419 383 q 224 426 297 383 q 108 542 150 468 q 65 711 65 617 q 111 886 65 810 q 236 1007 157 963 q 417 1051 315 1051 q 598 1007 519 1051 q 722 885 676 963 q 767 710 767 808 q 756 606 767 657 q 717 499 744 554 q 639 379 689 444 l 350 0 l 154 0 m 417 521 q 513 546 471 521 q 579 614 554 571 q 604 713 604 657 q 579 813 604 769 q 512 881 554 857 q 417 906 469 906 q 322 881 364 906 q 254 813 279 857 q 229 713 229 769 q 253 614 229 657 q 321 546 278 571 q 417 521 364 521 z "},"A":{"ha":961,"x_min":15,"x_max":946,"o":"m 15 0 l 379 1035 l 582 1035 l 946 0 l 771 0 l 692 232 l 271 232 l 190 0 l 15 0 m 318 378 l 642 378 l 458 919 l 504 919 l 318 378 z "},"Á":{"ha":961,"x_min":15,"x_max":946,"o":"m 15 0 l 379 1035 l 582 1035 l 946 0 l 771 0 l 692 232 l 271 232 l 190 0 l 15 0 m 318 378 l 642 378 l 458 919 l 504 919 l 318 378 m 403 1172 l 504 1401 l 710 1401 l 558 1172 l 403 1172 z "},"Ă":{"ha":961,"x_min":15,"x_max":946,"o":"m 15 0 l 379 1035 l 582 1035 l 946 0 l 771 0 l 692 232 l 271 232 l 190 0 l 15 0 m 318 378 l 642 378 l 458 919 l 504 919 l 318 378 m 482 1176 q 338 1208 394 1176 q 252 1290 281 1239 q 222 1399 224 1340 l 375 1399 q 404 1325 376 1351 q 482 1299 432 1299 q 560 1325 532 1299 q 589 1399 588 1351 l 740 1399 q 710 1288 739 1339 q 626 1207 682 1238 q 482 1176 569 1176 z "},"Ắ":{"ha":961,"x_min":15,"x_max":946,"o":"m 15 0 l 379 1035 l 582 1035 l 946 0 l 771 0 l 692 232 l 271 232 l 190 0 l 15 0 m 318 378 l 642 378 l 458 919 l 504 919 l 318 378 m 482 1176 q 338 1206 394 1176 q 252 1283 281 1235 q 222 1385 224 1331 l 375 1385 q 404 1322 376 1344 q 482 1299 432 1299 q 560 1322 532 1299 q 589 1385 588 1344 l 740 1385 q 710 1281 739 1329 q 626 1205 682 1233 q 482 1176 569 1176 m 404 1426 l 504 1656 l 710 1656 l 558 1426 l 404 1426 z "},"Ặ":{"ha":961,"x_min":15,"x_max":946,"o":"m 15 0 l 379 1035 l 582 1035 l 946 0 l 771 0 l 692 232 l 271 232 l 190 0 l 15 0 m 318 378 l 642 378 l 458 919 l 504 919 l 318 378 m 394 -299 l 394 -125 l 568 -125 l 568 -299 l 394 -299 m 482 1176 q 338 1208 394 1176 q 252 1290 281 1239 q 222 1399 224 1340 l 375 1399 q 404 1325 376 1351 q 482 1299 432 1299 q 560 1325 532 1299 q 589 1399 588 1351 l 740 1399 q 710 1288 739 1339 q 626 1207 682 1238 q 482 1176 569 1176 z "},"Ằ":{"ha":961,"x_min":15,"x_max":946,"o":"m 15 0 l 379 1035 l 582 1035 l 946 0 l 771 0 l 692 232 l 271 232 l 190 0 l 15 0 m 318 378 l 642 378 l 458 919 l 504 919 l 318 378 m 481 1176 q 338 1205 394 1176 q 252 1281 281 1233 q 222 1385 224 1329 l 374 1385 q 403 1322 375 1344 q 481 1299 432 1299 q 558 1322 531 1299 q 588 1385 586 1344 l 740 1385 q 710 1283 739 1331 q 625 1206 682 1235 q 481 1176 568 1176 m 404 1426 l 253 1656 l 458 1656 l 558 1426 l 404 1426 z "},"Ẳ":{"ha":961,"x_min":15,"x_max":946,"o":"m 15 0 l 379 1035 l 582 1035 l 946 0 l 771 0 l 692 232 l 271 232 l 190 0 l 15 0 m 318 378 l 642 378 l 458 919 l 504 919 l 318 378 m 481 1176 q 338 1206 394 1176 q 252 1283 281 1235 q 222 1385 224 1331 l 375 1385 q 404 1322 376 1344 q 481 1299 432 1299 q 558 1322 531 1299 q 588 1385 586 1344 l 740 1385 q 709 1282 738 1329 q 624 1206 681 1235 q 481 1176 568 1176 m 493 1394 l 425 1476 q 478 1512 463 1493 q 494 1557 494 1531 q 474 1599 494 1582 q 418 1615 453 1615 q 384 1613 401 1615 q 347 1601 367 1610 l 328 1701 q 383 1719 353 1714 q 443 1725 413 1725 q 582 1683 529 1725 q 635 1569 635 1640 q 597 1471 635 1517 q 493 1394 558 1425 z "},"Ẵ":{"ha":961,"x_min":15,"x_max":946,"o":"m 15 0 l 379 1035 l 582 1035 l 946 0 l 771 0 l 692 232 l 271 232 l 190 0 l 15 0 m 318 378 l 642 378 l 458 919 l 504 919 l 318 378 m 563 1467 q 510 1478 531 1467 q 475 1506 490 1490 q 446 1534 460 1522 q 413 1546 432 1546 q 385 1528 394 1546 q 375 1472 375 1510 l 254 1472 q 274 1585 254 1540 q 326 1651 293 1629 q 396 1672 358 1672 q 449 1660 428 1672 q 486 1633 471 1649 q 516 1605 501 1617 q 547 1593 531 1593 q 578 1613 569 1593 q 586 1667 586 1632 l 706 1667 q 663 1519 706 1571 q 563 1467 621 1467 m 481 1172 q 338 1201 394 1172 q 252 1278 281 1231 q 222 1381 224 1326 l 375 1381 q 404 1317 376 1340 q 481 1294 432 1294 q 558 1317 531 1294 q 588 1381 586 1340 l 740 1381 q 709 1278 738 1325 q 624 1201 681 1231 q 481 1172 568 1172 z "},"Â":{"ha":961,"x_min":15,"x_max":946,"o":"m 15 0 l 379 1035 l 582 1035 l 946 0 l 771 0 l 692 232 l 271 232 l 190 0 l 15 0 m 318 378 l 642 378 l 458 919 l 504 919 l 318 378 m 225 1172 l 389 1394 l 572 1394 l 738 1172 l 576 1172 l 481 1299 l 386 1172 l 225 1172 z "},"Ấ":{"ha":961,"x_min":15,"x_max":946,"o":"m 15 0 l 379 1035 l 582 1035 l 946 0 l 771 0 l 692 232 l 271 232 l 190 0 l 15 0 m 318 378 l 642 378 l 458 919 l 504 919 l 318 378 m 225 1172 l 389 1381 l 572 1381 l 738 1172 l 576 1172 l 481 1285 l 386 1172 l 225 1172 m 679 1276 l 751 1471 l 936 1471 l 813 1276 l 679 1276 z "},"Ậ":{"ha":961,"x_min":15,"x_max":946,"o":"m 15 0 l 379 1035 l 582 1035 l 946 0 l 771 0 l 692 232 l 271 232 l 190 0 l 15 0 m 318 378 l 642 378 l 458 919 l 504 919 l 318 378 m 394 -299 l 394 -125 l 568 -125 l 568 -299 l 394 -299 m 225 1172 l 389 1394 l 572 1394 l 738 1172 l 576 1172 l 481 1299 l 386 1172 l 225 1172 z "},"Ầ":{"ha":961,"x_min":15,"x_max":946,"o":"m 15 0 l 379 1035 l 582 1035 l 946 0 l 771 0 l 692 232 l 271 232 l 190 0 l 15 0 m 318 378 l 642 378 l 458 919 l 504 919 l 318 378 m 225 1172 l 389 1381 l 572 1381 l 738 1172 l 576 1172 l 481 1285 l 386 1172 l 225 1172 m 760 1276 l 636 1471 l 821 1471 l 893 1276 l 760 1276 z "},"Ẩ":{"ha":961,"x_min":15,"x_max":946,"o":"m 15 0 l 379 1035 l 582 1035 l 946 0 l 771 0 l 692 232 l 271 232 l 190 0 l 15 0 m 318 378 l 642 378 l 458 919 l 504 919 l 318 378 m 225 1172 l 389 1381 l 572 1381 l 738 1172 l 576 1172 l 481 1285 l 386 1172 l 225 1172 m 728 1269 l 665 1346 q 716 1380 701 1361 q 731 1424 731 1399 q 711 1463 731 1447 q 658 1478 692 1478 q 626 1476 642 1478 q 590 1465 610 1474 l 572 1560 q 625 1577 597 1572 q 682 1582 653 1582 q 813 1542 764 1582 q 863 1435 863 1501 q 826 1340 863 1383 q 728 1269 789 1297 z "},"Ẫ":{"ha":961,"x_min":15,"x_max":946,"o":"m 15 0 l 379 1035 l 582 1035 l 946 0 l 771 0 l 692 232 l 271 232 l 190 0 l 15 0 m 318 378 l 642 378 l 458 919 l 504 919 l 318 378 m 226 1172 l 390 1381 l 572 1381 l 738 1172 l 576 1172 l 482 1285 l 388 1172 l 226 1172 m 564 1467 q 512 1478 532 1467 q 476 1506 492 1490 q 447 1534 461 1522 q 414 1546 433 1546 q 386 1528 396 1546 q 376 1472 376 1510 l 256 1472 q 275 1585 256 1540 q 327 1651 294 1629 q 397 1672 360 1672 q 451 1660 429 1672 q 488 1633 472 1649 q 517 1605 503 1617 q 549 1593 532 1593 q 579 1613 571 1593 q 588 1667 588 1632 l 707 1667 q 665 1519 707 1571 q 564 1467 622 1467 z "},"Ȁ":{"ha":961,"x_min":15,"x_max":946,"o":"m 15 0 l 379 1035 l 582 1035 l 946 0 l 771 0 l 692 232 l 271 232 l 190 0 l 15 0 m 318 378 l 642 378 l 458 919 l 504 919 l 318 378 m 267 1172 l 115 1404 l 314 1404 l 415 1172 l 267 1172 m 546 1172 l 394 1404 l 593 1404 l 694 1172 l 546 1172 z "},"Ä":{"ha":961,"x_min":15,"x_max":946,"o":"m 15 0 l 379 1035 l 582 1035 l 946 0 l 771 0 l 692 232 l 271 232 l 190 0 l 15 0 m 318 378 l 642 378 l 458 919 l 504 919 l 318 378 m 251 1172 l 251 1346 l 425 1346 l 425 1172 l 251 1172 m 536 1172 l 536 1346 l 710 1346 l 710 1172 l 536 1172 z "},"Ạ":{"ha":961,"x_min":15,"x_max":946,"o":"m 15 0 l 379 1035 l 582 1035 l 946 0 l 771 0 l 692 232 l 271 232 l 190 0 l 15 0 m 318 378 l 642 378 l 458 919 l 504 919 l 318 378 m 394 -299 l 394 -125 l 568 -125 l 568 -299 l 394 -299 z "},"À":{"ha":961,"x_min":15,"x_max":946,"o":"m 15 0 l 379 1035 l 582 1035 l 946 0 l 771 0 l 692 232 l 271 232 l 190 0 l 15 0 m 318 378 l 642 378 l 458 919 l 504 919 l 318 378 m 404 1172 l 253 1401 l 458 1401 l 560 1172 l 404 1172 z "},"Ả":{"ha":961,"x_min":15,"x_max":946,"o":"m 15 0 l 379 1035 l 582 1035 l 946 0 l 771 0 l 692 232 l 271 232 l 190 0 l 15 0 m 318 378 l 642 378 l 458 919 l 504 919 l 318 378 m 492 1117 l 425 1199 q 478 1234 463 1215 q 493 1279 493 1253 q 473 1321 493 1304 q 417 1338 453 1338 q 383 1335 400 1338 q 346 1324 367 1332 l 326 1424 q 382 1442 353 1436 q 442 1447 411 1447 q 581 1405 529 1447 q 633 1292 633 1363 q 595 1193 633 1239 q 492 1117 557 1147 z "},"Ȃ":{"ha":961,"x_min":15,"x_max":946,"o":"m 15 0 l 379 1035 l 582 1035 l 946 0 l 771 0 l 692 232 l 271 232 l 190 0 l 15 0 m 318 378 l 642 378 l 458 919 l 504 919 l 318 378 m 222 1172 q 252 1283 224 1232 q 338 1364 281 1333 q 482 1394 394 1394 q 626 1365 569 1394 q 710 1284 682 1335 q 740 1172 739 1233 l 589 1172 q 560 1247 588 1221 q 482 1274 532 1274 q 404 1247 432 1274 q 375 1172 376 1221 l 222 1172 z "},"Ā":{"ha":961,"x_min":15,"x_max":946,"o":"m 15 0 l 379 1035 l 582 1035 l 946 0 l 771 0 l 692 232 l 271 232 l 190 0 l 15 0 m 318 378 l 642 378 l 458 919 l 504 919 l 318 378 m 269 1200 l 269 1332 l 693 1332 l 693 1200 l 269 1200 z "},"Ą":{"ha":961,"x_min":15,"x_max":967,"o":"m 15 0 l 379 1035 l 582 1035 l 946 0 l 771 0 l 692 232 l 271 232 l 190 0 l 15 0 m 318 378 l 642 378 l 458 919 l 504 919 l 318 378 m 819 -326 q 686 -281 736 -326 q 636 -168 636 -236 q 660 -73 636 -117 q 730 2 685 -29 q 838 46 775 33 l 879 46 l 879 0 q 825 -26 850 -6 q 785 -78 800 -47 q 769 -147 769 -110 q 792 -199 769 -179 q 843 -218 814 -218 q 890 -209 868 -218 q 931 -183 911 -200 l 967 -278 q 901 -313 939 -300 q 819 -326 864 -326 z "},"Å":{"ha":961,"x_min":15,"x_max":946,"o":"m 15 0 l 379 1035 l 582 1035 l 946 0 l 771 0 l 692 232 l 271 232 l 190 0 l 15 0 m 318 378 l 642 378 l 458 919 l 504 919 l 318 378 m 481 1124 q 363 1168 411 1124 q 314 1286 314 1213 q 363 1403 314 1358 q 481 1447 411 1447 q 599 1403 550 1447 q 647 1286 647 1358 q 599 1169 647 1214 q 481 1124 550 1124 m 481 1222 q 526 1240 508 1222 q 543 1286 543 1257 q 526 1332 543 1314 q 481 1350 508 1350 q 436 1333 454 1350 q 418 1286 418 1315 q 436 1240 418 1257 q 481 1222 454 1222 z "},"Ǻ":{"ha":961,"x_min":15,"x_max":946,"o":"m 15 0 l 379 1035 l 582 1035 l 946 0 l 771 0 l 692 232 l 271 232 l 190 0 l 15 0 m 318 378 l 642 378 l 458 919 l 504 919 l 318 378 m 481 1124 q 363 1168 411 1124 q 314 1286 314 1213 q 363 1403 314 1358 q 481 1447 411 1447 q 599 1403 550 1447 q 647 1286 647 1358 q 599 1169 647 1214 q 481 1124 550 1124 m 481 1222 q 526 1240 508 1222 q 543 1286 543 1257 q 526 1332 543 1314 q 481 1350 508 1350 q 436 1333 454 1350 q 418 1286 418 1315 q 436 1240 418 1257 q 481 1222 454 1222 m 450 1367 l 525 1575 l 710 1575 l 594 1367 l 450 1367 z "},"Ã":{"ha":961,"x_min":15,"x_max":946,"o":"m 15 0 l 379 1035 l 582 1035 l 946 0 l 771 0 l 692 232 l 271 232 l 190 0 l 15 0 m 318 378 l 642 378 l 458 919 l 504 919 l 318 378 m 576 1172 q 515 1185 539 1172 q 473 1213 490 1197 q 438 1240 456 1228 q 397 1253 421 1253 q 361 1235 374 1253 q 349 1178 349 1217 l 225 1178 q 271 1330 225 1281 q 385 1379 317 1379 q 448 1367 424 1379 q 490 1340 472 1356 q 526 1312 508 1324 q 565 1300 543 1300 q 603 1319 592 1300 q 615 1374 615 1339 l 738 1374 q 691 1224 738 1276 q 576 1172 644 1172 z "},"Æ":{"ha":1374,"x_min":15,"x_max":1328,"o":"m 15 0 l 379 1035 l 1328 1035 l 1328 889 l 810 889 l 810 592 l 1300 592 l 1300 446 l 810 446 l 810 146 l 1328 146 l 1328 0 l 647 0 l 647 232 l 271 232 l 190 0 l 15 0 m 318 378 l 647 378 l 647 889 l 494 889 l 318 378 z "},"Ǽ":{"ha":1374,"x_min":15,"x_max":1328,"o":"m 15 0 l 379 1035 l 1328 1035 l 1328 889 l 810 889 l 810 592 l 1300 592 l 1300 446 l 810 446 l 810 146 l 1328 146 l 1328 0 l 647 0 l 647 232 l 271 232 l 190 0 l 15 0 m 318 378 l 647 378 l 647 889 l 494 889 l 318 378 m 610 1172 l 711 1401 l 917 1401 l 765 1172 l 610 1172 z "},"B":{"ha":961,"x_min":107,"x_max":900,"o":"m 107 0 l 107 1035 l 543 1035 q 711 1001 640 1035 q 819 903 782 967 q 857 754 857 840 q 819 617 857 679 q 700 519 781 556 l 700 589 q 815 519 771 561 q 880 424 860 476 q 900 313 900 371 q 805 83 900 167 q 544 0 710 0 l 107 0 m 271 146 l 557 146 q 688 191 639 146 q 736 311 736 236 q 688 433 736 388 q 557 478 639 478 l 271 478 l 271 146 m 271 622 l 547 622 q 654 660 614 622 q 694 761 694 699 q 654 858 694 824 q 547 893 614 893 l 271 893 l 271 622 z "},"C":{"ha":1079,"x_min":76,"x_max":1018,"o":"m 589 -17 q 385 24 479 -17 q 223 135 292 64 q 115 304 154 207 q 76 518 76 401 q 115 731 76 633 q 222 901 153 829 q 385 1012 292 972 q 589 1051 478 1051 q 785 1014 699 1051 q 932 916 872 976 q 1018 785 992 856 l 871 715 q 765 851 838 799 q 589 903 692 903 q 407 854 486 903 q 284 719 328 806 q 240 518 240 633 q 284 316 240 403 q 407 181 328 229 q 589 133 486 133 q 765 185 692 133 q 871 319 838 236 l 1018 250 q 932 119 992 181 q 785 21 872 58 q 589 -17 699 -17 z "},"Ć":{"ha":1079,"x_min":76,"x_max":1018,"o":"m 589 -17 q 385 24 479 -17 q 223 135 292 64 q 115 304 154 207 q 76 518 76 401 q 115 731 76 633 q 222 901 153 829 q 385 1012 292 972 q 589 1051 478 1051 q 785 1014 699 1051 q 932 916 872 976 q 1018 785 992 856 l 871 715 q 765 851 838 799 q 589 903 692 903 q 407 854 486 903 q 284 719 328 806 q 240 518 240 633 q 284 316 240 403 q 407 181 328 229 q 589 133 486 133 q 765 185 692 133 q 871 319 838 236 l 1018 250 q 932 119 992 181 q 785 21 872 58 q 589 -17 699 -17 m 511 1172 l 613 1401 l 818 1401 l 667 1172 l 511 1172 z "},"Č":{"ha":1079,"x_min":76,"x_max":1018,"o":"m 589 -17 q 385 24 479 -17 q 223 135 292 64 q 115 304 154 207 q 76 518 76 401 q 115 731 76 633 q 222 901 153 829 q 385 1012 292 972 q 589 1051 478 1051 q 785 1014 699 1051 q 932 916 872 976 q 1018 785 992 856 l 871 715 q 765 851 838 799 q 589 903 692 903 q 407 854 486 903 q 284 719 328 806 q 240 518 240 633 q 284 316 240 403 q 407 181 328 229 q 589 133 486 133 q 765 185 692 133 q 871 319 838 236 l 1018 250 q 932 119 992 181 q 785 21 872 58 q 589 -17 699 -17 m 497 1172 l 333 1394 l 494 1394 l 589 1269 l 685 1394 l 846 1394 l 681 1172 l 497 1172 z "},"Ç":{"ha":1079,"x_min":76,"x_max":1018,"o":"m 589 -17 q 385 24 479 -17 q 223 135 292 64 q 115 304 154 207 q 76 518 76 401 q 115 731 76 633 q 222 901 153 829 q 385 1012 292 972 q 589 1051 478 1051 q 785 1014 699 1051 q 932 916 872 976 q 1018 785 992 856 l 871 715 q 765 851 838 799 q 589 903 692 903 q 407 854 486 903 q 284 719 328 806 q 240 518 240 633 q 284 316 240 403 q 407 181 328 229 q 589 133 486 133 q 765 185 692 133 q 871 319 838 236 l 1018 250 q 932 119 992 181 q 785 21 872 58 q 589 -17 699 -17 m 606 -326 q 524 -314 567 -326 q 451 -278 481 -301 l 488 -183 q 534 -209 508 -200 q 585 -218 560 -218 q 633 -204 615 -218 q 650 -167 650 -190 q 617 -122 650 -139 q 517 -99 585 -106 l 547 14 l 644 14 l 629 -46 q 742 -92 703 -57 q 782 -179 782 -126 q 733 -285 782 -244 q 606 -326 685 -326 z "},"Ḉ":{"ha":1079,"x_min":76,"x_max":1018,"o":"m 589 -17 q 385 24 479 -17 q 223 135 292 64 q 115 304 154 207 q 76 518 76 401 q 115 731 76 633 q 222 901 153 829 q 385 1012 292 972 q 589 1051 478 1051 q 785 1014 699 1051 q 932 916 872 976 q 1018 785 992 856 l 871 715 q 765 851 838 799 q 589 903 692 903 q 407 854 486 903 q 284 719 328 806 q 240 518 240 633 q 284 316 240 403 q 407 181 328 229 q 589 133 486 133 q 765 185 692 133 q 871 319 838 236 l 1018 250 q 932 119 992 181 q 785 21 872 58 q 589 -17 699 -17 m 606 -326 q 524 -314 567 -326 q 451 -278 481 -301 l 488 -183 q 534 -209 508 -200 q 585 -218 560 -218 q 633 -204 615 -218 q 650 -167 650 -190 q 617 -122 650 -139 q 517 -99 585 -106 l 547 14 l 644 14 l 629 -46 q 742 -92 703 -57 q 782 -179 782 -126 q 733 -285 782 -244 q 606 -326 685 -326 m 511 1172 l 613 1401 l 818 1401 l 667 1172 l 511 1172 z "},"Ĉ":{"ha":1079,"x_min":76,"x_max":1018,"o":"m 589 -17 q 385 24 479 -17 q 223 135 292 64 q 115 304 154 207 q 76 518 76 401 q 115 731 76 633 q 222 901 153 829 q 385 1012 292 972 q 589 1051 478 1051 q 785 1014 699 1051 q 932 916 872 976 q 1018 785 992 856 l 871 715 q 765 851 838 799 q 589 903 692 903 q 407 854 486 903 q 284 719 328 806 q 240 518 240 633 q 284 316 240 403 q 407 181 328 229 q 589 133 486 133 q 765 185 692 133 q 871 319 838 236 l 1018 250 q 932 119 992 181 q 785 21 872 58 q 589 -17 699 -17 m 333 1172 l 497 1394 l 681 1394 l 846 1172 l 685 1172 l 589 1299 l 494 1172 l 333 1172 z "},"Ċ":{"ha":1079,"x_min":76,"x_max":1018,"o":"m 589 -17 q 385 24 479 -17 q 223 135 292 64 q 115 304 154 207 q 76 518 76 401 q 115 731 76 633 q 222 901 153 829 q 385 1012 292 972 q 589 1051 478 1051 q 785 1014 699 1051 q 932 916 872 976 q 1018 785 992 856 l 871 715 q 765 851 838 799 q 589 903 692 903 q 407 854 486 903 q 284 719 328 806 q 240 518 240 633 q 284 316 240 403 q 407 181 328 229 q 589 133 486 133 q 765 185 692 133 q 871 319 838 236 l 1018 250 q 932 119 992 181 q 785 21 872 58 q 589 -17 699 -17 m 503 1172 l 503 1346 l 676 1346 l 676 1172 l 503 1172 z "},"D":{"ha":1029,"x_min":107,"x_max":975,"o":"m 107 0 l 107 1035 l 446 1035 q 726 970 607 1035 q 910 789 844 906 q 975 518 975 672 q 910 248 975 365 q 726 65 844 131 q 446 0 607 0 l 107 0 m 271 146 l 449 146 q 640 192 558 146 q 765 321 721 238 q 810 518 810 404 q 765 715 810 632 q 639 843 719 797 q 449 889 558 889 l 271 889 l 271 146 z "},"Ǆ":{"ha":1828,"x_min":107,"x_max":1806,"o":"m 107 0 l 107 1035 l 446 1035 q 726 970 607 1035 q 910 789 844 906 q 975 518 975 672 q 910 248 975 365 q 726 65 844 131 q 446 0 607 0 l 107 0 m 271 146 l 449 146 q 640 192 558 146 q 765 321 721 238 q 810 518 810 404 q 765 715 810 632 q 639 843 719 797 q 449 889 558 889 l 271 889 l 271 146 m 1053 0 l 1053 125 l 1583 889 l 1083 889 l 1083 1035 l 1793 1035 l 1793 911 l 1263 146 l 1806 146 l 1806 0 l 1053 0 m 1336 1172 l 1172 1394 l 1333 1394 l 1428 1269 l 1524 1394 l 1685 1394 l 1519 1172 l 1336 1172 z "},"Ď":{"ha":1029,"x_min":107,"x_max":975,"o":"m 107 0 l 107 1035 l 446 1035 q 726 970 607 1035 q 910 789 844 906 q 975 518 975 672 q 910 248 975 365 q 726 65 844 131 q 446 0 607 0 l 107 0 m 271 146 l 449 146 q 640 192 558 146 q 765 321 721 238 q 810 518 810 404 q 765 715 810 632 q 639 843 719 797 q 449 889 558 889 l 271 889 l 271 146 m 433 1172 l 269 1394 l 431 1394 l 525 1269 l 621 1394 l 782 1394 l 617 1172 l 433 1172 z "},"Đ":{"ha":1029,"x_min":28,"x_max":975,"o":"m 28 449 l 28 588 l 490 588 l 490 449 l 28 449 m 107 0 l 107 1035 l 446 1035 q 726 970 607 1035 q 910 789 844 906 q 975 518 975 672 q 910 248 975 365 q 726 65 844 131 q 446 0 607 0 l 107 0 m 271 146 l 449 146 q 640 192 558 146 q 765 321 721 238 q 810 518 810 404 q 765 715 810 632 q 639 843 719 797 q 449 889 558 889 l 271 889 l 271 146 z "},"Ḍ":{"ha":1029,"x_min":107,"x_max":975,"o":"m 107 0 l 107 1035 l 446 1035 q 726 970 607 1035 q 910 789 844 906 q 975 518 975 672 q 910 248 975 365 q 726 65 844 131 q 446 0 607 0 l 107 0 m 271 146 l 449 146 q 640 192 558 146 q 765 321 721 238 q 810 518 810 404 q 765 715 810 632 q 639 843 719 797 q 449 889 558 889 l 271 889 l 271 146 m 439 -299 l 439 -125 l 613 -125 l 613 -299 l 439 -299 z "},"Ḏ":{"ha":1029,"x_min":107,"x_max":975,"o":"m 107 0 l 107 1035 l 446 1035 q 726 970 607 1035 q 910 789 844 906 q 975 518 975 672 q 910 248 975 365 q 726 65 844 131 q 446 0 607 0 l 107 0 m 271 146 l 449 146 q 640 192 558 146 q 765 321 721 238 q 810 518 810 404 q 765 715 810 632 q 639 843 719 797 q 449 889 558 889 l 271 889 l 271 146 m 314 -271 l 314 -139 l 738 -139 l 738 -271 l 314 -271 z "},"ǅ":{"ha":1682,"x_min":107,"x_max":1660,"o":"m 107 0 l 107 1035 l 446 1035 q 726 970 607 1035 q 910 789 844 906 q 975 518 975 672 q 910 248 975 365 q 726 65 844 131 q 446 0 607 0 l 107 0 m 271 146 l 449 146 q 640 192 558 146 q 765 321 721 238 q 810 518 810 404 q 765 715 810 632 q 639 843 719 797 q 449 889 558 889 l 271 889 l 271 146 m 1053 0 l 1053 129 l 1494 664 l 1519 610 l 1074 610 l 1074 751 l 1658 751 l 1658 624 l 1222 88 l 1197 143 l 1660 143 l 1660 0 l 1053 0 m 1264 889 l 1100 1111 l 1261 1111 l 1356 986 l 1451 1111 l 1613 1111 l 1447 889 l 1264 889 z "},"Ð":{"ha":1029,"x_min":28,"x_max":975,"o":"m 28 449 l 28 588 l 490 588 l 490 449 l 28 449 m 107 0 l 107 1035 l 446 1035 q 726 970 607 1035 q 910 789 844 906 q 975 518 975 672 q 910 248 975 365 q 726 65 844 131 q 446 0 607 0 l 107 0 m 271 146 l 449 146 q 640 192 558 146 q 765 321 721 238 q 810 518 810 404 q 765 715 810 632 q 639 843 719 797 q 449 889 558 889 l 271 889 l 271 146 z "},"E":{"ha":835,"x_min":107,"x_max":789,"o":"m 107 0 l 107 1035 l 789 1035 l 789 889 l 271 889 l 271 592 l 761 592 l 761 446 l 271 446 l 271 146 l 789 146 l 789 0 l 107 0 z "},"É":{"ha":835,"x_min":107,"x_max":789,"o":"m 107 0 l 107 1035 l 789 1035 l 789 889 l 271 889 l 271 592 l 761 592 l 761 446 l 271 446 l 271 146 l 789 146 l 789 0 l 107 0 m 371 1172 l 472 1401 l 678 1401 l 526 1172 l 371 1172 z "},"Ĕ":{"ha":835,"x_min":107,"x_max":789,"o":"m 107 0 l 107 1035 l 789 1035 l 789 889 l 271 889 l 271 592 l 761 592 l 761 446 l 271 446 l 271 146 l 789 146 l 789 0 l 107 0 m 449 1176 q 304 1208 361 1176 q 219 1290 247 1239 q 189 1399 190 1340 l 342 1399 q 371 1325 343 1351 q 449 1299 399 1299 q 526 1325 499 1299 q 556 1399 554 1351 l 707 1399 q 677 1288 706 1339 q 592 1207 649 1238 q 449 1176 536 1176 z "},"Ě":{"ha":835,"x_min":107,"x_max":789,"o":"m 107 0 l 107 1035 l 789 1035 l 789 889 l 271 889 l 271 592 l 761 592 l 761 446 l 271 446 l 271 146 l 789 146 l 789 0 l 107 0 m 356 1172 l 192 1394 l 353 1394 l 447 1269 l 543 1394 l 704 1394 l 539 1172 l 356 1172 z "},"Ḝ":{"ha":835,"x_min":107,"x_max":789,"o":"m 107 0 l 107 1035 l 789 1035 l 789 889 l 271 889 l 271 592 l 761 592 l 761 446 l 271 446 l 271 146 l 789 146 l 789 0 l 107 0 m 464 -326 q 382 -314 425 -326 q 310 -278 339 -301 l 346 -183 q 392 -209 367 -200 q 443 -218 418 -218 q 491 -204 474 -218 q 508 -167 508 -190 q 476 -122 508 -139 q 375 -99 443 -106 l 406 14 l 503 14 l 488 -46 q 601 -92 561 -57 q 640 -179 640 -126 q 592 -285 640 -244 q 464 -326 543 -326 m 449 1176 q 304 1208 361 1176 q 219 1290 247 1239 q 189 1399 190 1340 l 342 1399 q 371 1325 343 1351 q 449 1299 399 1299 q 526 1325 499 1299 q 556 1399 554 1351 l 707 1399 q 677 1288 706 1339 q 592 1207 649 1238 q 449 1176 536 1176 z "},"Ê":{"ha":835,"x_min":107,"x_max":789,"o":"m 107 0 l 107 1035 l 789 1035 l 789 889 l 271 889 l 271 592 l 761 592 l 761 446 l 271 446 l 271 146 l 789 146 l 789 0 l 107 0 m 193 1172 l 357 1394 l 540 1394 l 706 1172 l 544 1172 l 449 1299 l 354 1172 l 193 1172 z "},"Ế":{"ha":835,"x_min":107,"x_max":904,"o":"m 107 0 l 107 1035 l 789 1035 l 789 889 l 271 889 l 271 592 l 761 592 l 761 446 l 271 446 l 271 146 l 789 146 l 789 0 l 107 0 m 193 1172 l 357 1381 l 540 1381 l 706 1172 l 544 1172 l 449 1285 l 354 1172 l 193 1172 m 647 1276 l 719 1471 l 904 1471 l 781 1276 l 647 1276 z "},"Ệ":{"ha":835,"x_min":107,"x_max":789,"o":"m 107 0 l 107 1035 l 789 1035 l 789 889 l 271 889 l 271 592 l 761 592 l 761 446 l 271 446 l 271 146 l 789 146 l 789 0 l 107 0 m 361 -299 l 361 -125 l 535 -125 l 535 -299 l 361 -299 m 193 1172 l 357 1394 l 540 1394 l 706 1172 l 544 1172 l 449 1299 l 354 1172 l 193 1172 z "},"Ề":{"ha":835,"x_min":107,"x_max":861,"o":"m 107 0 l 107 1035 l 789 1035 l 789 889 l 271 889 l 271 592 l 761 592 l 761 446 l 271 446 l 271 146 l 789 146 l 789 0 l 107 0 m 193 1172 l 357 1381 l 540 1381 l 706 1172 l 544 1172 l 449 1285 l 354 1172 l 193 1172 m 728 1276 l 604 1471 l 789 1471 l 861 1276 l 728 1276 z "},"Ể":{"ha":835,"x_min":107,"x_max":831,"o":"m 107 0 l 107 1035 l 789 1035 l 789 889 l 271 889 l 271 592 l 761 592 l 761 446 l 271 446 l 271 146 l 789 146 l 789 0 l 107 0 m 193 1172 l 357 1381 l 540 1381 l 706 1172 l 544 1172 l 449 1285 l 354 1172 l 193 1172 m 696 1269 l 633 1346 q 684 1380 669 1361 q 699 1424 699 1399 q 679 1463 699 1447 q 626 1478 660 1478 q 594 1476 610 1478 q 558 1465 578 1474 l 540 1560 q 593 1577 565 1572 q 650 1582 621 1582 q 781 1542 732 1582 q 831 1435 831 1501 q 794 1340 831 1383 q 696 1269 757 1297 z "},"Ễ":{"ha":835,"x_min":107,"x_max":789,"o":"m 107 0 l 107 1035 l 789 1035 l 789 889 l 271 889 l 271 592 l 761 592 l 761 446 l 271 446 l 271 146 l 789 146 l 789 0 l 107 0 m 193 1172 l 357 1381 l 539 1381 l 704 1172 l 543 1172 l 449 1285 l 354 1172 l 193 1172 m 531 1467 q 478 1478 499 1467 q 443 1506 458 1490 q 414 1534 428 1522 q 381 1546 400 1546 q 353 1528 363 1546 q 343 1472 343 1510 l 222 1472 q 242 1585 222 1540 q 294 1651 261 1629 q 364 1672 326 1672 q 417 1660 396 1672 q 454 1633 439 1649 q 484 1605 469 1617 q 515 1593 499 1593 q 546 1613 538 1593 q 554 1667 554 1632 l 674 1667 q 631 1519 674 1571 q 531 1467 589 1467 z "},"Ȅ":{"ha":835,"x_min":83,"x_max":789,"o":"m 107 0 l 107 1035 l 789 1035 l 789 889 l 271 889 l 271 592 l 761 592 l 761 446 l 271 446 l 271 146 l 789 146 l 789 0 l 107 0 m 235 1172 l 83 1404 l 282 1404 l 383 1172 l 235 1172 m 514 1172 l 363 1404 l 561 1404 l 663 1172 l 514 1172 z "},"Ë":{"ha":835,"x_min":107,"x_max":789,"o":"m 107 0 l 107 1035 l 789 1035 l 789 889 l 271 889 l 271 592 l 761 592 l 761 446 l 271 446 l 271 146 l 789 146 l 789 0 l 107 0 m 219 1172 l 219 1346 l 393 1346 l 393 1172 l 219 1172 m 504 1172 l 504 1346 l 678 1346 l 678 1172 l 504 1172 z "},"Ė":{"ha":835,"x_min":107,"x_max":789,"o":"m 107 0 l 107 1035 l 789 1035 l 789 889 l 271 889 l 271 592 l 761 592 l 761 446 l 271 446 l 271 146 l 789 146 l 789 0 l 107 0 m 361 1172 l 361 1346 l 535 1346 l 535 1172 l 361 1172 z "},"Ẹ":{"ha":835,"x_min":107,"x_max":789,"o":"m 107 0 l 107 1035 l 789 1035 l 789 889 l 271 889 l 271 592 l 761 592 l 761 446 l 271 446 l 271 146 l 789 146 l 789 0 l 107 0 m 361 -299 l 361 -125 l 535 -125 l 535 -299 l 361 -299 z "},"È":{"ha":835,"x_min":107,"x_max":789,"o":"m 107 0 l 107 1035 l 789 1035 l 789 889 l 271 889 l 271 592 l 761 592 l 761 446 l 271 446 l 271 146 l 789 146 l 789 0 l 107 0 m 371 1172 l 219 1401 l 425 1401 l 526 1172 l 371 1172 z "},"Ẻ":{"ha":835,"x_min":107,"x_max":789,"o":"m 107 0 l 107 1035 l 789 1035 l 789 889 l 271 889 l 271 592 l 761 592 l 761 446 l 271 446 l 271 146 l 789 146 l 789 0 l 107 0 m 460 1117 l 393 1199 q 446 1234 431 1215 q 461 1279 461 1253 q 441 1321 461 1304 q 385 1338 421 1338 q 351 1335 368 1338 q 314 1324 335 1332 l 294 1424 q 350 1442 321 1436 q 410 1447 379 1447 q 549 1405 497 1447 q 601 1292 601 1363 q 563 1193 601 1239 q 460 1117 525 1147 z "},"Ȇ":{"ha":835,"x_min":107,"x_max":789,"o":"m 107 0 l 107 1035 l 789 1035 l 789 889 l 271 889 l 271 592 l 761 592 l 761 446 l 271 446 l 271 146 l 789 146 l 789 0 l 107 0 m 189 1172 q 219 1283 190 1232 q 304 1364 247 1333 q 449 1394 361 1394 q 592 1365 536 1394 q 677 1284 649 1335 q 707 1172 706 1233 l 556 1172 q 526 1247 554 1221 q 449 1274 499 1274 q 371 1247 399 1274 q 342 1172 343 1221 l 189 1172 z "},"Ē":{"ha":835,"x_min":107,"x_max":789,"o":"m 107 0 l 107 1035 l 789 1035 l 789 889 l 271 889 l 271 592 l 761 592 l 761 446 l 271 446 l 271 146 l 789 146 l 789 0 l 107 0 m 236 1200 l 236 1332 l 660 1332 l 660 1200 l 236 1200 z "},"Ḗ":{"ha":835,"x_min":107,"x_max":789,"o":"m 107 0 l 107 1035 l 789 1035 l 789 889 l 271 889 l 271 592 l 761 592 l 761 446 l 271 446 l 271 146 l 789 146 l 789 0 l 107 0 m 365 1422 l 465 1651 l 671 1651 l 519 1422 l 365 1422 m 231 1200 l 231 1332 l 654 1332 l 654 1200 l 231 1200 z "},"Ḕ":{"ha":835,"x_min":107,"x_max":789,"o":"m 107 0 l 107 1035 l 789 1035 l 789 889 l 271 889 l 271 592 l 761 592 l 761 446 l 271 446 l 271 146 l 789 146 l 789 0 l 107 0 m 236 1200 l 236 1332 l 660 1332 l 660 1200 l 236 1200 m 371 1422 l 219 1651 l 425 1651 l 526 1422 l 371 1422 z "},"Ę":{"ha":835,"x_min":107,"x_max":789,"o":"m 107 0 l 107 1035 l 789 1035 l 789 889 l 271 889 l 271 592 l 761 592 l 761 446 l 271 446 l 271 146 l 789 146 l 789 0 l 107 0 m 611 -326 q 478 -281 528 -326 q 428 -168 428 -236 q 452 -73 428 -117 q 522 2 476 -29 q 629 46 567 33 l 671 46 l 671 0 q 617 -26 642 -6 q 576 -78 592 -47 q 561 -147 561 -110 q 583 -199 561 -179 q 635 -218 606 -218 q 681 -209 660 -218 q 722 -183 703 -200 l 758 -278 q 693 -313 731 -300 q 611 -326 656 -326 z "},"Ẽ":{"ha":835,"x_min":107,"x_max":789,"o":"m 107 0 l 107 1035 l 789 1035 l 789 889 l 271 889 l 271 592 l 761 592 l 761 446 l 271 446 l 271 146 l 789 146 l 789 0 l 107 0 m 543 1172 q 481 1185 506 1172 q 440 1213 457 1197 q 405 1240 422 1228 q 364 1253 388 1253 q 328 1235 340 1253 q 315 1178 315 1217 l 192 1178 q 238 1330 192 1281 q 351 1379 283 1379 q 415 1367 390 1379 q 457 1340 439 1356 q 492 1312 475 1324 q 532 1300 510 1300 q 570 1319 558 1300 q 582 1374 582 1339 l 704 1374 q 658 1224 704 1276 q 543 1172 611 1172 z "},"Ə":{"ha":1139,"x_min":76,"x_max":1063,"o":"m 560 -17 q 366 20 454 -17 q 213 123 278 57 q 113 279 149 189 q 76 476 76 369 q 78 524 76 501 q 86 568 81 546 l 932 568 l 932 432 l 185 432 l 257 483 q 255 460 256 471 q 254 436 254 449 q 294 281 254 350 q 405 173 335 213 q 567 133 475 133 q 701 160 639 133 q 809 237 764 186 q 878 358 854 288 q 899 518 901 429 q 876 670 901 600 q 803 792 851 740 q 688 874 754 844 q 540 903 621 903 q 366 859 443 903 q 247 739 289 815 l 110 806 q 208 935 144 881 q 358 1021 272 990 q 542 1051 444 1051 q 751 1010 656 1051 q 916 897 846 969 q 1024 726 986 824 q 1063 514 1063 628 q 1026 307 1063 403 q 924 138 990 211 q 765 24 857 65 q 560 -17 672 -17 z "},"F":{"ha":811,"x_min":107,"x_max":781,"o":"m 107 0 l 107 1035 l 781 1035 l 781 889 l 271 889 l 271 578 l 725 578 l 725 432 l 271 432 l 271 0 l 107 0 z "},"G":{"ha":1129,"x_min":76,"x_max":1069,"o":"m 592 -17 q 388 24 482 -17 q 224 135 294 64 q 115 304 154 207 q 76 518 76 401 q 115 731 76 633 q 222 901 153 829 q 385 1012 292 972 q 589 1051 478 1051 q 785 1014 699 1051 q 932 916 872 976 q 1018 785 992 856 l 872 714 q 767 851 840 799 q 589 903 693 903 q 407 854 486 903 q 284 719 328 806 q 240 518 240 633 q 285 316 240 403 q 410 181 331 229 q 592 133 489 133 q 749 169 678 133 q 864 269 821 204 q 907 419 907 333 l 907 490 l 981 424 l 589 424 l 589 563 l 1069 563 l 1069 465 q 1031 262 1069 351 q 925 110 992 172 q 772 15 858 47 q 592 -17 686 -17 z "},"Ğ":{"ha":1129,"x_min":76,"x_max":1069,"o":"m 592 -17 q 388 24 482 -17 q 224 135 294 64 q 115 304 154 207 q 76 518 76 401 q 115 731 76 633 q 222 901 153 829 q 385 1012 292 972 q 589 1051 478 1051 q 785 1014 699 1051 q 932 916 872 976 q 1018 785 992 856 l 872 714 q 767 851 840 799 q 589 903 693 903 q 407 854 486 903 q 284 719 328 806 q 240 518 240 633 q 285 316 240 403 q 410 181 331 229 q 592 133 489 133 q 749 169 678 133 q 864 269 821 204 q 907 419 907 333 l 907 490 l 981 424 l 589 424 l 589 563 l 1069 563 l 1069 465 q 1031 262 1069 351 q 925 110 992 172 q 772 15 858 47 q 592 -17 686 -17 m 565 1176 q 421 1208 478 1176 q 335 1290 364 1239 q 306 1399 307 1340 l 458 1399 q 488 1325 460 1351 q 565 1299 515 1299 q 643 1325 615 1299 q 672 1399 671 1351 l 824 1399 q 794 1288 822 1339 q 709 1207 765 1238 q 565 1176 653 1176 z "},"Ǧ":{"ha":1129,"x_min":76,"x_max":1069,"o":"m 592 -17 q 388 24 482 -17 q 224 135 294 64 q 115 304 154 207 q 76 518 76 401 q 115 731 76 633 q 222 901 153 829 q 385 1012 292 972 q 589 1051 478 1051 q 785 1014 699 1051 q 932 916 872 976 q 1018 785 992 856 l 872 714 q 767 851 840 799 q 589 903 693 903 q 407 854 486 903 q 284 719 328 806 q 240 518 240 633 q 285 316 240 403 q 410 181 331 229 q 592 133 489 133 q 749 169 678 133 q 864 269 821 204 q 907 419 907 333 l 907 490 l 981 424 l 589 424 l 589 563 l 1069 563 l 1069 465 q 1031 262 1069 351 q 925 110 992 172 q 772 15 858 47 q 592 -17 686 -17 m 472 1172 l 308 1394 l 469 1394 l 564 1269 l 660 1394 l 821 1394 l 656 1172 l 472 1172 z "},"Ĝ":{"ha":1129,"x_min":76,"x_max":1069,"o":"m 592 -17 q 388 24 482 -17 q 224 135 294 64 q 115 304 154 207 q 76 518 76 401 q 115 731 76 633 q 222 901 153 829 q 385 1012 292 972 q 589 1051 478 1051 q 785 1014 699 1051 q 932 916 872 976 q 1018 785 992 856 l 872 714 q 767 851 840 799 q 589 903 693 903 q 407 854 486 903 q 284 719 328 806 q 240 518 240 633 q 285 316 240 403 q 410 181 331 229 q 592 133 489 133 q 749 169 678 133 q 864 269 821 204 q 907 419 907 333 l 907 490 l 981 424 l 589 424 l 589 563 l 1069 563 l 1069 465 q 1031 262 1069 351 q 925 110 992 172 q 772 15 858 47 q 592 -17 686 -17 m 310 1172 l 474 1394 l 657 1394 l 822 1172 l 661 1172 l 565 1299 l 471 1172 l 310 1172 z "},"Ģ":{"ha":1129,"x_min":76,"x_max":1069,"o":"m 592 -17 q 388 24 482 -17 q 224 135 294 64 q 115 304 154 207 q 76 518 76 401 q 115 731 76 633 q 222 901 153 829 q 385 1012 292 972 q 589 1051 478 1051 q 785 1014 699 1051 q 932 916 872 976 q 1018 785 992 856 l 872 714 q 767 851 840 799 q 589 903 693 903 q 407 854 486 903 q 284 719 328 806 q 240 518 240 633 q 285 316 240 403 q 410 181 331 229 q 592 133 489 133 q 749 169 678 133 q 864 269 821 204 q 907 419 907 333 l 907 490 l 981 424 l 589 424 l 589 563 l 1069 563 l 1069 465 q 1031 262 1069 351 q 925 110 992 172 q 772 15 858 47 q 592 -17 686 -17 m 419 -349 l 467 -97 l 664 -97 l 567 -349 l 419 -349 z "},"Ġ":{"ha":1129,"x_min":76,"x_max":1069,"o":"m 592 -17 q 388 24 482 -17 q 224 135 294 64 q 115 304 154 207 q 76 518 76 401 q 115 731 76 633 q 222 901 153 829 q 385 1012 292 972 q 589 1051 478 1051 q 785 1014 699 1051 q 932 916 872 976 q 1018 785 992 856 l 872 714 q 767 851 840 799 q 589 903 693 903 q 407 854 486 903 q 284 719 328 806 q 240 518 240 633 q 285 316 240 403 q 410 181 331 229 q 592 133 489 133 q 749 169 678 133 q 864 269 821 204 q 907 419 907 333 l 907 490 l 981 424 l 589 424 l 589 563 l 1069 563 l 1069 465 q 1031 262 1069 351 q 925 110 992 172 q 772 15 858 47 q 592 -17 686 -17 m 478 1172 l 478 1346 l 651 1346 l 651 1172 l 478 1172 z "},"Ḡ":{"ha":1129,"x_min":76,"x_max":1069,"o":"m 592 -17 q 388 24 482 -17 q 224 135 294 64 q 115 304 154 207 q 76 518 76 401 q 115 731 76 633 q 222 901 153 829 q 385 1012 292 972 q 589 1051 478 1051 q 785 1014 699 1051 q 932 916 872 976 q 1018 785 992 856 l 872 714 q 767 851 840 799 q 589 903 693 903 q 407 854 486 903 q 284 719 328 806 q 240 518 240 633 q 285 316 240 403 q 410 181 331 229 q 592 133 489 133 q 749 169 678 133 q 864 269 821 204 q 907 419 907 333 l 907 490 l 981 424 l 589 424 l 589 563 l 1069 563 l 1069 465 q 1031 262 1069 351 q 925 110 992 172 q 772 15 858 47 q 592 -17 686 -17 m 353 1200 l 353 1332 l 776 1332 l 776 1200 l 353 1200 z "},"H":{"ha":1019,"x_min":107,"x_max":913,"o":"m 107 0 l 107 1035 l 271 1035 l 271 579 l 750 579 l 750 1035 l 913 1035 l 913 0 l 750 0 l 750 433 l 271 433 l 271 0 l 107 0 z "},"Ħ":{"ha":1019,"x_min":-6,"x_max":1026,"o":"m -6 756 l -6 899 l 1026 899 l 1026 756 l -6 756 m 107 0 l 107 1035 l 271 1035 l 271 579 l 750 579 l 750 1035 l 913 1035 l 913 0 l 750 0 l 750 433 l 271 433 l 271 0 l 107 0 z "},"Ḫ":{"ha":1019,"x_min":107,"x_max":913,"o":"m 107 0 l 107 1035 l 271 1035 l 271 579 l 750 579 l 750 1035 l 913 1035 l 913 0 l 750 0 l 750 433 l 271 433 l 271 0 l 107 0 m 511 -347 q 367 -316 424 -347 q 281 -234 310 -285 q 251 -125 253 -183 l 404 -125 q 433 -199 406 -172 q 511 -225 461 -225 q 589 -199 561 -225 q 618 -125 617 -172 l 769 -125 q 740 -235 768 -185 q 655 -317 711 -286 q 511 -347 599 -347 z "},"Ĥ":{"ha":1019,"x_min":107,"x_max":913,"o":"m 107 0 l 107 1035 l 271 1035 l 271 579 l 750 579 l 750 1035 l 913 1035 l 913 0 l 750 0 l 750 433 l 271 433 l 271 0 l 107 0 m 254 1172 l 418 1394 l 601 1394 l 767 1172 l 606 1172 l 510 1299 l 415 1172 l 254 1172 z "},"Ḥ":{"ha":1019,"x_min":107,"x_max":913,"o":"m 107 0 l 107 1035 l 271 1035 l 271 579 l 750 579 l 750 1035 l 913 1035 l 913 0 l 750 0 l 750 433 l 271 433 l 271 0 l 107 0 m 424 -299 l 424 -125 l 597 -125 l 597 -299 l 424 -299 z "},"I":{"ha":378,"x_min":107,"x_max":271,"o":"m 107 0 l 107 1035 l 271 1035 l 271 0 l 107 0 z "},"Ĳ":{"ha":918,"x_min":107,"x_max":814,"o":"m 107 0 l 107 1035 l 271 1035 l 271 0 l 107 0 m 439 0 l 439 153 l 499 153 q 610 194 568 153 q 651 304 651 235 l 651 1035 l 814 1035 l 814 310 q 776 146 814 215 q 666 38 738 76 q 499 0 594 0 l 439 0 z "},"Í":{"ha":378,"x_min":107,"x_max":418,"o":"m 107 0 l 107 1035 l 271 1035 l 271 0 l 107 0 m 111 1172 l 213 1401 l 418 1401 l 267 1172 l 111 1172 z "},"Ĭ":{"ha":378,"x_min":-69,"x_max":447,"o":"m 107 0 l 107 1035 l 271 1035 l 271 0 l 107 0 m 190 1176 q 46 1208 103 1176 q -40 1290 -11 1239 q -69 1399 -68 1340 l 83 1399 q 113 1325 85 1351 q 190 1299 140 1299 q 268 1325 240 1299 q 297 1399 296 1351 l 449 1399 q 419 1288 447 1339 q 334 1207 390 1238 q 190 1176 278 1176 z "},"Î":{"ha":378,"x_min":-67,"x_max":446,"o":"m 107 0 l 107 1035 l 271 1035 l 271 0 l 107 0 m -67 1172 l 97 1394 l 281 1394 l 446 1172 l 285 1172 l 189 1299 l 94 1172 l -67 1172 z "},"Ȉ":{"ha":378,"x_min":-176,"x_max":403,"o":"m 107 0 l 107 1035 l 271 1035 l 271 0 l 107 0 m -25 1172 l -176 1404 l 22 1404 l 124 1172 l -25 1172 m 254 1172 l 103 1404 l 301 1404 l 403 1172 l 254 1172 z "},"Ï":{"ha":378,"x_min":-40,"x_max":418,"o":"m 107 0 l 107 1035 l 271 1035 l 271 0 l 107 0 m -40 1172 l -40 1346 l 133 1346 l 133 1172 l -40 1172 m 244 1172 l 244 1346 l 418 1346 l 418 1172 l 244 1172 z "},"Ḯ":{"ha":378,"x_min":-43,"x_max":415,"o":"m 107 0 l 107 1035 l 271 1035 l 271 0 l 107 0 m 108 1422 l 210 1651 l 415 1651 l 264 1422 l 108 1422 m -43 1172 l -43 1346 l 131 1346 l 131 1172 l -43 1172 m 242 1172 l 242 1346 l 415 1346 l 415 1172 l 242 1172 z "},"İ":{"ha":378,"x_min":103,"x_max":276,"o":"m 107 0 l 107 1035 l 271 1035 l 271 0 l 107 0 m 103 1172 l 103 1346 l 276 1346 l 276 1172 l 103 1172 z "},"Ị":{"ha":378,"x_min":103,"x_max":276,"o":"m 107 0 l 107 1035 l 271 1035 l 271 0 l 107 0 m 103 -299 l 103 -125 l 276 -125 l 276 -299 l 103 -299 z "},"Ì":{"ha":378,"x_min":-39,"x_max":271,"o":"m 107 0 l 107 1035 l 271 1035 l 271 0 l 107 0 m 113 1172 l -39 1401 l 167 1401 l 268 1172 l 113 1172 z "},"Ỉ":{"ha":378,"x_min":35,"x_max":342,"o":"m 107 0 l 107 1035 l 271 1035 l 271 0 l 107 0 m 200 1117 l 133 1199 q 186 1234 171 1215 q 201 1279 201 1253 q 181 1321 201 1304 q 125 1338 161 1338 q 92 1335 108 1338 q 54 1324 75 1332 l 35 1424 q 90 1442 61 1436 q 150 1447 119 1447 q 290 1405 238 1447 q 342 1292 342 1363 q 303 1193 342 1239 q 200 1117 265 1147 z "},"Ȋ":{"ha":378,"x_min":-69,"x_max":447,"o":"m 107 0 l 107 1035 l 271 1035 l 271 0 l 107 0 m -69 1172 q -40 1283 -68 1232 q 46 1364 -11 1333 q 190 1394 103 1394 q 334 1365 278 1394 q 419 1284 390 1335 q 449 1172 447 1233 l 297 1172 q 268 1247 296 1221 q 190 1274 240 1274 q 113 1247 140 1274 q 83 1172 85 1221 l -69 1172 z "},"Ī":{"ha":378,"x_min":-22,"x_max":401,"o":"m 107 0 l 107 1035 l 271 1035 l 271 0 l 107 0 m -22 1200 l -22 1332 l 401 1332 l 401 1200 l -22 1200 z "},"Į":{"ha":378,"x_min":-7,"x_max":322,"o":"m 107 0 l 107 1035 l 271 1035 l 271 0 l 107 0 m 176 -326 q 43 -281 93 -326 q -7 -168 -7 -236 q 17 -73 -7 -117 q 87 2 42 -29 q 194 46 132 33 l 236 46 l 236 0 q 182 -26 207 -6 q 142 -78 157 -47 q 126 -147 126 -110 q 149 -199 126 -179 q 200 -218 171 -218 q 247 -209 225 -218 q 288 -183 268 -200 l 324 -278 q 258 -313 296 -300 q 176 -326 221 -326 z "},"Ĩ":{"ha":378,"x_min":-67,"x_max":446,"o":"m 107 0 l 107 1035 l 271 1035 l 271 0 l 107 0 m 285 1172 q 223 1185 247 1172 q 181 1213 199 1197 q 147 1240 164 1228 q 106 1253 129 1253 q 69 1235 82 1253 q 57 1178 57 1217 l -67 1178 q -21 1330 -67 1281 q 93 1379 25 1379 q 156 1367 132 1379 q 199 1340 181 1356 q 234 1312 217 1324 q 274 1300 251 1300 q 312 1319 300 1300 q 324 1374 324 1339 l 446 1374 q 399 1224 446 1276 q 285 1172 353 1172 z "},"J":{"ha":542,"x_min":61,"x_max":436,"o":"m 61 0 l 61 153 l 121 153 q 232 194 190 153 q 274 304 274 235 l 274 1035 l 436 1035 l 436 310 q 398 146 436 215 q 288 38 360 76 q 121 0 217 0 l 61 0 z "},"Ĵ":{"ha":542,"x_min":61,"x_max":611,"o":"m 61 0 l 61 153 l 121 153 q 232 194 190 153 q 274 304 274 235 l 274 1035 l 436 1035 l 436 310 q 398 146 436 215 q 288 38 360 76 q 121 0 217 0 l 61 0 m 100 1172 l 264 1394 l 447 1394 l 613 1172 l 451 1172 l 356 1299 l 261 1172 l 100 1172 z "},"K":{"ha":932,"x_min":107,"x_max":917,"o":"m 107 0 l 107 1035 l 271 1035 l 271 474 l 228 490 l 696 1035 l 900 1035 l 486 550 l 494 667 l 917 0 l 724 0 l 421 474 l 271 299 l 271 0 l 107 0 z "},"Ķ":{"ha":932,"x_min":107,"x_max":917,"o":"m 107 0 l 107 1035 l 271 1035 l 271 474 l 228 490 l 696 1035 l 900 1035 l 486 550 l 494 667 l 917 0 l 724 0 l 421 474 l 271 299 l 271 0 l 107 0 m 321 -349 l 368 -97 l 565 -97 l 468 -349 l 321 -349 z "},"L":{"ha":749,"x_min":107,"x_max":718,"o":"m 107 0 l 107 1035 l 271 1035 l 271 146 l 718 146 l 718 0 l 107 0 z "},"Ǉ":{"ha":1585,"x_min":107,"x_max":1479,"o":"m 107 0 l 107 1035 l 271 1035 l 271 146 l 718 146 l 718 0 l 107 0 m 1146 -17 q 917 54 1010 -17 q 796 244 824 125 l 947 288 q 1021 174 968 214 q 1146 133 1074 133 q 1238 155 1200 133 q 1297 215 1276 176 q 1317 306 1317 254 l 1317 1035 l 1479 1035 l 1479 306 q 1440 141 1479 214 q 1325 26 1400 68 q 1146 -17 1250 -17 z "},"Ĺ":{"ha":749,"x_min":107,"x_max":718,"o":"m 107 0 l 107 1035 l 271 1035 l 271 146 l 718 146 l 718 0 l 107 0 m 111 1172 l 213 1401 l 418 1401 l 267 1172 l 111 1172 z "},"Ľ":{"ha":749,"x_min":107,"x_max":718,"o":"m 107 0 l 107 1035 l 271 1035 l 271 146 l 718 146 l 718 0 l 107 0 m 494 799 l 494 1051 l 685 1051 l 635 799 l 494 799 z "},"Ļ":{"ha":749,"x_min":107,"x_max":718,"o":"m 107 0 l 107 1035 l 271 1035 l 271 146 l 718 146 l 718 0 l 107 0 m 268 -349 l 315 -97 l 513 -97 l 415 -349 l 268 -349 z "},"Ŀ":{"ha":749,"x_min":107,"x_max":718,"o":"m 496 424 q 428 451 456 424 q 401 518 401 478 q 428 584 401 557 q 496 611 456 611 q 562 584 535 611 q 589 518 589 557 q 562 451 589 478 q 496 424 535 424 m 107 0 l 107 1035 l 271 1035 l 271 146 l 718 146 l 718 0 l 107 0 z "},"Ḷ":{"ha":749,"x_min":107,"x_max":718,"o":"m 107 0 l 107 1035 l 271 1035 l 271 146 l 718 146 l 718 0 l 107 0 m 326 -299 l 326 -125 l 500 -125 l 500 -299 l 326 -299 z "},"ǈ":{"ha":1089,"x_min":107,"x_max":997,"o":"m 107 0 l 107 1035 l 271 1035 l 271 146 l 718 146 l 718 0 l 107 0 m 725 -307 q 691 -305 710 -307 q 660 -300 672 -303 l 660 -164 q 713 -168 686 -168 q 806 -138 771 -168 q 840 -49 840 -108 l 840 751 l 997 751 l 997 -49 q 963 -189 997 -131 q 867 -277 928 -247 q 725 -307 806 -307 m 840 854 l 840 1035 l 997 1035 l 997 854 l 840 854 z "},"Ḻ":{"ha":749,"x_min":107,"x_max":718,"o":"m 107 0 l 107 1035 l 271 1035 l 271 146 l 718 146 l 718 0 l 107 0 m 201 -271 l 201 -139 l 625 -139 l 625 -271 l 201 -271 z "},"Ł":{"ha":847,"x_min":54,"x_max":817,"o":"m 54 301 l 54 458 l 522 736 l 522 579 l 54 301 m 206 0 l 206 1035 l 369 1035 l 369 146 l 817 146 l 817 0 l 206 0 z "},"M":{"ha":1214,"x_min":107,"x_max":1107,"o":"m 107 0 l 107 1035 l 260 1035 l 649 496 l 572 496 l 954 1035 l 1107 1035 l 1107 0 l 944 0 l 944 842 l 1006 825 l 615 292 l 599 292 l 217 825 l 271 842 l 271 0 l 107 0 z "},"Ṃ":{"ha":1214,"x_min":107,"x_max":1107,"o":"m 107 0 l 107 1035 l 260 1035 l 649 496 l 572 496 l 954 1035 l 1107 1035 l 1107 0 l 944 0 l 944 842 l 1006 825 l 615 292 l 599 292 l 217 825 l 271 842 l 271 0 l 107 0 m 521 -299 l 521 -125 l 694 -125 l 694 -299 l 521 -299 z "},"N":{"ha":1026,"x_min":107,"x_max":919,"o":"m 107 0 l 107 1035 l 239 1035 l 819 233 l 757 224 l 757 1035 l 919 1035 l 919 0 l 788 0 l 211 807 l 271 818 l 271 0 l 107 0 z "},"Ǌ":{"ha":1568,"x_min":107,"x_max":1463,"o":"m 107 0 l 107 1035 l 239 1035 l 819 233 l 757 224 l 757 1035 l 919 1035 l 919 0 l 788 0 l 211 807 l 271 818 l 271 0 l 107 0 m 1088 0 l 1088 153 l 1147 153 q 1258 194 1217 153 q 1300 304 1300 235 l 1300 1035 l 1463 1035 l 1463 310 q 1424 146 1463 215 q 1315 38 1386 76 q 1147 0 1243 0 l 1088 0 z "},"Ń":{"ha":1026,"x_min":107,"x_max":919,"o":"m 107 0 l 107 1035 l 239 1035 l 819 233 l 757 224 l 757 1035 l 919 1035 l 919 0 l 788 0 l 211 807 l 271 818 l 271 0 l 107 0 m 436 1172 l 538 1401 l 743 1401 l 592 1172 l 436 1172 z "},"Ň":{"ha":1026,"x_min":107,"x_max":919,"o":"m 107 0 l 107 1035 l 239 1035 l 819 233 l 757 224 l 757 1035 l 919 1035 l 919 0 l 788 0 l 211 807 l 271 818 l 271 0 l 107 0 m 421 1172 l 257 1394 l 418 1394 l 513 1269 l 608 1394 l 769 1394 l 604 1172 l 421 1172 z "},"Ņ":{"ha":1026,"x_min":107,"x_max":919,"o":"m 107 0 l 107 1035 l 239 1035 l 819 233 l 757 224 l 757 1035 l 919 1035 l 919 0 l 788 0 l 211 807 l 271 818 l 271 0 l 107 0 m 368 -349 l 415 -97 l 613 -97 l 515 -349 l 368 -349 z "},"Ṅ":{"ha":1026,"x_min":107,"x_max":919,"o":"m 107 0 l 107 1035 l 239 1035 l 819 233 l 757 224 l 757 1035 l 919 1035 l 919 0 l 788 0 l 211 807 l 271 818 l 271 0 l 107 0 m 426 1172 l 426 1346 l 600 1346 l 600 1172 l 426 1172 z "},"Ṇ":{"ha":1026,"x_min":107,"x_max":919,"o":"m 107 0 l 107 1035 l 239 1035 l 819 233 l 757 224 l 757 1035 l 919 1035 l 919 0 l 788 0 l 211 807 l 271 818 l 271 0 l 107 0 m 426 -299 l 426 -125 l 600 -125 l 600 -299 l 426 -299 z "},"ǋ":{"ha":1367,"x_min":107,"x_max":1275,"o":"m 107 0 l 107 1035 l 239 1035 l 819 233 l 757 224 l 757 1035 l 919 1035 l 919 0 l 788 0 l 211 807 l 271 818 l 271 0 l 107 0 m 1003 -307 q 969 -305 988 -307 q 938 -300 950 -303 l 938 -164 q 990 -168 964 -168 q 1083 -138 1049 -168 q 1118 -49 1118 -108 l 1118 751 l 1275 751 l 1275 -49 q 1240 -189 1275 -131 q 1144 -277 1206 -247 q 1003 -307 1083 -307 m 1118 854 l 1118 1035 l 1275 1035 l 1275 854 l 1118 854 z "},"Ṉ":{"ha":1026,"x_min":107,"x_max":919,"o":"m 107 0 l 107 1035 l 239 1035 l 819 233 l 757 224 l 757 1035 l 919 1035 l 919 0 l 788 0 l 211 807 l 271 818 l 271 0 l 107 0 m 301 -271 l 301 -139 l 725 -139 l 725 -271 l 301 -271 z "},"Ñ":{"ha":1026,"x_min":107,"x_max":919,"o":"m 107 0 l 107 1035 l 239 1035 l 819 233 l 757 224 l 757 1035 l 919 1035 l 919 0 l 788 0 l 211 807 l 271 818 l 271 0 l 107 0 m 608 1172 q 547 1185 571 1172 q 505 1213 522 1197 q 470 1240 488 1228 q 429 1253 453 1253 q 393 1235 406 1253 q 381 1178 381 1217 l 257 1178 q 303 1330 257 1281 q 417 1379 349 1379 q 480 1367 456 1379 q 522 1340 504 1356 q 558 1312 540 1324 q 597 1300 575 1300 q 635 1319 624 1300 q 647 1374 647 1339 l 769 1374 q 723 1224 769 1276 q 608 1172 676 1172 z "},"Ŋ":{"ha":1026,"x_min":107,"x_max":919,"o":"m 649 -307 q 615 -305 633 -307 q 583 -300 596 -303 l 583 -160 q 636 -164 610 -164 q 727 -136 694 -164 q 760 -49 760 -108 l 760 110 l 801 -21 l 229 785 l 271 797 l 271 0 l 107 0 l 107 1035 l 239 1035 l 800 261 l 757 247 l 757 1035 l 919 1035 l 919 -49 q 885 -189 919 -131 q 790 -277 851 -247 q 649 -307 729 -307 z "},"O":{"ha":1219,"x_min":76,"x_max":1143,"o":"m 610 -17 q 401 24 497 -17 q 231 136 304 64 q 117 306 158 208 q 76 518 76 403 q 117 731 76 633 q 231 901 158 829 q 400 1012 303 972 q 610 1051 497 1051 q 820 1012 724 1051 q 990 900 917 972 q 1103 731 1063 828 q 1143 518 1143 633 q 1102 306 1143 403 q 989 136 1061 208 q 819 24 917 64 q 610 -17 722 -17 m 610 133 q 758 163 690 133 q 875 244 825 192 q 953 366 925 296 q 981 518 981 436 q 953 669 981 600 q 875 792 925 739 q 758 874 825 844 q 610 903 690 903 q 462 874 529 903 q 344 792 394 844 q 267 669 294 739 q 240 518 240 600 q 267 366 240 436 q 344 244 294 296 q 463 163 394 192 q 610 133 531 133 z "},"Ó":{"ha":1219,"x_min":76,"x_max":1143,"o":"m 610 -17 q 401 24 497 -17 q 231 136 304 64 q 117 306 158 208 q 76 518 76 403 q 117 731 76 633 q 231 901 158 829 q 400 1012 303 972 q 610 1051 497 1051 q 820 1012 724 1051 q 990 900 917 972 q 1103 731 1063 828 q 1143 518 1143 633 q 1102 306 1143 403 q 989 136 1061 208 q 819 24 917 64 q 610 -17 722 -17 m 610 133 q 758 163 690 133 q 875 244 825 192 q 953 366 925 296 q 981 518 981 436 q 953 669 981 600 q 875 792 925 739 q 758 874 825 844 q 610 903 690 903 q 462 874 529 903 q 344 792 394 844 q 267 669 294 739 q 240 518 240 600 q 267 366 240 436 q 344 244 294 296 q 463 163 394 192 q 610 133 531 133 m 532 1172 l 633 1401 l 839 1401 l 688 1172 l 532 1172 z "},"Ŏ":{"ha":1219,"x_min":76,"x_max":1143,"o":"m 610 -17 q 401 24 497 -17 q 231 136 304 64 q 117 306 158 208 q 76 518 76 403 q 117 731 76 633 q 231 901 158 829 q 400 1012 303 972 q 610 1051 497 1051 q 820 1012 724 1051 q 990 900 917 972 q 1103 731 1063 828 q 1143 518 1143 633 q 1102 306 1143 403 q 989 136 1061 208 q 819 24 917 64 q 610 -17 722 -17 m 610 133 q 758 163 690 133 q 875 244 825 192 q 953 366 925 296 q 981 518 981 436 q 953 669 981 600 q 875 792 925 739 q 758 874 825 844 q 610 903 690 903 q 462 874 529 903 q 344 792 394 844 q 267 669 294 739 q 240 518 240 600 q 267 366 240 436 q 344 244 294 296 q 463 163 394 192 q 610 133 531 133 m 611 1176 q 467 1208 524 1176 q 381 1290 410 1239 q 351 1399 353 1340 l 504 1399 q 533 1325 506 1351 q 611 1299 561 1299 q 689 1325 661 1299 q 718 1399 717 1351 l 869 1399 q 840 1288 868 1339 q 755 1207 811 1238 q 611 1176 699 1176 z "},"Ô":{"ha":1219,"x_min":76,"x_max":1143,"o":"m 610 -17 q 401 24 497 -17 q 231 136 304 64 q 117 306 158 208 q 76 518 76 403 q 117 731 76 633 q 231 901 158 829 q 400 1012 303 972 q 610 1051 497 1051 q 820 1012 724 1051 q 990 900 917 972 q 1103 731 1063 828 q 1143 518 1143 633 q 1102 306 1143 403 q 989 136 1061 208 q 819 24 917 64 q 610 -17 722 -17 m 610 133 q 758 163 690 133 q 875 244 825 192 q 953 366 925 296 q 981 518 981 436 q 953 669 981 600 q 875 792 925 739 q 758 874 825 844 q 610 903 690 903 q 462 874 529 903 q 344 792 394 844 q 267 669 294 739 q 240 518 240 600 q 267 366 240 436 q 344 244 294 296 q 463 163 394 192 q 610 133 531 133 m 354 1172 l 518 1394 l 701 1394 l 867 1172 l 706 1172 l 610 1299 l 515 1172 l 354 1172 z "},"Ố":{"ha":1219,"x_min":76,"x_max":1143,"o":"m 610 -17 q 401 24 497 -17 q 231 136 304 64 q 117 306 158 208 q 76 518 76 403 q 117 731 76 633 q 231 901 158 829 q 400 1012 303 972 q 610 1051 497 1051 q 820 1012 724 1051 q 990 900 917 972 q 1103 731 1063 828 q 1143 518 1143 633 q 1102 306 1143 403 q 989 136 1061 208 q 819 24 917 64 q 610 -17 722 -17 m 610 133 q 758 163 690 133 q 875 244 825 192 q 953 366 925 296 q 981 518 981 436 q 953 669 981 600 q 875 792 925 739 q 758 874 825 844 q 610 903 690 903 q 462 874 529 903 q 344 792 394 844 q 267 669 294 739 q 240 518 240 600 q 267 366 240 436 q 344 244 294 296 q 463 163 394 192 q 610 133 531 133 m 354 1172 l 518 1381 l 701 1381 l 867 1172 l 706 1172 l 610 1285 l 515 1172 l 354 1172 m 808 1276 l 881 1471 l 1065 1471 l 942 1276 l 808 1276 z "},"Ộ":{"ha":1219,"x_min":76,"x_max":1143,"o":"m 610 -17 q 401 24 497 -17 q 231 136 304 64 q 117 306 158 208 q 76 518 76 403 q 117 731 76 633 q 231 901 158 829 q 400 1012 303 972 q 610 1051 497 1051 q 820 1012 724 1051 q 990 900 917 972 q 1103 731 1063 828 q 1143 518 1143 633 q 1102 306 1143 403 q 989 136 1061 208 q 819 24 917 64 q 610 -17 722 -17 m 610 133 q 758 163 690 133 q 875 244 825 192 q 953 366 925 296 q 981 518 981 436 q 953 669 981 600 q 875 792 925 739 q 758 874 825 844 q 610 903 690 903 q 462 874 529 903 q 344 792 394 844 q 267 669 294 739 q 240 518 240 600 q 267 366 240 436 q 344 244 294 296 q 463 163 394 192 q 610 133 531 133 m 524 -299 l 524 -125 l 697 -125 l 697 -299 l 524 -299 m 354 1172 l 518 1394 l 701 1394 l 867 1172 l 706 1172 l 610 1299 l 515 1172 l 354 1172 z "},"Ồ":{"ha":1219,"x_min":76,"x_max":1143,"o":"m 610 -17 q 401 24 497 -17 q 231 136 304 64 q 117 306 158 208 q 76 518 76 403 q 117 731 76 633 q 231 901 158 829 q 400 1012 303 972 q 610 1051 497 1051 q 820 1012 724 1051 q 990 900 917 972 q 1103 731 1063 828 q 1143 518 1143 633 q 1102 306 1143 403 q 989 136 1061 208 q 819 24 917 64 q 610 -17 722 -17 m 610 133 q 758 163 690 133 q 875 244 825 192 q 953 366 925 296 q 981 518 981 436 q 953 669 981 600 q 875 792 925 739 q 758 874 825 844 q 610 903 690 903 q 462 874 529 903 q 344 792 394 844 q 267 669 294 739 q 240 518 240 600 q 267 366 240 436 q 344 244 294 296 q 463 163 394 192 q 610 133 531 133 m 354 1172 l 518 1381 l 701 1381 l 867 1172 l 706 1172 l 610 1285 l 515 1172 l 354 1172 m 889 1276 l 765 1471 l 950 1471 l 1022 1276 l 889 1276 z "},"Ổ":{"ha":1219,"x_min":76,"x_max":1143,"o":"m 610 -17 q 401 24 497 -17 q 231 136 304 64 q 117 306 158 208 q 76 518 76 403 q 117 731 76 633 q 231 901 158 829 q 400 1012 303 972 q 610 1051 497 1051 q 820 1012 724 1051 q 990 900 917 972 q 1103 731 1063 828 q 1143 518 1143 633 q 1102 306 1143 403 q 989 136 1061 208 q 819 24 917 64 q 610 -17 722 -17 m 610 133 q 758 163 690 133 q 875 244 825 192 q 953 366 925 296 q 981 518 981 436 q 953 669 981 600 q 875 792 925 739 q 758 874 825 844 q 610 903 690 903 q 462 874 529 903 q 344 792 394 844 q 267 669 294 739 q 240 518 240 600 q 267 366 240 436 q 344 244 294 296 q 463 163 394 192 q 610 133 531 133 m 354 1172 l 518 1381 l 701 1381 l 867 1172 l 706 1172 l 610 1285 l 515 1172 l 354 1172 m 857 1269 l 794 1346 q 845 1380 831 1361 q 860 1424 860 1399 q 840 1463 860 1447 q 788 1478 821 1478 q 755 1476 771 1478 q 719 1465 739 1474 l 701 1560 q 754 1577 726 1572 q 811 1582 782 1582 q 942 1542 893 1582 q 992 1435 992 1501 q 955 1340 992 1383 q 857 1269 918 1297 z "},"Ỗ":{"ha":1219,"x_min":76,"x_max":1143,"o":"m 610 -17 q 401 24 497 -17 q 231 136 304 64 q 117 306 158 208 q 76 518 76 403 q 117 731 76 633 q 231 901 158 829 q 400 1012 303 972 q 610 1051 497 1051 q 820 1012 724 1051 q 990 900 917 972 q 1103 731 1063 828 q 1143 518 1143 633 q 1102 306 1143 403 q 989 136 1061 208 q 819 24 917 64 q 610 -17 722 -17 m 610 133 q 758 163 690 133 q 875 244 825 192 q 953 366 925 296 q 981 518 981 436 q 953 669 981 600 q 875 792 925 739 q 758 874 825 844 q 610 903 690 903 q 462 874 529 903 q 344 792 394 844 q 267 669 294 739 q 240 518 240 600 q 267 366 240 436 q 344 244 294 296 q 463 163 394 192 q 610 133 531 133 m 356 1172 l 519 1381 l 701 1381 l 867 1172 l 706 1172 l 611 1285 l 517 1172 l 356 1172 m 693 1467 q 641 1478 661 1467 q 606 1506 621 1490 q 576 1534 590 1522 q 543 1546 563 1546 q 515 1528 525 1546 q 506 1472 506 1510 l 385 1472 q 404 1585 385 1540 q 456 1651 424 1629 q 526 1672 489 1672 q 580 1660 558 1672 q 617 1633 601 1649 q 647 1605 632 1617 q 678 1593 661 1593 q 708 1613 700 1593 q 717 1667 717 1632 l 836 1667 q 794 1519 836 1571 q 693 1467 751 1467 z "},"Ȍ":{"ha":1219,"x_min":76,"x_max":1143,"o":"m 610 -17 q 401 24 497 -17 q 231 136 304 64 q 117 306 158 208 q 76 518 76 403 q 117 731 76 633 q 231 901 158 829 q 400 1012 303 972 q 610 1051 497 1051 q 820 1012 724 1051 q 990 900 917 972 q 1103 731 1063 828 q 1143 518 1143 633 q 1102 306 1143 403 q 989 136 1061 208 q 819 24 917 64 q 610 -17 722 -17 m 610 133 q 758 163 690 133 q 875 244 825 192 q 953 366 925 296 q 981 518 981 436 q 953 669 981 600 q 875 792 925 739 q 758 874 825 844 q 610 903 690 903 q 462 874 529 903 q 344 792 394 844 q 267 669 294 739 q 240 518 240 600 q 267 366 240 436 q 344 244 294 296 q 463 163 394 192 q 610 133 531 133 m 396 1172 l 244 1404 l 443 1404 l 544 1172 l 396 1172 m 675 1172 l 524 1404 l 722 1404 l 824 1172 l 675 1172 z "},"Ö":{"ha":1219,"x_min":76,"x_max":1143,"o":"m 610 -17 q 401 24 497 -17 q 231 136 304 64 q 117 306 158 208 q 76 518 76 403 q 117 731 76 633 q 231 901 158 829 q 400 1012 303 972 q 610 1051 497 1051 q 820 1012 724 1051 q 990 900 917 972 q 1103 731 1063 828 q 1143 518 1143 633 q 1102 306 1143 403 q 989 136 1061 208 q 819 24 917 64 q 610 -17 722 -17 m 610 133 q 758 163 690 133 q 875 244 825 192 q 953 366 925 296 q 981 518 981 436 q 953 669 981 600 q 875 792 925 739 q 758 874 825 844 q 610 903 690 903 q 462 874 529 903 q 344 792 394 844 q 267 669 294 739 q 240 518 240 600 q 267 366 240 436 q 344 244 294 296 q 463 163 394 192 q 610 133 531 133 m 381 1172 l 381 1346 l 554 1346 l 554 1172 l 381 1172 m 665 1172 l 665 1346 l 839 1346 l 839 1172 l 665 1172 z "},"Ȫ":{"ha":1219,"x_min":76,"x_max":1143,"o":"m 610 -17 q 401 24 497 -17 q 231 136 304 64 q 117 306 158 208 q 76 518 76 403 q 117 731 76 633 q 231 901 158 829 q 400 1012 303 972 q 610 1051 497 1051 q 820 1012 724 1051 q 990 900 917 972 q 1103 731 1063 828 q 1143 518 1143 633 q 1102 306 1143 403 q 989 136 1061 208 q 819 24 917 64 q 610 -17 722 -17 m 610 133 q 758 163 690 133 q 875 244 825 192 q 953 366 925 296 q 981 518 981 436 q 953 669 981 600 q 875 792 925 739 q 758 874 825 844 q 610 903 690 903 q 462 874 529 903 q 344 792 394 844 q 267 669 294 739 q 240 518 240 600 q 267 366 240 436 q 344 244 294 296 q 463 163 394 192 q 610 133 531 133 m 381 1172 l 381 1346 l 554 1346 l 554 1172 l 381 1172 m 665 1172 l 665 1346 l 839 1346 l 839 1172 l 665 1172 m 399 1444 l 399 1576 l 822 1576 l 822 1444 l 399 1444 z "},"Ȱ":{"ha":1219,"x_min":76,"x_max":1143,"o":"m 610 -17 q 401 24 497 -17 q 231 136 304 64 q 117 306 158 208 q 76 518 76 403 q 117 731 76 633 q 231 901 158 829 q 400 1012 303 972 q 610 1051 497 1051 q 820 1012 724 1051 q 990 900 917 972 q 1103 731 1063 828 q 1143 518 1143 633 q 1102 306 1143 403 q 989 136 1061 208 q 819 24 917 64 q 610 -17 722 -17 m 610 133 q 758 163 690 133 q 875 244 825 192 q 953 366 925 296 q 981 518 981 436 q 953 669 981 600 q 875 792 925 739 q 758 874 825 844 q 610 903 690 903 q 462 874 529 903 q 344 792 394 844 q 267 669 294 739 q 240 518 240 600 q 267 366 240 436 q 344 244 294 296 q 463 163 394 192 q 610 133 531 133 m 524 1172 l 524 1346 l 697 1346 l 697 1172 l 524 1172 m 399 1444 l 399 1576 l 822 1576 l 822 1444 l 399 1444 z "},"Ọ":{"ha":1219,"x_min":76,"x_max":1143,"o":"m 610 -17 q 401 24 497 -17 q 231 136 304 64 q 117 306 158 208 q 76 518 76 403 q 117 731 76 633 q 231 901 158 829 q 400 1012 303 972 q 610 1051 497 1051 q 820 1012 724 1051 q 990 900 917 972 q 1103 731 1063 828 q 1143 518 1143 633 q 1102 306 1143 403 q 989 136 1061 208 q 819 24 917 64 q 610 -17 722 -17 m 610 133 q 758 163 690 133 q 875 244 825 192 q 953 366 925 296 q 981 518 981 436 q 953 669 981 600 q 875 792 925 739 q 758 874 825 844 q 610 903 690 903 q 462 874 529 903 q 344 792 394 844 q 267 669 294 739 q 240 518 240 600 q 267 366 240 436 q 344 244 294 296 q 463 163 394 192 q 610 133 531 133 m 524 -299 l 524 -125 l 697 -125 l 697 -299 l 524 -299 z "},"Ò":{"ha":1219,"x_min":76,"x_max":1143,"o":"m 610 -17 q 401 24 497 -17 q 231 136 304 64 q 117 306 158 208 q 76 518 76 403 q 117 731 76 633 q 231 901 158 829 q 400 1012 303 972 q 610 1051 497 1051 q 820 1012 724 1051 q 990 900 917 972 q 1103 731 1063 828 q 1143 518 1143 633 q 1102 306 1143 403 q 989 136 1061 208 q 819 24 917 64 q 610 -17 722 -17 m 610 133 q 758 163 690 133 q 875 244 825 192 q 953 366 925 296 q 981 518 981 436 q 953 669 981 600 q 875 792 925 739 q 758 874 825 844 q 610 903 690 903 q 462 874 529 903 q 344 792 394 844 q 267 669 294 739 q 240 518 240 600 q 267 366 240 436 q 344 244 294 296 q 463 163 394 192 q 610 133 531 133 m 533 1172 l 382 1401 l 588 1401 l 689 1172 l 533 1172 z "},"Ỏ":{"ha":1219,"x_min":76,"x_max":1143,"o":"m 610 -17 q 401 24 497 -17 q 231 136 304 64 q 117 306 158 208 q 76 518 76 403 q 117 731 76 633 q 231 901 158 829 q 400 1012 303 972 q 610 1051 497 1051 q 820 1012 724 1051 q 990 900 917 972 q 1103 731 1063 828 q 1143 518 1143 633 q 1102 306 1143 403 q 989 136 1061 208 q 819 24 917 64 q 610 -17 722 -17 m 610 133 q 758 163 690 133 q 875 244 825 192 q 953 366 925 296 q 981 518 981 436 q 953 669 981 600 q 875 792 925 739 q 758 874 825 844 q 610 903 690 903 q 462 874 529 903 q 344 792 394 844 q 267 669 294 739 q 240 518 240 600 q 267 366 240 436 q 344 244 294 296 q 463 163 394 192 q 610 133 531 133 m 621 1117 l 554 1199 q 607 1234 592 1215 q 622 1279 622 1253 q 602 1321 622 1304 q 546 1338 582 1338 q 513 1335 529 1338 q 475 1324 496 1332 l 456 1424 q 511 1442 482 1436 q 571 1447 540 1447 q 710 1405 658 1447 q 763 1292 763 1363 q 724 1193 763 1239 q 621 1117 686 1147 z "},"Ơ":{"ha":1219,"x_min":76,"x_max":1143,"o":"m 610 -17 q 401 24 497 -17 q 231 136 304 64 q 117 306 158 208 q 76 518 76 403 q 117 731 76 633 q 231 901 158 829 q 400 1012 303 972 q 610 1051 497 1051 l 897 1051 q 925 1055 910 1051 q 952 1074 940 1058 q 964 1122 964 1089 q 956 1175 964 1147 q 935 1231 947 1203 l 1086 1231 q 1110 1174 1100 1203 q 1119 1107 1119 1144 q 1078 976 1119 1015 q 971 936 1038 936 l 883 936 l 915 961 q 1036 847 985 915 q 1115 697 1088 779 q 1143 518 1143 614 q 1102 306 1143 403 q 989 136 1061 208 q 819 24 917 64 q 610 -17 722 -17 m 610 133 q 758 163 690 133 q 875 244 825 192 q 953 366 925 296 q 981 518 981 436 q 953 669 981 600 q 875 792 925 739 q 758 874 825 844 q 610 903 690 903 q 462 874 529 903 q 344 792 394 844 q 267 669 294 739 q 240 518 240 600 q 267 366 240 436 q 344 244 294 296 q 463 163 394 192 q 610 133 531 133 z "},"Ớ":{"ha":1219,"x_min":76,"x_max":1143,"o":"m 610 -17 q 401 24 497 -17 q 231 136 304 64 q 117 306 158 208 q 76 518 76 403 q 117 731 76 633 q 231 901 158 829 q 400 1012 303 972 q 610 1051 497 1051 l 897 1051 q 925 1055 910 1051 q 952 1074 940 1058 q 964 1122 964 1089 q 956 1175 964 1147 q 935 1231 947 1203 l 1086 1231 q 1110 1174 1100 1203 q 1119 1107 1119 1144 q 1078 976 1119 1015 q 971 936 1038 936 l 883 936 l 915 961 q 1036 847 985 915 q 1115 697 1088 779 q 1143 518 1143 614 q 1102 306 1143 403 q 989 136 1061 208 q 819 24 917 64 q 610 -17 722 -17 m 610 133 q 758 163 690 133 q 875 244 825 192 q 953 366 925 296 q 981 518 981 436 q 953 669 981 600 q 875 792 925 739 q 758 874 825 844 q 610 903 690 903 q 462 874 529 903 q 344 792 394 844 q 267 669 294 739 q 240 518 240 600 q 267 366 240 436 q 344 244 294 296 q 463 163 394 192 q 610 133 531 133 m 532 1172 l 633 1401 l 839 1401 l 688 1172 l 532 1172 z "},"Ợ":{"ha":1219,"x_min":76,"x_max":1143,"o":"m 610 -17 q 401 24 497 -17 q 231 136 304 64 q 117 306 158 208 q 76 518 76 403 q 117 731 76 633 q 231 901 158 829 q 400 1012 303 972 q 610 1051 497 1051 l 897 1051 q 925 1055 910 1051 q 952 1074 940 1058 q 964 1122 964 1089 q 956 1175 964 1147 q 935 1231 947 1203 l 1086 1231 q 1110 1174 1100 1203 q 1119 1107 1119 1144 q 1078 976 1119 1015 q 971 936 1038 936 l 883 936 l 915 961 q 1036 847 985 915 q 1115 697 1088 779 q 1143 518 1143 614 q 1102 306 1143 403 q 989 136 1061 208 q 819 24 917 64 q 610 -17 722 -17 m 610 133 q 758 163 690 133 q 875 244 825 192 q 953 366 925 296 q 981 518 981 436 q 953 669 981 600 q 875 792 925 739 q 758 874 825 844 q 610 903 690 903 q 462 874 529 903 q 344 792 394 844 q 267 669 294 739 q 240 518 240 600 q 267 366 240 436 q 344 244 294 296 q 463 163 394 192 q 610 133 531 133 m 524 -299 l 524 -125 l 697 -125 l 697 -299 l 524 -299 z "},"Ờ":{"ha":1219,"x_min":76,"x_max":1143,"o":"m 610 -17 q 401 24 497 -17 q 231 136 304 64 q 117 306 158 208 q 76 518 76 403 q 117 731 76 633 q 231 901 158 829 q 400 1012 303 972 q 610 1051 497 1051 l 897 1051 q 925 1055 910 1051 q 952 1074 940 1058 q 964 1122 964 1089 q 956 1175 964 1147 q 935 1231 947 1203 l 1086 1231 q 1110 1174 1100 1203 q 1119 1107 1119 1144 q 1078 976 1119 1015 q 971 936 1038 936 l 883 936 l 915 961 q 1036 847 985 915 q 1115 697 1088 779 q 1143 518 1143 614 q 1102 306 1143 403 q 989 136 1061 208 q 819 24 917 64 q 610 -17 722 -17 m 610 133 q 758 163 690 133 q 875 244 825 192 q 953 366 925 296 q 981 518 981 436 q 953 669 981 600 q 875 792 925 739 q 758 874 825 844 q 610 903 690 903 q 462 874 529 903 q 344 792 394 844 q 267 669 294 739 q 240 518 240 600 q 267 366 240 436 q 344 244 294 296 q 463 163 394 192 q 610 133 531 133 m 533 1172 l 382 1401 l 588 1401 l 689 1172 l 533 1172 z "},"Ở":{"ha":1219,"x_min":76,"x_max":1143,"o":"m 610 -17 q 401 24 497 -17 q 231 136 304 64 q 117 306 158 208 q 76 518 76 403 q 117 731 76 633 q 231 901 158 829 q 400 1012 303 972 q 610 1051 497 1051 l 897 1051 q 925 1055 910 1051 q 952 1074 940 1058 q 964 1122 964 1089 q 956 1175 964 1147 q 935 1231 947 1203 l 1086 1231 q 1110 1174 1100 1203 q 1119 1107 1119 1144 q 1078 976 1119 1015 q 971 936 1038 936 l 883 936 l 915 961 q 1036 847 985 915 q 1115 697 1088 779 q 1143 518 1143 614 q 1102 306 1143 403 q 989 136 1061 208 q 819 24 917 64 q 610 -17 722 -17 m 610 133 q 758 163 690 133 q 875 244 825 192 q 953 366 925 296 q 981 518 981 436 q 953 669 981 600 q 875 792 925 739 q 758 874 825 844 q 610 903 690 903 q 462 874 529 903 q 344 792 394 844 q 267 669 294 739 q 240 518 240 600 q 267 366 240 436 q 344 244 294 296 q 463 163 394 192 q 610 133 531 133 m 621 1117 l 554 1199 q 607 1234 592 1215 q 622 1279 622 1253 q 602 1321 622 1304 q 546 1338 582 1338 q 513 1335 529 1338 q 475 1324 496 1332 l 456 1424 q 511 1442 482 1436 q 571 1447 540 1447 q 710 1405 658 1447 q 763 1292 763 1363 q 724 1193 763 1239 q 621 1117 686 1147 z "},"Ỡ":{"ha":1219,"x_min":76,"x_max":1143,"o":"m 610 -17 q 401 24 497 -17 q 231 136 304 64 q 117 306 158 208 q 76 518 76 403 q 117 731 76 633 q 231 901 158 829 q 400 1012 303 972 q 610 1051 497 1051 l 897 1051 q 925 1055 910 1051 q 952 1074 940 1058 q 964 1122 964 1089 q 956 1175 964 1147 q 935 1231 947 1203 l 1086 1231 q 1110 1174 1100 1203 q 1119 1107 1119 1144 q 1078 976 1119 1015 q 971 936 1038 936 l 883 936 l 915 961 q 1036 847 985 915 q 1115 697 1088 779 q 1143 518 1143 614 q 1102 306 1143 403 q 989 136 1061 208 q 819 24 917 64 q 610 -17 722 -17 m 610 133 q 758 163 690 133 q 875 244 825 192 q 953 366 925 296 q 981 518 981 436 q 953 669 981 600 q 875 792 925 739 q 758 874 825 844 q 610 903 690 903 q 462 874 529 903 q 344 792 394 844 q 267 669 294 739 q 240 518 240 600 q 267 366 240 436 q 344 244 294 296 q 463 163 394 192 q 610 133 531 133 m 706 1172 q 644 1185 668 1172 q 602 1213 619 1197 q 567 1240 585 1228 q 526 1253 550 1253 q 490 1235 503 1253 q 478 1178 478 1217 l 354 1178 q 400 1330 354 1281 q 514 1379 446 1379 q 577 1367 553 1379 q 619 1340 601 1356 q 655 1312 638 1324 q 694 1300 672 1300 q 733 1319 721 1300 q 744 1374 744 1339 l 867 1374 q 820 1224 867 1276 q 706 1172 774 1172 z "},"Ő":{"ha":1219,"x_min":76,"x_max":1143,"o":"m 610 -17 q 401 24 497 -17 q 231 136 304 64 q 117 306 158 208 q 76 518 76 403 q 117 731 76 633 q 231 901 158 829 q 400 1012 303 972 q 610 1051 497 1051 q 820 1012 724 1051 q 990 900 917 972 q 1103 731 1063 828 q 1143 518 1143 633 q 1102 306 1143 403 q 989 136 1061 208 q 819 24 917 64 q 610 -17 722 -17 m 610 133 q 758 163 690 133 q 875 244 825 192 q 953 366 925 296 q 981 518 981 436 q 953 669 981 600 q 875 792 925 739 q 758 874 825 844 q 610 903 690 903 q 462 874 529 903 q 344 792 394 844 q 267 669 294 739 q 240 518 240 600 q 267 366 240 436 q 344 244 294 296 q 463 163 394 192 q 610 133 531 133 m 396 1172 l 463 1401 l 661 1401 l 544 1172 l 396 1172 m 675 1172 l 742 1401 l 940 1401 l 824 1172 l 675 1172 z "},"Ȏ":{"ha":1219,"x_min":76,"x_max":1143,"o":"m 610 -17 q 401 24 497 -17 q 231 136 304 64 q 117 306 158 208 q 76 518 76 403 q 117 731 76 633 q 231 901 158 829 q 400 1012 303 972 q 610 1051 497 1051 q 820 1012 724 1051 q 990 900 917 972 q 1103 731 1063 828 q 1143 518 1143 633 q 1102 306 1143 403 q 989 136 1061 208 q 819 24 917 64 q 610 -17 722 -17 m 610 133 q 758 163 690 133 q 875 244 825 192 q 953 366 925 296 q 981 518 981 436 q 953 669 981 600 q 875 792 925 739 q 758 874 825 844 q 610 903 690 903 q 462 874 529 903 q 344 792 394 844 q 267 669 294 739 q 240 518 240 600 q 267 366 240 436 q 344 244 294 296 q 463 163 394 192 q 610 133 531 133 m 351 1172 q 381 1283 353 1232 q 467 1364 410 1333 q 611 1394 524 1394 q 755 1365 699 1394 q 840 1284 811 1335 q 869 1172 868 1233 l 718 1172 q 689 1247 717 1221 q 611 1274 661 1274 q 533 1247 561 1274 q 504 1172 506 1221 l 351 1172 z "},"Ō":{"ha":1219,"x_min":76,"x_max":1143,"o":"m 610 -17 q 401 24 497 -17 q 231 136 304 64 q 117 306 158 208 q 76 518 76 403 q 117 731 76 633 q 231 901 158 829 q 400 1012 303 972 q 610 1051 497 1051 q 820 1012 724 1051 q 990 900 917 972 q 1103 731 1063 828 q 1143 518 1143 633 q 1102 306 1143 403 q 989 136 1061 208 q 819 24 917 64 q 610 -17 722 -17 m 610 133 q 758 163 690 133 q 875 244 825 192 q 953 366 925 296 q 981 518 981 436 q 953 669 981 600 q 875 792 925 739 q 758 874 825 844 q 610 903 690 903 q 462 874 529 903 q 344 792 394 844 q 267 669 294 739 q 240 518 240 600 q 267 366 240 436 q 344 244 294 296 q 463 163 394 192 q 610 133 531 133 m 399 1200 l 399 1332 l 822 1332 l 822 1200 l 399 1200 z "},"Ṓ":{"ha":1219,"x_min":76,"x_max":1143,"o":"m 610 -17 q 401 24 497 -17 q 231 136 304 64 q 117 306 158 208 q 76 518 76 403 q 117 731 76 633 q 231 901 158 829 q 400 1012 303 972 q 610 1051 497 1051 q 820 1012 724 1051 q 990 900 917 972 q 1103 731 1063 828 q 1143 518 1143 633 q 1102 306 1143 403 q 989 136 1061 208 q 819 24 917 64 q 610 -17 722 -17 m 610 133 q 758 163 690 133 q 875 244 825 192 q 953 366 925 296 q 981 518 981 436 q 953 669 981 600 q 875 792 925 739 q 758 874 825 844 q 610 903 690 903 q 462 874 529 903 q 344 792 394 844 q 267 669 294 739 q 240 518 240 600 q 267 366 240 436 q 344 244 294 296 q 463 163 394 192 q 610 133 531 133 m 526 1422 l 626 1651 l 832 1651 l 681 1422 l 526 1422 m 392 1200 l 392 1332 l 815 1332 l 815 1200 l 392 1200 z "},"Ṑ":{"ha":1219,"x_min":76,"x_max":1143,"o":"m 610 -17 q 401 24 497 -17 q 231 136 304 64 q 117 306 158 208 q 76 518 76 403 q 117 731 76 633 q 231 901 158 829 q 400 1012 303 972 q 610 1051 497 1051 q 820 1012 724 1051 q 990 900 917 972 q 1103 731 1063 828 q 1143 518 1143 633 q 1102 306 1143 403 q 989 136 1061 208 q 819 24 917 64 q 610 -17 722 -17 m 610 133 q 758 163 690 133 q 875 244 825 192 q 953 366 925 296 q 981 518 981 436 q 953 669 981 600 q 875 792 925 739 q 758 874 825 844 q 610 903 690 903 q 462 874 529 903 q 344 792 394 844 q 267 669 294 739 q 240 518 240 600 q 267 366 240 436 q 344 244 294 296 q 463 163 394 192 q 610 133 531 133 m 399 1200 l 399 1332 l 822 1332 l 822 1200 l 399 1200 m 533 1422 l 382 1651 l 588 1651 l 689 1422 l 533 1422 z "},"Ǫ":{"ha":1219,"x_min":76,"x_max":1143,"o":"m 610 -17 q 401 24 497 -17 q 231 136 304 64 q 117 306 158 208 q 76 518 76 403 q 117 731 76 633 q 231 901 158 829 q 400 1012 303 972 q 610 1051 497 1051 q 820 1012 724 1051 q 990 900 917 972 q 1103 731 1063 828 q 1143 518 1143 633 q 1102 306 1143 403 q 989 136 1061 208 q 819 24 917 64 q 610 -17 722 -17 m 610 133 q 758 163 690 133 q 875 244 825 192 q 953 366 925 296 q 981 518 981 436 q 953 669 981 600 q 875 792 925 739 q 758 874 825 844 q 610 903 690 903 q 462 874 529 903 q 344 792 394 844 q 267 669 294 739 q 240 518 240 600 q 267 366 240 436 q 344 244 294 296 q 463 163 394 192 q 610 133 531 133 m 640 -326 q 507 -281 557 -326 q 457 -168 457 -236 q 481 -73 457 -117 q 551 2 506 -29 q 658 46 596 33 l 700 46 l 700 0 q 646 -26 671 -6 q 606 -78 621 -47 q 590 -147 590 -110 q 613 -199 590 -179 q 664 -218 635 -218 q 710 -209 689 -218 q 751 -183 732 -200 l 788 -278 q 722 -313 760 -300 q 640 -326 685 -326 z "},"Ø":{"ha":1219,"x_min":76,"x_max":1143,"o":"m 92 0 l 939 1035 l 1128 1035 l 281 0 l 92 0 m 610 -17 q 401 24 497 -17 q 231 136 304 64 q 117 306 158 208 q 76 518 76 403 q 117 731 76 633 q 231 901 158 829 q 400 1012 303 972 q 610 1051 497 1051 q 820 1012 724 1051 q 990 900 917 972 q 1103 731 1063 828 q 1143 518 1143 633 q 1102 306 1143 403 q 989 136 1061 208 q 819 24 917 64 q 610 -17 722 -17 m 610 133 q 758 163 690 133 q 875 244 825 192 q 953 366 925 296 q 981 518 981 436 q 953 669 981 600 q 875 792 925 739 q 758 874 825 844 q 610 903 690 903 q 462 874 529 903 q 344 792 394 844 q 267 669 294 739 q 240 518 240 600 q 267 366 240 436 q 344 244 294 296 q 463 163 394 192 q 610 133 531 133 z "},"Ǿ":{"ha":1219,"x_min":76,"x_max":1143,"o":"m 92 0 l 939 1035 l 1128 1035 l 281 0 l 92 0 m 610 -17 q 401 24 497 -17 q 231 136 304 64 q 117 306 158 208 q 76 518 76 403 q 117 731 76 633 q 231 901 158 829 q 400 1012 303 972 q 610 1051 497 1051 q 820 1012 724 1051 q 990 900 917 972 q 1103 731 1063 828 q 1143 518 1143 633 q 1102 306 1143 403 q 989 136 1061 208 q 819 24 917 64 q 610 -17 722 -17 m 610 133 q 758 163 690 133 q 875 244 825 192 q 953 366 925 296 q 981 518 981 436 q 953 669 981 600 q 875 792 925 739 q 758 874 825 844 q 610 903 690 903 q 462 874 529 903 q 344 792 394 844 q 267 669 294 739 q 240 518 240 600 q 267 366 240 436 q 344 244 294 296 q 463 163 394 192 q 610 133 531 133 m 532 1172 l 633 1401 l 839 1401 l 688 1172 l 532 1172 z "},"Õ":{"ha":1219,"x_min":76,"x_max":1143,"o":"m 610 -17 q 401 24 497 -17 q 231 136 304 64 q 117 306 158 208 q 76 518 76 403 q 117 731 76 633 q 231 901 158 829 q 400 1012 303 972 q 610 1051 497 1051 q 820 1012 724 1051 q 990 900 917 972 q 1103 731 1063 828 q 1143 518 1143 633 q 1102 306 1143 403 q 989 136 1061 208 q 819 24 917 64 q 610 -17 722 -17 m 610 133 q 758 163 690 133 q 875 244 825 192 q 953 366 925 296 q 981 518 981 436 q 953 669 981 600 q 875 792 925 739 q 758 874 825 844 q 610 903 690 903 q 462 874 529 903 q 344 792 394 844 q 267 669 294 739 q 240 518 240 600 q 267 366 240 436 q 344 244 294 296 q 463 163 394 192 q 610 133 531 133 m 706 1172 q 644 1185 668 1172 q 602 1213 619 1197 q 567 1240 585 1228 q 526 1253 550 1253 q 490 1235 503 1253 q 478 1178 478 1217 l 354 1178 q 400 1330 354 1281 q 514 1379 446 1379 q 577 1367 553 1379 q 619 1340 601 1356 q 655 1312 638 1324 q 694 1300 672 1300 q 733 1319 721 1300 q 744 1374 744 1339 l 867 1374 q 820 1224 867 1276 q 706 1172 774 1172 z "},"Ṍ":{"ha":1219,"x_min":76,"x_max":1143,"o":"m 610 -17 q 401 24 497 -17 q 231 136 304 64 q 117 306 158 208 q 76 518 76 403 q 117 731 76 633 q 231 901 158 829 q 400 1012 303 972 q 610 1051 497 1051 q 820 1012 724 1051 q 990 900 917 972 q 1103 731 1063 828 q 1143 518 1143 633 q 1102 306 1143 403 q 989 136 1061 208 q 819 24 917 64 q 610 -17 722 -17 m 610 133 q 758 163 690 133 q 875 244 825 192 q 953 366 925 296 q 981 518 981 436 q 953 669 981 600 q 875 792 925 739 q 758 874 825 844 q 610 903 690 903 q 462 874 529 903 q 344 792 394 844 q 267 669 294 739 q 240 518 240 600 q 267 366 240 436 q 344 244 294 296 q 463 163 394 192 q 610 133 531 133 m 706 1172 q 644 1185 668 1172 q 602 1213 619 1197 q 567 1240 585 1228 q 526 1253 550 1253 q 490 1235 503 1253 q 478 1178 478 1217 l 354 1178 q 400 1330 354 1281 q 514 1379 446 1379 q 577 1367 553 1379 q 619 1340 601 1356 q 655 1312 638 1324 q 694 1300 672 1300 q 733 1319 721 1300 q 744 1374 744 1339 l 867 1374 q 820 1224 867 1276 q 706 1172 774 1172 m 533 1422 l 633 1651 l 839 1651 l 688 1422 l 533 1422 z "},"Ṏ":{"ha":1219,"x_min":76,"x_max":1143,"o":"m 610 -17 q 401 24 497 -17 q 231 136 304 64 q 117 306 158 208 q 76 518 76 403 q 117 731 76 633 q 231 901 158 829 q 400 1012 303 972 q 610 1051 497 1051 q 820 1012 724 1051 q 990 900 917 972 q 1103 731 1063 828 q 1143 518 1143 633 q 1102 306 1143 403 q 989 136 1061 208 q 819 24 917 64 q 610 -17 722 -17 m 610 133 q 758 163 690 133 q 875 244 825 192 q 953 366 925 296 q 981 518 981 436 q 953 669 981 600 q 875 792 925 739 q 758 874 825 844 q 610 903 690 903 q 462 874 529 903 q 344 792 394 844 q 267 669 294 739 q 240 518 240 600 q 267 366 240 436 q 344 244 294 296 q 463 163 394 192 q 610 133 531 133 m 706 1172 q 644 1185 668 1172 q 602 1213 619 1197 q 567 1240 585 1228 q 526 1253 550 1253 q 490 1235 503 1253 q 478 1178 478 1217 l 354 1178 q 400 1330 354 1281 q 514 1379 446 1379 q 577 1367 553 1379 q 619 1340 601 1356 q 655 1312 638 1324 q 694 1300 672 1300 q 733 1319 721 1300 q 744 1374 744 1339 l 867 1374 q 820 1224 867 1276 q 706 1172 774 1172 m 382 1436 l 382 1610 l 556 1610 l 556 1436 l 382 1436 m 667 1436 l 667 1610 l 840 1610 l 840 1436 l 667 1436 z "},"Ȭ":{"ha":1219,"x_min":76,"x_max":1143,"o":"m 610 -17 q 401 24 497 -17 q 231 136 304 64 q 117 306 158 208 q 76 518 76 403 q 117 731 76 633 q 231 901 158 829 q 400 1012 303 972 q 610 1051 497 1051 q 820 1012 724 1051 q 990 900 917 972 q 1103 731 1063 828 q 1143 518 1143 633 q 1102 306 1143 403 q 989 136 1061 208 q 819 24 917 64 q 610 -17 722 -17 m 610 133 q 758 163 690 133 q 875 244 825 192 q 953 366 925 296 q 981 518 981 436 q 953 669 981 600 q 875 792 925 739 q 758 874 825 844 q 610 903 690 903 q 462 874 529 903 q 344 792 394 844 q 267 669 294 739 q 240 518 240 600 q 267 366 240 436 q 344 244 294 296 q 463 163 394 192 q 610 133 531 133 m 706 1172 q 644 1185 668 1172 q 602 1213 619 1197 q 567 1240 585 1228 q 526 1253 550 1253 q 490 1235 503 1253 q 478 1178 478 1217 l 354 1178 q 400 1330 354 1281 q 514 1379 446 1379 q 577 1367 553 1379 q 619 1340 601 1356 q 655 1312 638 1324 q 694 1300 672 1300 q 733 1319 721 1300 q 744 1374 744 1339 l 867 1374 q 820 1224 867 1276 q 706 1172 774 1172 m 399 1443 l 399 1575 l 822 1575 l 822 1443 l 399 1443 z "},"Œ":{"ha":1714,"x_min":76,"x_max":1668,"o":"m 610 -17 q 401 24 497 -17 q 231 136 304 64 q 117 306 158 208 q 76 518 76 403 q 117 731 76 633 q 231 901 158 829 q 400 1012 303 972 q 610 1051 497 1051 q 769 1028 693 1051 q 908 962 844 1006 q 1019 856 972 918 l 988 824 l 988 1035 l 1668 1035 l 1668 889 l 1150 889 l 1150 592 l 1640 592 l 1640 446 l 1150 446 l 1150 146 l 1668 146 l 1668 0 l 988 0 l 988 213 l 1019 182 q 908 75 972 119 q 769 7 844 31 q 610 -17 693 -17 m 610 133 q 758 163 690 133 q 875 244 825 192 q 953 366 925 296 q 981 518 981 436 q 953 669 981 600 q 875 792 925 739 q 758 874 825 844 q 610 903 690 903 q 462 874 529 903 q 344 792 394 844 q 267 669 294 739 q 240 518 240 600 q 267 366 240 436 q 344 244 294 296 q 463 163 394 192 q 610 133 531 133 z "},"P":{"ha":897,"x_min":107,"x_max":836,"o":"m 107 0 l 107 1035 l 483 1035 q 667 997 588 1035 q 792 885 747 958 q 836 711 836 813 q 791 539 836 611 q 667 428 746 467 q 483 389 588 389 l 271 389 l 271 0 l 107 0 m 271 535 l 488 535 q 585 557 543 535 q 650 619 626 579 q 674 713 674 658 q 650 806 674 767 q 585 867 626 846 q 488 889 543 889 l 271 889 l 271 535 z "},"Þ":{"ha":896,"x_min":97,"x_max":826,"o":"m 97 0 l 97 1035 l 261 1035 l 261 840 l 474 840 q 658 802 578 840 q 782 691 738 764 q 826 517 826 618 q 781 344 826 417 q 657 233 736 272 q 474 194 578 194 l 261 194 l 261 0 l 97 0 m 261 340 l 478 340 q 575 363 533 340 q 640 424 617 385 q 664 518 664 464 q 640 612 664 572 q 575 673 617 651 q 478 694 533 694 l 261 694 l 261 340 z "},"Q":{"ha":1219,"x_min":76,"x_max":1143,"o":"m 610 -17 q 401 24 497 -17 q 231 136 304 64 q 117 306 158 208 q 76 518 76 403 q 117 731 76 633 q 231 901 158 829 q 400 1012 303 972 q 610 1051 497 1051 q 820 1012 724 1051 q 990 900 917 972 q 1103 731 1063 828 q 1143 518 1143 633 q 1102 306 1143 403 q 989 136 1061 208 q 819 24 917 64 q 610 -17 722 -17 m 610 133 q 758 163 690 133 q 875 244 825 192 q 953 366 925 296 q 981 518 981 436 q 953 669 981 600 q 875 792 925 739 q 758 874 825 844 q 610 903 690 903 q 462 874 529 903 q 344 792 394 844 q 267 669 294 739 q 240 518 240 600 q 267 366 240 436 q 344 244 294 296 q 463 163 394 192 q 610 133 531 133 m 869 -125 l 531 414 l 706 414 l 1046 -125 l 869 -125 z "},"R":{"ha":908,"x_min":107,"x_max":878,"o":"m 107 0 l 107 1035 l 483 1035 q 667 997 588 1035 q 791 885 746 958 q 836 711 836 813 q 783 528 836 604 q 639 417 729 451 l 878 0 l 692 0 l 438 451 l 544 389 l 271 389 l 271 0 l 107 0 m 271 535 l 486 535 q 585 557 543 535 q 649 619 626 579 q 672 713 672 658 q 649 806 672 767 q 585 867 626 846 q 486 889 543 889 l 271 889 l 271 535 z "},"Ŕ":{"ha":908,"x_min":107,"x_max":878,"o":"m 107 0 l 107 1035 l 483 1035 q 667 997 588 1035 q 791 885 746 958 q 836 711 836 813 q 783 528 836 604 q 639 417 729 451 l 878 0 l 692 0 l 438 451 l 544 389 l 271 389 l 271 0 l 107 0 m 271 535 l 486 535 q 585 557 543 535 q 649 619 626 579 q 672 713 672 658 q 649 806 672 767 q 585 867 626 846 q 486 889 543 889 l 271 889 l 271 535 m 374 1172 l 475 1401 l 681 1401 l 529 1172 l 374 1172 z "},"Ř":{"ha":908,"x_min":107,"x_max":878,"o":"m 107 0 l 107 1035 l 483 1035 q 667 997 588 1035 q 791 885 746 958 q 836 711 836 813 q 783 528 836 604 q 639 417 729 451 l 878 0 l 692 0 l 438 451 l 544 389 l 271 389 l 271 0 l 107 0 m 271 535 l 486 535 q 585 557 543 535 q 649 619 626 579 q 672 713 672 658 q 649 806 672 767 q 585 867 626 846 q 486 889 543 889 l 271 889 l 271 535 m 358 1172 l 194 1394 l 356 1394 l 450 1269 l 546 1394 l 707 1394 l 542 1172 l 358 1172 z "},"Ŗ":{"ha":908,"x_min":107,"x_max":878,"o":"m 107 0 l 107 1035 l 483 1035 q 667 997 588 1035 q 791 885 746 958 q 836 711 836 813 q 783 528 836 604 q 639 417 729 451 l 878 0 l 692 0 l 438 451 l 544 389 l 271 389 l 271 0 l 107 0 m 271 535 l 486 535 q 585 557 543 535 q 649 619 626 579 q 672 713 672 658 q 649 806 672 767 q 585 867 626 846 q 486 889 543 889 l 271 889 l 271 535 m 306 -349 l 353 -97 l 550 -97 l 453 -349 l 306 -349 z "},"Ȑ":{"ha":908,"x_min":86,"x_max":878,"o":"m 107 0 l 107 1035 l 483 1035 q 667 997 588 1035 q 791 885 746 958 q 836 711 836 813 q 783 528 836 604 q 639 417 729 451 l 878 0 l 692 0 l 438 451 l 544 389 l 271 389 l 271 0 l 107 0 m 271 535 l 486 535 q 585 557 543 535 q 649 619 626 579 q 672 713 672 658 q 649 806 672 767 q 585 867 626 846 q 486 889 543 889 l 271 889 l 271 535 m 238 1172 l 86 1404 l 285 1404 l 386 1172 l 238 1172 m 517 1172 l 365 1404 l 564 1404 l 665 1172 l 517 1172 z "},"Ṛ":{"ha":908,"x_min":107,"x_max":878,"o":"m 107 0 l 107 1035 l 483 1035 q 667 997 588 1035 q 791 885 746 958 q 836 711 836 813 q 783 528 836 604 q 639 417 729 451 l 878 0 l 692 0 l 438 451 l 544 389 l 271 389 l 271 0 l 107 0 m 271 535 l 486 535 q 585 557 543 535 q 649 619 626 579 q 672 713 672 658 q 649 806 672 767 q 585 867 626 846 q 486 889 543 889 l 271 889 l 271 535 m 364 -299 l 364 -125 l 538 -125 l 538 -299 l 364 -299 z "},"Ȓ":{"ha":908,"x_min":107,"x_max":878,"o":"m 107 0 l 107 1035 l 483 1035 q 667 997 588 1035 q 791 885 746 958 q 836 711 836 813 q 783 528 836 604 q 639 417 729 451 l 878 0 l 692 0 l 438 451 l 544 389 l 271 389 l 271 0 l 107 0 m 271 535 l 486 535 q 585 557 543 535 q 649 619 626 579 q 672 713 672 658 q 649 806 672 767 q 585 867 626 846 q 486 889 543 889 l 271 889 l 271 535 m 192 1172 q 222 1283 193 1232 q 307 1364 250 1333 q 451 1394 364 1394 q 595 1365 539 1394 q 680 1284 651 1335 q 710 1172 708 1233 l 558 1172 q 529 1247 557 1221 q 451 1274 501 1274 q 374 1247 401 1274 q 344 1172 346 1221 l 192 1172 z "},"Ṟ":{"ha":908,"x_min":107,"x_max":878,"o":"m 107 0 l 107 1035 l 483 1035 q 667 997 588 1035 q 791 885 746 958 q 836 711 836 813 q 783 528 836 604 q 639 417 729 451 l 878 0 l 692 0 l 438 451 l 544 389 l 271 389 l 271 0 l 107 0 m 271 535 l 486 535 q 585 557 543 535 q 649 619 626 579 q 672 713 672 658 q 649 806 672 767 q 585 867 626 846 q 486 889 543 889 l 271 889 l 271 535 m 239 -271 l 239 -139 l 663 -139 l 663 -271 l 239 -271 z "},"S":{"ha":899,"x_min":61,"x_max":822,"o":"m 469 -17 q 289 20 372 -17 q 147 121 206 57 q 61 268 89 185 l 200 326 q 310 179 238 231 q 476 128 382 128 q 574 145 532 128 q 638 194 615 163 q 661 268 661 226 q 629 358 661 325 q 535 411 597 392 l 340 472 q 163 583 224 508 q 101 757 101 657 q 144 910 101 844 q 263 1014 188 976 q 436 1051 339 1051 q 606 1019 529 1051 q 737 929 682 986 q 817 797 792 872 l 681 738 q 585 864 650 819 q 436 908 521 908 q 346 891 385 908 q 285 841 307 874 q 264 765 264 808 q 296 676 264 715 q 393 618 328 638 l 574 561 q 760 453 697 524 q 822 279 822 383 q 777 126 822 193 q 653 22 732 60 q 469 -17 574 -17 z "},"Ś":{"ha":899,"x_min":61,"x_max":822,"o":"m 469 -17 q 289 20 372 -17 q 147 121 206 57 q 61 268 89 185 l 200 326 q 310 179 238 231 q 476 128 382 128 q 574 145 532 128 q 638 194 615 163 q 661 268 661 226 q 629 358 661 325 q 535 411 597 392 l 340 472 q 163 583 224 508 q 101 757 101 657 q 144 910 101 844 q 263 1014 188 976 q 436 1051 339 1051 q 606 1019 529 1051 q 737 929 682 986 q 817 797 792 872 l 681 738 q 585 864 650 819 q 436 908 521 908 q 346 891 385 908 q 285 841 307 874 q 264 765 264 808 q 296 676 264 715 q 393 618 328 638 l 574 561 q 760 453 697 524 q 822 279 822 383 q 777 126 822 193 q 653 22 732 60 q 469 -17 574 -17 m 368 1172 l 469 1401 l 675 1401 l 524 1172 l 368 1172 z "},"Ṥ":{"ha":899,"x_min":61,"x_max":822,"o":"m 469 -17 q 289 20 372 -17 q 147 121 206 57 q 61 268 89 185 l 200 326 q 310 179 238 231 q 476 128 382 128 q 574 145 532 128 q 638 194 615 163 q 661 268 661 226 q 629 358 661 325 q 535 411 597 392 l 340 472 q 163 583 224 508 q 101 757 101 657 q 144 910 101 844 q 263 1014 188 976 q 436 1051 339 1051 q 606 1019 529 1051 q 737 929 682 986 q 817 797 792 872 l 681 738 q 585 864 650 819 q 436 908 521 908 q 346 891 385 908 q 285 841 307 874 q 264 765 264 808 q 296 676 264 715 q 393 618 328 638 l 574 561 q 760 453 697 524 q 822 279 822 383 q 777 126 822 193 q 653 22 732 60 q 469 -17 574 -17 m 353 1172 l 453 1381 l 672 1381 l 521 1172 l 353 1172 m 183 1318 l 183 1492 l 357 1492 l 357 1318 l 183 1318 z "},"Š":{"ha":899,"x_min":61,"x_max":822,"o":"m 469 -17 q 289 20 372 -17 q 147 121 206 57 q 61 268 89 185 l 200 326 q 310 179 238 231 q 476 128 382 128 q 574 145 532 128 q 638 194 615 163 q 661 268 661 226 q 629 358 661 325 q 535 411 597 392 l 340 472 q 163 583 224 508 q 101 757 101 657 q 144 910 101 844 q 263 1014 188 976 q 436 1051 339 1051 q 606 1019 529 1051 q 737 929 682 986 q 817 797 792 872 l 681 738 q 585 864 650 819 q 436 908 521 908 q 346 891 385 908 q 285 841 307 874 q 264 765 264 808 q 296 676 264 715 q 393 618 328 638 l 574 561 q 760 453 697 524 q 822 279 822 383 q 777 126 822 193 q 653 22 732 60 q 469 -17 574 -17 m 353 1172 l 189 1394 l 350 1394 l 444 1269 l 540 1394 l 701 1394 l 536 1172 l 353 1172 z "},"Ṧ":{"ha":899,"x_min":61,"x_max":822,"o":"m 469 -17 q 289 20 372 -17 q 147 121 206 57 q 61 268 89 185 l 200 326 q 310 179 238 231 q 476 128 382 128 q 574 145 532 128 q 638 194 615 163 q 661 268 661 226 q 629 358 661 325 q 535 411 597 392 l 340 472 q 163 583 224 508 q 101 757 101 657 q 144 910 101 844 q 263 1014 188 976 q 436 1051 339 1051 q 606 1019 529 1051 q 737 929 682 986 q 817 797 792 872 l 681 738 q 585 864 650 819 q 436 908 521 908 q 346 891 385 908 q 285 841 307 874 q 264 765 264 808 q 296 676 264 715 q 393 618 328 638 l 574 561 q 760 453 697 524 q 822 279 822 383 q 777 126 822 193 q 653 22 732 60 q 469 -17 574 -17 m 353 1172 l 189 1381 l 350 1381 l 444 1269 l 540 1381 l 701 1381 l 536 1172 l 353 1172 m 358 1436 l 358 1610 l 532 1610 l 532 1436 l 358 1436 z "},"Ş":{"ha":899,"x_min":61,"x_max":822,"o":"m 469 -17 q 289 20 372 -17 q 147 121 206 57 q 61 268 89 185 l 200 326 q 310 179 238 231 q 476 128 382 128 q 574 145 532 128 q 638 194 615 163 q 661 268 661 226 q 629 358 661 325 q 535 411 597 392 l 340 472 q 163 583 224 508 q 101 757 101 657 q 144 910 101 844 q 263 1014 188 976 q 436 1051 339 1051 q 606 1019 529 1051 q 737 929 682 986 q 817 797 792 872 l 681 738 q 585 864 650 819 q 436 908 521 908 q 346 891 385 908 q 285 841 307 874 q 264 765 264 808 q 296 676 264 715 q 393 618 328 638 l 574 561 q 760 453 697 524 q 822 279 822 383 q 777 126 822 193 q 653 22 732 60 q 469 -17 574 -17 m 486 -326 q 404 -314 447 -326 q 332 -278 361 -301 l 368 -183 q 415 -209 389 -200 q 465 -218 440 -218 q 513 -204 496 -218 q 531 -167 531 -190 q 498 -122 531 -139 q 397 -99 465 -106 l 428 14 l 525 14 l 510 -46 q 623 -92 583 -57 q 663 -179 663 -126 q 614 -285 663 -244 q 486 -326 565 -326 z "},"Ŝ":{"ha":899,"x_min":61,"x_max":822,"o":"m 469 -17 q 289 20 372 -17 q 147 121 206 57 q 61 268 89 185 l 200 326 q 310 179 238 231 q 476 128 382 128 q 574 145 532 128 q 638 194 615 163 q 661 268 661 226 q 629 358 661 325 q 535 411 597 392 l 340 472 q 163 583 224 508 q 101 757 101 657 q 144 910 101 844 q 263 1014 188 976 q 436 1051 339 1051 q 606 1019 529 1051 q 737 929 682 986 q 817 797 792 872 l 681 738 q 585 864 650 819 q 436 908 521 908 q 346 891 385 908 q 285 841 307 874 q 264 765 264 808 q 296 676 264 715 q 393 618 328 638 l 574 561 q 760 453 697 524 q 822 279 822 383 q 777 126 822 193 q 653 22 732 60 q 469 -17 574 -17 m 190 1172 l 354 1394 l 538 1394 l 703 1172 l 542 1172 l 446 1299 l 351 1172 l 190 1172 z "},"Ș":{"ha":899,"x_min":61,"x_max":822,"o":"m 469 -17 q 289 20 372 -17 q 147 121 206 57 q 61 268 89 185 l 200 326 q 310 179 238 231 q 476 128 382 128 q 574 145 532 128 q 638 194 615 163 q 661 268 661 226 q 629 358 661 325 q 535 411 597 392 l 340 472 q 163 583 224 508 q 101 757 101 657 q 144 910 101 844 q 263 1014 188 976 q 436 1051 339 1051 q 606 1019 529 1051 q 737 929 682 986 q 817 797 792 872 l 681 738 q 585 864 650 819 q 436 908 521 908 q 346 891 385 908 q 285 841 307 874 q 264 765 264 808 q 296 676 264 715 q 393 618 328 638 l 574 561 q 760 453 697 524 q 822 279 822 383 q 777 126 822 193 q 653 22 732 60 q 469 -17 574 -17 m 325 -349 l 372 -97 l 569 -97 l 472 -349 l 325 -349 z "},"Ṡ":{"ha":899,"x_min":61,"x_max":822,"o":"m 469 -17 q 289 20 372 -17 q 147 121 206 57 q 61 268 89 185 l 200 326 q 310 179 238 231 q 476 128 382 128 q 574 145 532 128 q 638 194 615 163 q 661 268 661 226 q 629 358 661 325 q 535 411 597 392 l 340 472 q 163 583 224 508 q 101 757 101 657 q 144 910 101 844 q 263 1014 188 976 q 436 1051 339 1051 q 606 1019 529 1051 q 737 929 682 986 q 817 797 792 872 l 681 738 q 585 864 650 819 q 436 908 521 908 q 346 891 385 908 q 285 841 307 874 q 264 765 264 808 q 296 676 264 715 q 393 618 328 638 l 574 561 q 760 453 697 524 q 822 279 822 383 q 777 126 822 193 q 653 22 732 60 q 469 -17 574 -17 m 358 1172 l 358 1346 l 532 1346 l 532 1172 l 358 1172 z "},"Ṣ":{"ha":899,"x_min":61,"x_max":822,"o":"m 469 -17 q 289 20 372 -17 q 147 121 206 57 q 61 268 89 185 l 200 326 q 310 179 238 231 q 476 128 382 128 q 574 145 532 128 q 638 194 615 163 q 661 268 661 226 q 629 358 661 325 q 535 411 597 392 l 340 472 q 163 583 224 508 q 101 757 101 657 q 144 910 101 844 q 263 1014 188 976 q 436 1051 339 1051 q 606 1019 529 1051 q 737 929 682 986 q 817 797 792 872 l 681 738 q 585 864 650 819 q 436 908 521 908 q 346 891 385 908 q 285 841 307 874 q 264 765 264 808 q 296 676 264 715 q 393 618 328 638 l 574 561 q 760 453 697 524 q 822 279 822 383 q 777 126 822 193 q 653 22 732 60 q 469 -17 574 -17 m 383 -299 l 383 -125 l 557 -125 l 557 -299 l 383 -299 z "},"Ṩ":{"ha":899,"x_min":61,"x_max":822,"o":"m 469 -17 q 289 20 372 -17 q 147 121 206 57 q 61 268 89 185 l 200 326 q 310 179 238 231 q 476 128 382 128 q 574 145 532 128 q 638 194 615 163 q 661 268 661 226 q 629 358 661 325 q 535 411 597 392 l 340 472 q 163 583 224 508 q 101 757 101 657 q 144 910 101 844 q 263 1014 188 976 q 436 1051 339 1051 q 606 1019 529 1051 q 737 929 682 986 q 817 797 792 872 l 681 738 q 585 864 650 819 q 436 908 521 908 q 346 891 385 908 q 285 841 307 874 q 264 765 264 808 q 296 676 264 715 q 393 618 328 638 l 574 561 q 760 453 697 524 q 822 279 822 383 q 777 126 822 193 q 653 22 732 60 q 469 -17 574 -17 m 383 -299 l 383 -125 l 557 -125 l 557 -299 l 383 -299 m 358 1172 l 358 1346 l 532 1346 l 532 1172 l 358 1172 z "},"ẞ":{"ha":1796,"x_min":61,"x_max":1719,"o":"m 469 -17 q 289 20 372 -17 q 147 121 206 57 q 61 268 89 185 l 200 326 q 310 179 238 231 q 476 128 382 128 q 574 145 532 128 q 638 194 615 163 q 661 268 661 226 q 629 358 661 325 q 535 411 597 392 l 340 472 q 163 583 224 508 q 101 757 101 657 q 144 910 101 844 q 263 1014 188 976 q 436 1051 339 1051 q 606 1019 529 1051 q 737 929 682 986 q 817 797 792 872 l 681 738 q 585 864 650 819 q 436 908 521 908 q 346 891 385 908 q 285 841 307 874 q 264 765 264 808 q 296 676 264 715 q 393 618 328 638 l 574 561 q 760 453 697 524 q 822 279 822 383 q 777 126 822 193 q 653 22 732 60 q 469 -17 574 -17 m 1368 -17 q 1188 20 1271 -17 q 1046 121 1104 57 q 960 268 988 185 l 1099 326 q 1208 179 1136 231 q 1375 128 1281 128 q 1472 145 1431 128 q 1537 194 1514 163 q 1560 268 1560 226 q 1528 358 1560 325 q 1433 411 1496 392 l 1239 472 q 1061 583 1122 508 q 1000 757 1000 657 q 1043 910 1000 844 q 1162 1014 1086 976 q 1335 1051 1238 1051 q 1504 1019 1428 1051 q 1635 929 1581 986 q 1715 797 1690 872 l 1579 738 q 1484 864 1549 819 q 1335 908 1419 908 q 1244 891 1283 908 q 1184 841 1206 874 q 1163 765 1163 808 q 1194 676 1163 715 q 1292 618 1226 638 l 1472 561 q 1658 453 1596 524 q 1721 279 1721 383 q 1676 126 1721 193 q 1551 22 1631 60 q 1368 -17 1472 -17 z "},"T":{"ha":739,"x_min":15,"x_max":724,"o":"m 290 0 l 290 889 l 15 889 l 15 1035 l 724 1035 l 724 889 l 453 889 l 453 0 l 290 0 z "},"Ŧ":{"ha":739,"x_min":15,"x_max":724,"o":"m 139 449 l 139 588 l 601 588 l 601 449 l 139 449 m 290 0 l 290 889 l 15 889 l 15 1035 l 724 1035 l 724 889 l 453 889 l 453 0 l 290 0 z "},"Ť":{"ha":739,"x_min":15,"x_max":724,"o":"m 290 0 l 290 889 l 15 889 l 15 1035 l 724 1035 l 724 889 l 453 889 l 453 0 l 290 0 m 278 1172 l 114 1394 l 275 1394 l 369 1269 l 465 1394 l 626 1394 l 461 1172 l 278 1172 z "},"Ţ":{"ha":739,"x_min":15,"x_max":724,"o":"m 290 0 l 290 889 l 15 889 l 15 1035 l 724 1035 l 724 889 l 453 889 l 453 0 l 290 0 m 386 -326 q 304 -314 347 -326 q 232 -278 261 -301 l 268 -183 q 315 -209 289 -200 q 365 -218 340 -218 q 413 -204 396 -218 q 431 -167 431 -190 q 398 -122 431 -139 q 297 -99 365 -106 l 328 14 l 425 14 l 410 -46 q 523 -92 483 -57 q 563 -179 563 -126 q 514 -285 563 -244 q 386 -326 465 -326 z "},"Ț":{"ha":739,"x_min":15,"x_max":724,"o":"m 290 0 l 290 889 l 15 889 l 15 1035 l 724 1035 l 724 889 l 453 889 l 453 0 l 290 0 m 225 -349 l 272 -97 l 469 -97 l 372 -349 l 225 -349 z "},"Ṭ":{"ha":739,"x_min":15,"x_max":724,"o":"m 290 0 l 290 889 l 15 889 l 15 1035 l 724 1035 l 724 889 l 453 889 l 453 0 l 290 0 m 283 -299 l 283 -125 l 457 -125 l 457 -299 l 283 -299 z "},"Ṯ":{"ha":739,"x_min":15,"x_max":724,"o":"m 290 0 l 290 889 l 15 889 l 15 1035 l 724 1035 l 724 889 l 453 889 l 453 0 l 290 0 m 158 -271 l 158 -139 l 582 -139 l 582 -271 l 158 -271 z "},"U":{"ha":989,"x_min":99,"x_max":890,"o":"m 494 -17 q 290 32 379 -17 q 149 165 200 81 q 99 358 99 250 l 99 1035 l 263 1035 l 263 365 q 292 244 263 297 q 374 163 322 192 q 494 133 426 133 q 616 163 564 133 q 698 244 668 192 q 728 365 728 297 l 728 1035 l 890 1035 l 890 358 q 840 165 890 250 q 701 32 790 81 q 494 -17 611 -17 z "},"Ú":{"ha":989,"x_min":99,"x_max":890,"o":"m 494 -17 q 290 32 379 -17 q 149 165 200 81 q 99 358 99 250 l 99 1035 l 263 1035 l 263 365 q 292 244 263 297 q 374 163 322 192 q 494 133 426 133 q 616 163 564 133 q 698 244 668 192 q 728 365 728 297 l 728 1035 l 890 1035 l 890 358 q 840 165 890 250 q 701 32 790 81 q 494 -17 611 -17 m 417 1172 l 518 1401 l 724 1401 l 572 1172 l 417 1172 z "},"Ŭ":{"ha":989,"x_min":99,"x_max":890,"o":"m 494 -17 q 290 32 379 -17 q 149 165 200 81 q 99 358 99 250 l 99 1035 l 263 1035 l 263 365 q 292 244 263 297 q 374 163 322 192 q 494 133 426 133 q 616 163 564 133 q 698 244 668 192 q 728 365 728 297 l 728 1035 l 890 1035 l 890 358 q 840 165 890 250 q 701 32 790 81 q 494 -17 611 -17 m 496 1176 q 351 1208 408 1176 q 266 1290 294 1239 q 236 1399 238 1340 l 389 1399 q 418 1325 390 1351 q 496 1299 446 1299 q 574 1325 546 1299 q 603 1399 601 1351 l 754 1399 q 724 1288 753 1339 q 640 1207 696 1238 q 496 1176 583 1176 z "},"Û":{"ha":989,"x_min":99,"x_max":890,"o":"m 494 -17 q 290 32 379 -17 q 149 165 200 81 q 99 358 99 250 l 99 1035 l 263 1035 l 263 365 q 292 244 263 297 q 374 163 322 192 q 494 133 426 133 q 616 163 564 133 q 698 244 668 192 q 728 365 728 297 l 728 1035 l 890 1035 l 890 358 q 840 165 890 250 q 701 32 790 81 q 494 -17 611 -17 m 239 1172 l 403 1394 l 586 1394 l 751 1172 l 590 1172 l 494 1299 l 400 1172 l 239 1172 z "},"Ȕ":{"ha":989,"x_min":99,"x_max":890,"o":"m 494 -17 q 290 32 379 -17 q 149 165 200 81 q 99 358 99 250 l 99 1035 l 263 1035 l 263 365 q 292 244 263 297 q 374 163 322 192 q 494 133 426 133 q 616 163 564 133 q 698 244 668 192 q 728 365 728 297 l 728 1035 l 890 1035 l 890 358 q 840 165 890 250 q 701 32 790 81 q 494 -17 611 -17 m 281 1172 l 129 1404 l 328 1404 l 429 1172 l 281 1172 m 560 1172 l 408 1404 l 607 1404 l 708 1172 l 560 1172 z "},"Ü":{"ha":989,"x_min":99,"x_max":890,"o":"m 494 -17 q 290 32 379 -17 q 149 165 200 81 q 99 358 99 250 l 99 1035 l 263 1035 l 263 365 q 292 244 263 297 q 374 163 322 192 q 494 133 426 133 q 616 163 564 133 q 698 244 668 192 q 728 365 728 297 l 728 1035 l 890 1035 l 890 358 q 840 165 890 250 q 701 32 790 81 q 494 -17 611 -17 m 265 1172 l 265 1346 l 439 1346 l 439 1172 l 265 1172 m 550 1172 l 550 1346 l 724 1346 l 724 1172 l 550 1172 z "},"Ụ":{"ha":989,"x_min":99,"x_max":890,"o":"m 494 -17 q 290 32 379 -17 q 149 165 200 81 q 99 358 99 250 l 99 1035 l 263 1035 l 263 365 q 292 244 263 297 q 374 163 322 192 q 494 133 426 133 q 616 163 564 133 q 698 244 668 192 q 728 365 728 297 l 728 1035 l 890 1035 l 890 358 q 840 165 890 250 q 701 32 790 81 q 494 -17 611 -17 m 408 -299 l 408 -125 l 582 -125 l 582 -299 l 408 -299 z "},"Ù":{"ha":989,"x_min":99,"x_max":890,"o":"m 494 -17 q 290 32 379 -17 q 149 165 200 81 q 99 358 99 250 l 99 1035 l 263 1035 l 263 365 q 292 244 263 297 q 374 163 322 192 q 494 133 426 133 q 616 163 564 133 q 698 244 668 192 q 728 365 728 297 l 728 1035 l 890 1035 l 890 358 q 840 165 890 250 q 701 32 790 81 q 494 -17 611 -17 m 418 1172 l 267 1401 l 472 1401 l 574 1172 l 418 1172 z "},"Ủ":{"ha":989,"x_min":99,"x_max":890,"o":"m 494 -17 q 290 32 379 -17 q 149 165 200 81 q 99 358 99 250 l 99 1035 l 263 1035 l 263 365 q 292 244 263 297 q 374 163 322 192 q 494 133 426 133 q 616 163 564 133 q 698 244 668 192 q 728 365 728 297 l 728 1035 l 890 1035 l 890 358 q 840 165 890 250 q 701 32 790 81 q 494 -17 611 -17 m 506 1117 l 439 1199 q 492 1234 476 1215 q 507 1279 507 1253 q 487 1321 507 1304 q 431 1338 467 1338 q 397 1335 414 1338 q 360 1324 381 1332 l 340 1424 q 396 1442 367 1436 q 456 1447 425 1447 q 595 1405 543 1447 q 647 1292 647 1363 q 609 1193 647 1239 q 506 1117 571 1147 z "},"Ư":{"ha":989,"x_min":99,"x_max":1090,"o":"m 494 -17 q 290 32 379 -17 q 149 165 200 81 q 99 358 99 250 l 99 1035 l 263 1035 l 263 365 q 292 244 263 297 q 374 163 322 192 q 494 133 426 133 q 616 163 564 133 q 698 244 668 192 q 728 365 728 297 l 728 1035 l 872 1035 q 913 1047 892 1035 q 935 1106 935 1058 q 926 1158 935 1131 q 906 1214 918 1186 l 1057 1214 q 1081 1157 1071 1186 q 1090 1090 1090 1128 q 1040 956 1090 999 q 900 913 989 913 l 890 913 l 890 358 q 840 165 890 250 q 701 32 790 81 q 494 -17 611 -17 z "},"Ứ":{"ha":989,"x_min":99,"x_max":1090,"o":"m 494 -17 q 290 32 379 -17 q 149 165 200 81 q 99 358 99 250 l 99 1035 l 263 1035 l 263 365 q 292 244 263 297 q 374 163 322 192 q 494 133 426 133 q 616 163 564 133 q 698 244 668 192 q 728 365 728 297 l 728 1035 l 872 1035 q 913 1047 892 1035 q 935 1106 935 1058 q 926 1158 935 1131 q 906 1214 918 1186 l 1057 1214 q 1081 1157 1071 1186 q 1090 1090 1090 1128 q 1040 956 1090 999 q 900 913 989 913 l 890 913 l 890 358 q 840 165 890 250 q 701 32 790 81 q 494 -17 611 -17 m 417 1172 l 518 1401 l 724 1401 l 572 1172 l 417 1172 z "},"Ự":{"ha":989,"x_min":99,"x_max":1090,"o":"m 494 -17 q 290 32 379 -17 q 149 165 200 81 q 99 358 99 250 l 99 1035 l 263 1035 l 263 365 q 292 244 263 297 q 374 163 322 192 q 494 133 426 133 q 616 163 564 133 q 698 244 668 192 q 728 365 728 297 l 728 1035 l 872 1035 q 913 1047 892 1035 q 935 1106 935 1058 q 926 1158 935 1131 q 906 1214 918 1186 l 1057 1214 q 1081 1157 1071 1186 q 1090 1090 1090 1128 q 1040 956 1090 999 q 900 913 989 913 l 890 913 l 890 358 q 840 165 890 250 q 701 32 790 81 q 494 -17 611 -17 m 408 -299 l 408 -125 l 582 -125 l 582 -299 l 408 -299 z "},"Ừ":{"ha":989,"x_min":99,"x_max":1090,"o":"m 494 -17 q 290 32 379 -17 q 149 165 200 81 q 99 358 99 250 l 99 1035 l 263 1035 l 263 365 q 292 244 263 297 q 374 163 322 192 q 494 133 426 133 q 616 163 564 133 q 698 244 668 192 q 728 365 728 297 l 728 1035 l 872 1035 q 913 1047 892 1035 q 935 1106 935 1058 q 926 1158 935 1131 q 906 1214 918 1186 l 1057 1214 q 1081 1157 1071 1186 q 1090 1090 1090 1128 q 1040 956 1090 999 q 900 913 989 913 l 890 913 l 890 358 q 840 165 890 250 q 701 32 790 81 q 494 -17 611 -17 m 418 1172 l 267 1401 l 472 1401 l 574 1172 l 418 1172 z "},"Ử":{"ha":989,"x_min":99,"x_max":1090,"o":"m 494 -17 q 290 32 379 -17 q 149 165 200 81 q 99 358 99 250 l 99 1035 l 263 1035 l 263 365 q 292 244 263 297 q 374 163 322 192 q 494 133 426 133 q 616 163 564 133 q 698 244 668 192 q 728 365 728 297 l 728 1035 l 872 1035 q 913 1047 892 1035 q 935 1106 935 1058 q 926 1158 935 1131 q 906 1214 918 1186 l 1057 1214 q 1081 1157 1071 1186 q 1090 1090 1090 1128 q 1040 956 1090 999 q 900 913 989 913 l 890 913 l 890 358 q 840 165 890 250 q 701 32 790 81 q 494 -17 611 -17 m 506 1117 l 439 1199 q 492 1234 476 1215 q 507 1279 507 1253 q 487 1321 507 1304 q 431 1338 467 1338 q 397 1335 414 1338 q 360 1324 381 1332 l 340 1424 q 396 1442 367 1436 q 456 1447 425 1447 q 595 1405 543 1447 q 647 1292 647 1363 q 609 1193 647 1239 q 506 1117 571 1147 z "},"Ữ":{"ha":989,"x_min":99,"x_max":1090,"o":"m 494 -17 q 290 32 379 -17 q 149 165 200 81 q 99 358 99 250 l 99 1035 l 263 1035 l 263 365 q 292 244 263 297 q 374 163 322 192 q 494 133 426 133 q 616 163 564 133 q 698 244 668 192 q 728 365 728 297 l 728 1035 l 872 1035 q 913 1047 892 1035 q 935 1106 935 1058 q 926 1158 935 1131 q 906 1214 918 1186 l 1057 1214 q 1081 1157 1071 1186 q 1090 1090 1090 1128 q 1040 956 1090 999 q 900 913 989 913 l 890 913 l 890 358 q 840 165 890 250 q 701 32 790 81 q 494 -17 611 -17 m 590 1172 q 528 1185 553 1172 q 487 1213 504 1197 q 452 1240 469 1228 q 411 1253 435 1253 q 375 1235 388 1253 q 363 1178 363 1217 l 239 1178 q 285 1330 239 1281 q 399 1379 331 1379 q 462 1367 438 1379 q 504 1340 486 1356 q 540 1312 522 1324 q 579 1300 557 1300 q 617 1319 606 1300 q 629 1374 629 1339 l 751 1374 q 705 1224 751 1276 q 590 1172 658 1172 z "},"Ű":{"ha":989,"x_min":99,"x_max":890,"o":"m 494 -17 q 290 32 379 -17 q 149 165 200 81 q 99 358 99 250 l 99 1035 l 263 1035 l 263 365 q 292 244 263 297 q 374 163 322 192 q 494 133 426 133 q 616 163 564 133 q 698 244 668 192 q 728 365 728 297 l 728 1035 l 890 1035 l 890 358 q 840 165 890 250 q 701 32 790 81 q 494 -17 611 -17 m 281 1172 l 347 1401 l 546 1401 l 429 1172 l 281 1172 m 560 1172 l 626 1401 l 825 1401 l 708 1172 l 560 1172 z "},"Ȗ":{"ha":989,"x_min":99,"x_max":890,"o":"m 494 -17 q 290 32 379 -17 q 149 165 200 81 q 99 358 99 250 l 99 1035 l 263 1035 l 263 365 q 292 244 263 297 q 374 163 322 192 q 494 133 426 133 q 616 163 564 133 q 698 244 668 192 q 728 365 728 297 l 728 1035 l 890 1035 l 890 358 q 840 165 890 250 q 701 32 790 81 q 494 -17 611 -17 m 236 1172 q 266 1283 238 1232 q 351 1364 294 1333 q 496 1394 408 1394 q 640 1365 583 1394 q 724 1284 696 1335 q 754 1172 753 1233 l 603 1172 q 574 1247 601 1221 q 496 1274 546 1274 q 418 1247 446 1274 q 389 1172 390 1221 l 236 1172 z "},"Ū":{"ha":989,"x_min":99,"x_max":890,"o":"m 494 -17 q 290 32 379 -17 q 149 165 200 81 q 99 358 99 250 l 99 1035 l 263 1035 l 263 365 q 292 244 263 297 q 374 163 322 192 q 494 133 426 133 q 616 163 564 133 q 698 244 668 192 q 728 365 728 297 l 728 1035 l 890 1035 l 890 358 q 840 165 890 250 q 701 32 790 81 q 494 -17 611 -17 m 283 1200 l 283 1332 l 707 1332 l 707 1200 l 283 1200 z "},"Ṻ":{"ha":989,"x_min":99,"x_max":890,"o":"m 494 -17 q 290 32 379 -17 q 149 165 200 81 q 99 358 99 250 l 99 1035 l 263 1035 l 263 365 q 292 244 263 297 q 374 163 322 192 q 494 133 426 133 q 616 163 564 133 q 698 244 668 192 q 728 365 728 297 l 728 1035 l 890 1035 l 890 358 q 840 165 890 250 q 701 32 790 81 q 494 -17 611 -17 m 283 1200 l 283 1332 l 707 1332 l 707 1200 l 283 1200 m 265 1436 l 265 1610 l 439 1610 l 439 1436 l 265 1436 m 550 1436 l 550 1610 l 724 1610 l 724 1436 l 550 1436 z "},"Ų":{"ha":989,"x_min":99,"x_max":890,"o":"m 494 -17 q 290 32 379 -17 q 149 165 200 81 q 99 358 99 250 l 99 1035 l 263 1035 l 263 365 q 292 244 263 297 q 374 163 322 192 q 494 133 426 133 q 616 163 564 133 q 698 244 668 192 q 728 365 728 297 l 728 1035 l 890 1035 l 890 358 q 840 165 890 250 q 701 32 790 81 q 494 -17 611 -17 m 483 -326 q 350 -281 400 -326 q 300 -168 300 -236 q 324 -73 300 -117 q 394 2 349 -29 q 501 46 439 33 l 543 46 l 543 0 q 489 -26 514 -6 q 449 -78 464 -47 q 433 -147 433 -110 q 456 -199 433 -179 q 507 -218 478 -218 q 553 -209 532 -218 q 594 -183 575 -200 l 631 -278 q 565 -313 603 -300 q 483 -326 528 -326 z "},"Ů":{"ha":989,"x_min":99,"x_max":890,"o":"m 494 -17 q 290 32 379 -17 q 149 165 200 81 q 99 358 99 250 l 99 1035 l 263 1035 l 263 365 q 292 244 263 297 q 374 163 322 192 q 494 133 426 133 q 616 163 564 133 q 698 244 668 192 q 728 365 728 297 l 728 1035 l 890 1035 l 890 358 q 840 165 890 250 q 701 32 790 81 q 494 -17 611 -17 m 494 1124 q 376 1168 425 1124 q 328 1286 328 1213 q 376 1403 328 1358 q 494 1447 425 1447 q 613 1403 564 1447 q 661 1286 661 1358 q 613 1169 661 1214 q 494 1124 564 1124 m 494 1222 q 540 1240 522 1222 q 557 1286 557 1257 q 540 1332 557 1314 q 494 1350 522 1350 q 450 1333 468 1350 q 432 1286 432 1315 q 450 1240 432 1257 q 494 1222 468 1222 z "},"Ũ":{"ha":989,"x_min":99,"x_max":890,"o":"m 494 -17 q 290 32 379 -17 q 149 165 200 81 q 99 358 99 250 l 99 1035 l 263 1035 l 263 365 q 292 244 263 297 q 374 163 322 192 q 494 133 426 133 q 616 163 564 133 q 698 244 668 192 q 728 365 728 297 l 728 1035 l 890 1035 l 890 358 q 840 165 890 250 q 701 32 790 81 q 494 -17 611 -17 m 590 1172 q 528 1185 553 1172 q 487 1213 504 1197 q 452 1240 469 1228 q 411 1253 435 1253 q 375 1235 388 1253 q 363 1178 363 1217 l 239 1178 q 285 1330 239 1281 q 399 1379 331 1379 q 462 1367 438 1379 q 504 1340 486 1356 q 540 1312 522 1324 q 579 1300 557 1300 q 617 1319 606 1300 q 629 1374 629 1339 l 751 1374 q 705 1224 751 1276 q 590 1172 658 1172 z "},"Ṹ":{"ha":989,"x_min":99,"x_max":890,"o":"m 494 -17 q 290 32 379 -17 q 149 165 200 81 q 99 358 99 250 l 99 1035 l 263 1035 l 263 365 q 292 244 263 297 q 374 163 322 192 q 494 133 426 133 q 616 163 564 133 q 698 244 668 192 q 728 365 728 297 l 728 1035 l 890 1035 l 890 358 q 840 165 890 250 q 701 32 790 81 q 494 -17 611 -17 m 590 1172 q 528 1185 553 1172 q 487 1213 504 1197 q 452 1240 469 1228 q 411 1253 435 1253 q 375 1235 388 1253 q 363 1178 363 1217 l 239 1178 q 285 1330 239 1281 q 399 1379 331 1379 q 462 1367 438 1379 q 504 1340 486 1356 q 540 1312 522 1324 q 579 1300 557 1300 q 617 1319 606 1300 q 629 1374 629 1339 l 751 1374 q 705 1224 751 1276 q 590 1172 658 1172 m 418 1422 l 518 1651 l 724 1651 l 572 1422 l 418 1422 z "},"V":{"ha":947,"x_min":15,"x_max":932,"o":"m 382 0 l 15 1035 l 192 1035 l 492 151 l 457 151 l 756 1035 l 932 1035 l 565 0 l 382 0 z "},"W":{"ha":1400,"x_min":15,"x_max":1385,"o":"m 300 0 l 15 1035 l 189 1035 l 419 139 l 376 139 l 615 1035 l 786 1035 l 1025 139 l 981 139 l 1213 1035 l 1385 1035 l 1101 0 l 917 0 l 676 882 l 725 882 l 483 0 l 300 0 z "},"Ẃ":{"ha":1400,"x_min":15,"x_max":1385,"o":"m 300 0 l 15 1035 l 189 1035 l 419 139 l 376 139 l 615 1035 l 786 1035 l 1025 139 l 981 139 l 1213 1035 l 1385 1035 l 1101 0 l 917 0 l 676 882 l 725 882 l 483 0 l 300 0 m 622 1172 l 724 1401 l 929 1401 l 778 1172 l 622 1172 z "},"Ŵ":{"ha":1400,"x_min":15,"x_max":1385,"o":"m 300 0 l 15 1035 l 189 1035 l 419 139 l 376 139 l 615 1035 l 786 1035 l 1025 139 l 981 139 l 1213 1035 l 1385 1035 l 1101 0 l 917 0 l 676 882 l 725 882 l 483 0 l 300 0 m 444 1172 l 608 1394 l 792 1394 l 957 1172 l 796 1172 l 700 1299 l 606 1172 l 444 1172 z "},"Ẅ":{"ha":1400,"x_min":15,"x_max":1385,"o":"m 300 0 l 15 1035 l 189 1035 l 419 139 l 376 139 l 615 1035 l 786 1035 l 1025 139 l 981 139 l 1213 1035 l 1385 1035 l 1101 0 l 917 0 l 676 882 l 725 882 l 483 0 l 300 0 m 471 1172 l 471 1346 l 644 1346 l 644 1172 l 471 1172 m 756 1172 l 756 1346 l 929 1346 l 929 1172 l 756 1172 z "},"Ẁ":{"ha":1400,"x_min":15,"x_max":1385,"o":"m 300 0 l 15 1035 l 189 1035 l 419 139 l 376 139 l 615 1035 l 786 1035 l 1025 139 l 981 139 l 1213 1035 l 1385 1035 l 1101 0 l 917 0 l 676 882 l 725 882 l 483 0 l 300 0 m 624 1172 l 472 1401 l 678 1401 l 779 1172 l 624 1172 z "},"X":{"ha":889,"x_min":15,"x_max":874,"o":"m 15 0 l 353 524 l 21 1035 l 207 1035 l 485 607 l 406 607 l 681 1035 l 867 1035 l 536 524 l 874 0 l 688 0 l 406 439 l 485 438 l 200 0 l 15 0 z "},"Y":{"ha":900,"x_min":15,"x_max":885,"o":"m 369 0 l 369 467 l 15 1035 l 200 1035 l 483 575 l 418 575 l 700 1035 l 885 1035 l 532 467 l 532 0 l 369 0 z "},"Ý":{"ha":900,"x_min":15,"x_max":885,"o":"m 369 0 l 369 467 l 15 1035 l 200 1035 l 483 575 l 418 575 l 700 1035 l 885 1035 l 532 467 l 532 0 l 369 0 m 372 1172 l 474 1401 l 679 1401 l 528 1172 l 372 1172 z "},"Ŷ":{"ha":900,"x_min":15,"x_max":885,"o":"m 369 0 l 369 467 l 15 1035 l 200 1035 l 483 575 l 418 575 l 700 1035 l 885 1035 l 532 467 l 532 0 l 369 0 m 194 1172 l 358 1394 l 542 1394 l 707 1172 l 546 1172 l 450 1299 l 356 1172 l 194 1172 z "},"Ÿ":{"ha":900,"x_min":15,"x_max":885,"o":"m 369 0 l 369 467 l 15 1035 l 200 1035 l 483 575 l 418 575 l 700 1035 l 885 1035 l 532 467 l 532 0 l 369 0 m 221 1172 l 221 1346 l 394 1346 l 394 1172 l 221 1172 m 506 1172 l 506 1346 l 679 1346 l 679 1172 l 506 1172 z "},"Ẏ":{"ha":900,"x_min":15,"x_max":885,"o":"m 369 0 l 369 467 l 15 1035 l 200 1035 l 483 575 l 418 575 l 700 1035 l 885 1035 l 532 467 l 532 0 l 369 0 m 364 1172 l 364 1346 l 538 1346 l 538 1172 l 364 1172 z "},"Ỵ":{"ha":900,"x_min":15,"x_max":885,"o":"m 369 0 l 369 467 l 15 1035 l 200 1035 l 483 575 l 418 575 l 700 1035 l 885 1035 l 532 467 l 532 0 l 369 0 m 364 -299 l 364 -125 l 538 -125 l 538 -299 l 364 -299 z "},"Ỳ":{"ha":900,"x_min":15,"x_max":885,"o":"m 369 0 l 369 467 l 15 1035 l 200 1035 l 483 575 l 418 575 l 700 1035 l 885 1035 l 532 467 l 532 0 l 369 0 m 374 1172 l 222 1401 l 428 1401 l 529 1172 l 374 1172 z "},"Ỷ":{"ha":900,"x_min":15,"x_max":885,"o":"m 369 0 l 369 467 l 15 1035 l 200 1035 l 483 575 l 418 575 l 700 1035 l 885 1035 l 532 467 l 532 0 l 369 0 m 461 1117 l 394 1199 q 447 1234 432 1215 q 463 1279 463 1253 q 442 1321 463 1304 q 386 1338 422 1338 q 353 1335 369 1338 q 315 1324 336 1332 l 296 1424 q 351 1442 322 1436 q 411 1447 381 1447 q 551 1405 499 1447 q 603 1292 603 1363 q 565 1193 603 1239 q 461 1117 526 1147 z "},"Ȳ":{"ha":900,"x_min":15,"x_max":885,"o":"m 369 0 l 369 467 l 15 1035 l 200 1035 l 483 575 l 418 575 l 700 1035 l 885 1035 l 532 467 l 532 0 l 369 0 m 239 1200 l 239 1332 l 663 1332 l 663 1200 l 239 1200 z "},"Ỹ":{"ha":900,"x_min":15,"x_max":885,"o":"m 369 0 l 369 467 l 15 1035 l 200 1035 l 483 575 l 418 575 l 700 1035 l 885 1035 l 532 467 l 532 0 l 369 0 m 546 1172 q 484 1185 508 1172 q 442 1213 460 1197 q 408 1240 425 1228 q 367 1253 390 1253 q 331 1235 343 1253 q 318 1178 318 1217 l 194 1178 q 240 1330 194 1281 q 354 1379 286 1379 q 417 1367 393 1379 q 460 1340 442 1356 q 495 1312 478 1324 q 535 1300 513 1300 q 573 1319 561 1300 q 585 1374 585 1339 l 707 1374 q 660 1224 707 1276 q 546 1172 614 1172 z "},"Z":{"ha":800,"x_min":24,"x_max":776,"o":"m 24 0 l 24 125 l 554 889 l 54 889 l 54 1035 l 764 1035 l 764 911 l 233 146 l 776 146 l 776 0 l 24 0 z "},"Ź":{"ha":800,"x_min":24,"x_max":776,"o":"m 24 0 l 24 125 l 554 889 l 54 889 l 54 1035 l 764 1035 l 764 911 l 233 146 l 776 146 l 776 0 l 24 0 m 322 1172 l 424 1401 l 629 1401 l 478 1172 l 322 1172 z "},"Ž":{"ha":800,"x_min":24,"x_max":776,"o":"m 24 0 l 24 125 l 554 889 l 54 889 l 54 1035 l 764 1035 l 764 911 l 233 146 l 776 146 l 776 0 l 24 0 m 308 1172 l 144 1394 l 306 1394 l 400 1269 l 496 1394 l 657 1394 l 492 1172 l 308 1172 z "},"Ż":{"ha":800,"x_min":24,"x_max":776,"o":"m 24 0 l 24 125 l 554 889 l 54 889 l 54 1035 l 764 1035 l 764 911 l 233 146 l 776 146 l 776 0 l 24 0 m 314 1172 l 314 1346 l 488 1346 l 488 1172 l 314 1172 z "},"Ẓ":{"ha":800,"x_min":24,"x_max":776,"o":"m 24 0 l 24 125 l 554 889 l 54 889 l 54 1035 l 764 1035 l 764 911 l 233 146 l 776 146 l 776 0 l 24 0 m 314 -299 l 314 -125 l 488 -125 l 488 -299 l 314 -299 z "},"a":{"ha":803,"x_min":61,"x_max":711,"o":"m 317 -17 q 183 10 240 -17 q 93 85 125 38 q 61 199 61 133 q 88 308 61 260 q 172 390 115 357 q 315 438 229 424 l 576 481 l 576 357 l 346 317 q 254 277 283 306 q 225 204 225 249 q 258 134 225 161 q 342 107 290 107 q 453 135 406 107 q 528 209 501 163 q 554 313 554 256 l 554 506 q 513 597 554 561 q 404 632 472 632 q 295 599 342 632 q 226 515 249 567 l 96 581 q 164 678 117 636 q 274 744 211 721 q 408 768 338 768 q 566 735 497 768 q 673 642 635 701 q 711 506 711 583 l 711 0 l 561 0 l 561 136 l 593 132 q 526 53 567 86 q 433 1 485 19 q 317 -17 381 -17 z "},"á":{"ha":803,"x_min":61,"x_max":711,"o":"m 317 -17 q 183 10 240 -17 q 93 85 125 38 q 61 199 61 133 q 88 308 61 260 q 172 390 115 357 q 315 438 229 424 l 576 481 l 576 357 l 346 317 q 254 277 283 306 q 225 204 225 249 q 258 134 225 161 q 342 107 290 107 q 453 135 406 107 q 528 209 501 163 q 554 313 554 256 l 554 506 q 513 597 554 561 q 404 632 472 632 q 295 599 342 632 q 226 515 249 567 l 96 581 q 164 678 117 636 q 274 744 211 721 q 408 768 338 768 q 566 735 497 768 q 673 642 635 701 q 711 506 711 583 l 711 0 l 561 0 l 561 136 l 593 132 q 526 53 567 86 q 433 1 485 19 q 317 -17 381 -17 m 332 889 l 433 1118 l 639 1118 l 488 889 l 332 889 z "},"ă":{"ha":803,"x_min":61,"x_max":711,"o":"m 317 -17 q 183 10 240 -17 q 93 85 125 38 q 61 199 61 133 q 88 308 61 260 q 172 390 115 357 q 315 438 229 424 l 576 481 l 576 357 l 346 317 q 254 277 283 306 q 225 204 225 249 q 258 134 225 161 q 342 107 290 107 q 453 135 406 107 q 528 209 501 163 q 554 313 554 256 l 554 506 q 513 597 554 561 q 404 632 472 632 q 295 599 342 632 q 226 515 249 567 l 96 581 q 164 678 117 636 q 274 744 211 721 q 408 768 338 768 q 566 735 497 768 q 673 642 635 701 q 711 506 711 583 l 711 0 l 561 0 l 561 136 l 593 132 q 526 53 567 86 q 433 1 485 19 q 317 -17 381 -17 m 410 893 q 265 924 322 893 q 180 1006 208 956 q 150 1115 151 1057 l 303 1115 q 332 1042 304 1068 q 410 1015 360 1015 q 488 1042 460 1015 q 517 1115 515 1068 l 668 1115 q 638 1005 667 1056 q 553 924 610 954 q 410 893 497 893 z "},"ắ":{"ha":803,"x_min":61,"x_max":711,"o":"m 317 -17 q 183 10 240 -17 q 93 85 125 38 q 61 199 61 133 q 88 308 61 260 q 172 390 115 357 q 315 438 229 424 l 576 481 l 576 357 l 346 317 q 254 277 283 306 q 225 204 225 249 q 258 134 225 161 q 342 107 290 107 q 453 135 406 107 q 528 209 501 163 q 554 313 554 256 l 554 506 q 513 597 554 561 q 404 632 472 632 q 295 599 342 632 q 226 515 249 567 l 96 581 q 164 678 117 636 q 274 744 211 721 q 408 768 338 768 q 566 735 497 768 q 673 642 635 701 q 711 506 711 583 l 711 0 l 561 0 l 561 136 l 593 132 q 526 53 567 86 q 433 1 485 19 q 317 -17 381 -17 m 410 893 q 265 922 322 893 q 180 999 208 951 q 150 1101 151 1047 l 303 1101 q 332 1038 304 1061 q 410 1015 360 1015 q 488 1038 460 1015 q 517 1101 515 1061 l 668 1101 q 638 998 667 1046 q 553 922 610 950 q 410 893 497 893 m 332 1143 l 432 1372 l 638 1372 l 486 1143 l 332 1143 z "},"ặ":{"ha":803,"x_min":61,"x_max":711,"o":"m 317 -17 q 183 10 240 -17 q 93 85 125 38 q 61 199 61 133 q 88 308 61 260 q 172 390 115 357 q 315 438 229 424 l 576 481 l 576 357 l 346 317 q 254 277 283 306 q 225 204 225 249 q 258 134 225 161 q 342 107 290 107 q 453 135 406 107 q 528 209 501 163 q 554 313 554 256 l 554 506 q 513 597 554 561 q 404 632 472 632 q 295 599 342 632 q 226 515 249 567 l 96 581 q 164 678 117 636 q 274 744 211 721 q 408 768 338 768 q 566 735 497 768 q 673 642 635 701 q 711 506 711 583 l 711 0 l 561 0 l 561 136 l 593 132 q 526 53 567 86 q 433 1 485 19 q 317 -17 381 -17 m 315 -299 l 315 -125 l 489 -125 l 489 -299 l 315 -299 m 410 893 q 265 924 322 893 q 180 1006 208 956 q 150 1115 151 1057 l 303 1115 q 332 1042 304 1068 q 410 1015 360 1015 q 488 1042 460 1015 q 517 1115 515 1068 l 668 1115 q 638 1005 667 1056 q 553 924 610 954 q 410 893 497 893 z "},"ằ":{"ha":803,"x_min":61,"x_max":711,"o":"m 317 -17 q 183 10 240 -17 q 93 85 125 38 q 61 199 61 133 q 88 308 61 260 q 172 390 115 357 q 315 438 229 424 l 576 481 l 576 357 l 346 317 q 254 277 283 306 q 225 204 225 249 q 258 134 225 161 q 342 107 290 107 q 453 135 406 107 q 528 209 501 163 q 554 313 554 256 l 554 506 q 513 597 554 561 q 404 632 472 632 q 295 599 342 632 q 226 515 249 567 l 96 581 q 164 678 117 636 q 274 744 211 721 q 408 768 338 768 q 566 735 497 768 q 673 642 635 701 q 711 506 711 583 l 711 0 l 561 0 l 561 136 l 593 132 q 526 53 567 86 q 433 1 485 19 q 317 -17 381 -17 m 410 893 q 267 922 324 893 q 181 998 210 950 q 151 1101 153 1046 l 303 1101 q 333 1038 304 1061 q 410 1015 361 1015 q 488 1038 460 1015 q 517 1101 515 1061 l 669 1101 q 640 999 668 1047 q 554 922 611 951 q 410 893 497 893 m 333 1143 l 182 1372 l 388 1372 l 488 1143 l 333 1143 z "},"ẳ":{"ha":803,"x_min":61,"x_max":711,"o":"m 317 -17 q 183 10 240 -17 q 93 85 125 38 q 61 199 61 133 q 88 308 61 260 q 172 390 115 357 q 315 438 229 424 l 576 481 l 576 357 l 346 317 q 254 277 283 306 q 225 204 225 249 q 258 134 225 161 q 342 107 290 107 q 453 135 406 107 q 528 209 501 163 q 554 313 554 256 l 554 506 q 513 597 554 561 q 404 632 472 632 q 295 599 342 632 q 226 515 249 567 l 96 581 q 164 678 117 636 q 274 744 211 721 q 408 768 338 768 q 566 735 497 768 q 673 642 635 701 q 711 506 711 583 l 711 0 l 561 0 l 561 136 l 593 132 q 526 53 567 86 q 433 1 485 19 q 317 -17 381 -17 m 408 893 q 265 922 322 893 q 180 999 208 951 q 150 1101 151 1047 l 303 1101 q 332 1038 304 1061 q 408 1015 360 1015 q 486 1038 458 1015 q 515 1101 514 1061 l 668 1101 q 637 999 665 1046 q 552 922 608 951 q 408 893 496 893 m 421 1111 l 353 1193 q 406 1228 390 1210 q 422 1274 422 1247 q 401 1315 422 1299 q 346 1332 381 1332 q 312 1329 329 1332 q 275 1318 294 1326 l 256 1418 q 310 1436 281 1431 q 371 1442 340 1442 q 510 1399 457 1442 q 563 1286 563 1357 q 524 1188 563 1233 q 421 1111 486 1142 z "},"ẵ":{"ha":803,"x_min":61,"x_max":711,"o":"m 317 -17 q 183 10 240 -17 q 93 85 125 38 q 61 199 61 133 q 88 308 61 260 q 172 390 115 357 q 315 438 229 424 l 576 481 l 576 357 l 346 317 q 254 277 283 306 q 225 204 225 249 q 258 134 225 161 q 342 107 290 107 q 453 135 406 107 q 528 209 501 163 q 554 313 554 256 l 554 506 q 513 597 554 561 q 404 632 472 632 q 295 599 342 632 q 226 515 249 567 l 96 581 q 164 678 117 636 q 274 744 211 721 q 408 768 338 768 q 566 735 497 768 q 673 642 635 701 q 711 506 711 583 l 711 0 l 561 0 l 561 136 l 593 132 q 526 53 567 86 q 433 1 485 19 q 317 -17 381 -17 m 490 1183 q 438 1195 458 1183 q 403 1223 418 1207 q 374 1251 388 1239 q 340 1263 360 1263 q 313 1244 322 1263 q 303 1189 303 1226 l 182 1189 q 201 1301 182 1257 q 253 1367 221 1346 q 324 1389 286 1389 q 377 1377 356 1389 q 414 1349 399 1365 q 444 1322 429 1333 q 475 1310 458 1310 q 506 1329 497 1310 q 514 1383 514 1349 l 633 1383 q 591 1235 633 1288 q 490 1183 549 1183 m 408 889 q 265 918 322 889 q 180 995 208 947 q 150 1097 151 1043 l 303 1097 q 332 1034 304 1057 q 408 1011 360 1011 q 486 1034 458 1011 q 515 1097 514 1057 l 668 1097 q 637 994 665 1042 q 552 918 608 947 q 408 889 496 889 z "},"â":{"ha":803,"x_min":61,"x_max":711,"o":"m 317 -17 q 183 10 240 -17 q 93 85 125 38 q 61 199 61 133 q 88 308 61 260 q 172 390 115 357 q 315 438 229 424 l 576 481 l 576 357 l 346 317 q 254 277 283 306 q 225 204 225 249 q 258 134 225 161 q 342 107 290 107 q 453 135 406 107 q 528 209 501 163 q 554 313 554 256 l 554 506 q 513 597 554 561 q 404 632 472 632 q 295 599 342 632 q 226 515 249 567 l 96 581 q 164 678 117 636 q 274 744 211 721 q 408 768 338 768 q 566 735 497 768 q 673 642 635 701 q 711 506 711 583 l 711 0 l 561 0 l 561 136 l 593 132 q 526 53 567 86 q 433 1 485 19 q 317 -17 381 -17 m 154 889 l 318 1111 l 501 1111 l 667 889 l 506 889 l 410 1015 l 315 889 l 154 889 z "},"ấ":{"ha":803,"x_min":61,"x_max":865,"o":"m 317 -17 q 183 10 240 -17 q 93 85 125 38 q 61 199 61 133 q 88 308 61 260 q 172 390 115 357 q 315 438 229 424 l 576 481 l 576 357 l 346 317 q 254 277 283 306 q 225 204 225 249 q 258 134 225 161 q 342 107 290 107 q 453 135 406 107 q 528 209 501 163 q 554 313 554 256 l 554 506 q 513 597 554 561 q 404 632 472 632 q 295 599 342 632 q 226 515 249 567 l 96 581 q 164 678 117 636 q 274 744 211 721 q 408 768 338 768 q 566 735 497 768 q 673 642 635 701 q 711 506 711 583 l 711 0 l 561 0 l 561 136 l 593 132 q 526 53 567 86 q 433 1 485 19 q 317 -17 381 -17 m 154 889 l 318 1097 l 501 1097 l 667 889 l 506 889 l 410 1001 l 315 889 l 154 889 m 608 993 l 681 1188 l 865 1188 l 742 993 l 608 993 z "},"ậ":{"ha":803,"x_min":61,"x_max":711,"o":"m 317 -17 q 183 10 240 -17 q 93 85 125 38 q 61 199 61 133 q 88 308 61 260 q 172 390 115 357 q 315 438 229 424 l 576 481 l 576 357 l 346 317 q 254 277 283 306 q 225 204 225 249 q 258 134 225 161 q 342 107 290 107 q 453 135 406 107 q 528 209 501 163 q 554 313 554 256 l 554 506 q 513 597 554 561 q 404 632 472 632 q 295 599 342 632 q 226 515 249 567 l 96 581 q 164 678 117 636 q 274 744 211 721 q 408 768 338 768 q 566 735 497 768 q 673 642 635 701 q 711 506 711 583 l 711 0 l 561 0 l 561 136 l 593 132 q 526 53 567 86 q 433 1 485 19 q 317 -17 381 -17 m 315 -299 l 315 -125 l 489 -125 l 489 -299 l 315 -299 m 154 889 l 318 1111 l 501 1111 l 667 889 l 506 889 l 410 1015 l 315 889 l 154 889 z "},"ầ":{"ha":803,"x_min":61,"x_max":822,"o":"m 317 -17 q 183 10 240 -17 q 93 85 125 38 q 61 199 61 133 q 88 308 61 260 q 172 390 115 357 q 315 438 229 424 l 576 481 l 576 357 l 346 317 q 254 277 283 306 q 225 204 225 249 q 258 134 225 161 q 342 107 290 107 q 453 135 406 107 q 528 209 501 163 q 554 313 554 256 l 554 506 q 513 597 554 561 q 404 632 472 632 q 295 599 342 632 q 226 515 249 567 l 96 581 q 164 678 117 636 q 274 744 211 721 q 408 768 338 768 q 566 735 497 768 q 673 642 635 701 q 711 506 711 583 l 711 0 l 561 0 l 561 136 l 593 132 q 526 53 567 86 q 433 1 485 19 q 317 -17 381 -17 m 154 889 l 318 1097 l 501 1097 l 667 889 l 506 889 l 410 1001 l 315 889 l 154 889 m 689 993 l 565 1188 l 750 1188 l 822 993 l 689 993 z "},"ẩ":{"ha":803,"x_min":61,"x_max":792,"o":"m 317 -17 q 183 10 240 -17 q 93 85 125 38 q 61 199 61 133 q 88 308 61 260 q 172 390 115 357 q 315 438 229 424 l 576 481 l 576 357 l 346 317 q 254 277 283 306 q 225 204 225 249 q 258 134 225 161 q 342 107 290 107 q 453 135 406 107 q 528 209 501 163 q 554 313 554 256 l 554 506 q 513 597 554 561 q 404 632 472 632 q 295 599 342 632 q 226 515 249 567 l 96 581 q 164 678 117 636 q 274 744 211 721 q 408 768 338 768 q 566 735 497 768 q 673 642 635 701 q 711 506 711 583 l 711 0 l 561 0 l 561 136 l 593 132 q 526 53 567 86 q 433 1 485 19 q 317 -17 381 -17 m 154 889 l 318 1097 l 501 1097 l 667 889 l 506 889 l 410 1001 l 315 889 l 154 889 m 657 986 l 594 1063 q 645 1097 631 1078 q 660 1140 660 1115 q 640 1179 660 1164 q 588 1194 621 1194 q 555 1192 571 1194 q 519 1182 539 1190 l 501 1276 q 554 1294 526 1289 q 611 1299 582 1299 q 742 1258 693 1299 q 792 1151 792 1218 q 755 1057 792 1100 q 657 986 718 1014 z "},"ẫ":{"ha":803,"x_min":61,"x_max":711,"o":"m 317 -17 q 183 10 240 -17 q 93 85 125 38 q 61 199 61 133 q 88 308 61 260 q 172 390 115 357 q 315 438 229 424 l 576 481 l 576 357 l 346 317 q 254 277 283 306 q 225 204 225 249 q 258 134 225 161 q 342 107 290 107 q 453 135 406 107 q 528 209 501 163 q 554 313 554 256 l 554 506 q 513 597 554 561 q 404 632 472 632 q 295 599 342 632 q 226 515 249 567 l 96 581 q 164 678 117 636 q 274 744 211 721 q 408 768 338 768 q 566 735 497 768 q 673 642 635 701 q 711 506 711 583 l 711 0 l 561 0 l 561 136 l 593 132 q 526 53 567 86 q 433 1 485 19 q 317 -17 381 -17 m 154 889 l 318 1097 l 500 1097 l 665 889 l 504 889 l 410 1001 l 315 889 l 154 889 m 492 1183 q 440 1195 460 1183 q 404 1223 419 1207 q 375 1251 389 1239 q 342 1263 361 1263 q 314 1244 324 1263 q 304 1189 304 1226 l 183 1189 q 203 1301 183 1257 q 255 1367 222 1346 q 325 1389 288 1389 q 378 1377 357 1389 q 415 1349 400 1365 q 445 1322 431 1333 q 476 1310 460 1310 q 507 1329 499 1310 q 515 1383 515 1349 l 635 1383 q 592 1235 635 1288 q 492 1183 550 1183 z "},"ȁ":{"ha":803,"x_min":44,"x_max":711,"o":"m 317 -17 q 183 10 240 -17 q 93 85 125 38 q 61 199 61 133 q 88 308 61 260 q 172 390 115 357 q 315 438 229 424 l 576 481 l 576 357 l 346 317 q 254 277 283 306 q 225 204 225 249 q 258 134 225 161 q 342 107 290 107 q 453 135 406 107 q 528 209 501 163 q 554 313 554 256 l 554 506 q 513 597 554 561 q 404 632 472 632 q 295 599 342 632 q 226 515 249 567 l 96 581 q 164 678 117 636 q 274 744 211 721 q 408 768 338 768 q 566 735 497 768 q 673 642 635 701 q 711 506 711 583 l 711 0 l 561 0 l 561 136 l 593 132 q 526 53 567 86 q 433 1 485 19 q 317 -17 381 -17 m 196 889 l 44 1121 l 243 1121 l 344 889 l 196 889 m 475 889 l 324 1121 l 522 1121 l 624 889 l 475 889 z "},"ä":{"ha":803,"x_min":61,"x_max":711,"o":"m 317 -17 q 183 10 240 -17 q 93 85 125 38 q 61 199 61 133 q 88 308 61 260 q 172 390 115 357 q 315 438 229 424 l 576 481 l 576 357 l 346 317 q 254 277 283 306 q 225 204 225 249 q 258 134 225 161 q 342 107 290 107 q 453 135 406 107 q 528 209 501 163 q 554 313 554 256 l 554 506 q 513 597 554 561 q 404 632 472 632 q 295 599 342 632 q 226 515 249 567 l 96 581 q 164 678 117 636 q 274 744 211 721 q 408 768 338 768 q 566 735 497 768 q 673 642 635 701 q 711 506 711 583 l 711 0 l 561 0 l 561 136 l 593 132 q 526 53 567 86 q 433 1 485 19 q 317 -17 381 -17 m 181 889 l 181 1063 l 354 1063 l 354 889 l 181 889 m 465 889 l 465 1063 l 639 1063 l 639 889 l 465 889 z "},"ạ":{"ha":803,"x_min":61,"x_max":711,"o":"m 317 -17 q 183 10 240 -17 q 93 85 125 38 q 61 199 61 133 q 88 308 61 260 q 172 390 115 357 q 315 438 229 424 l 576 481 l 576 357 l 346 317 q 254 277 283 306 q 225 204 225 249 q 258 134 225 161 q 342 107 290 107 q 453 135 406 107 q 528 209 501 163 q 554 313 554 256 l 554 506 q 513 597 554 561 q 404 632 472 632 q 295 599 342 632 q 226 515 249 567 l 96 581 q 164 678 117 636 q 274 744 211 721 q 408 768 338 768 q 566 735 497 768 q 673 642 635 701 q 711 506 711 583 l 711 0 l 561 0 l 561 136 l 593 132 q 526 53 567 86 q 433 1 485 19 q 317 -17 381 -17 m 315 -299 l 315 -125 l 489 -125 l 489 -299 l 315 -299 z "},"à":{"ha":803,"x_min":61,"x_max":711,"o":"m 317 -17 q 183 10 240 -17 q 93 85 125 38 q 61 199 61 133 q 88 308 61 260 q 172 390 115 357 q 315 438 229 424 l 576 481 l 576 357 l 346 317 q 254 277 283 306 q 225 204 225 249 q 258 134 225 161 q 342 107 290 107 q 453 135 406 107 q 528 209 501 163 q 554 313 554 256 l 554 506 q 513 597 554 561 q 404 632 472 632 q 295 599 342 632 q 226 515 249 567 l 96 581 q 164 678 117 636 q 274 744 211 721 q 408 768 338 768 q 566 735 497 768 q 673 642 635 701 q 711 506 711 583 l 711 0 l 561 0 l 561 136 l 593 132 q 526 53 567 86 q 433 1 485 19 q 317 -17 381 -17 m 332 889 l 181 1118 l 386 1118 l 488 889 l 332 889 z "},"ả":{"ha":803,"x_min":61,"x_max":711,"o":"m 317 -17 q 183 10 240 -17 q 93 85 125 38 q 61 199 61 133 q 88 308 61 260 q 172 390 115 357 q 315 438 229 424 l 576 481 l 576 357 l 346 317 q 254 277 283 306 q 225 204 225 249 q 258 134 225 161 q 342 107 290 107 q 453 135 406 107 q 528 209 501 163 q 554 313 554 256 l 554 506 q 513 597 554 561 q 404 632 472 632 q 295 599 342 632 q 226 515 249 567 l 96 581 q 164 678 117 636 q 274 744 211 721 q 408 768 338 768 q 566 735 497 768 q 673 642 635 701 q 711 506 711 583 l 711 0 l 561 0 l 561 136 l 593 132 q 526 53 567 86 q 433 1 485 19 q 317 -17 381 -17 m 421 833 l 354 915 q 407 951 392 932 q 422 996 422 969 q 402 1038 422 1021 q 346 1054 382 1054 q 313 1051 329 1054 q 275 1040 296 1049 l 256 1140 q 311 1158 282 1153 q 371 1164 340 1164 q 510 1122 458 1164 q 563 1008 563 1079 q 524 910 563 956 q 421 833 486 864 z "},"ȃ":{"ha":803,"x_min":61,"x_max":711,"o":"m 317 -17 q 183 10 240 -17 q 93 85 125 38 q 61 199 61 133 q 88 308 61 260 q 172 390 115 357 q 315 438 229 424 l 576 481 l 576 357 l 346 317 q 254 277 283 306 q 225 204 225 249 q 258 134 225 161 q 342 107 290 107 q 453 135 406 107 q 528 209 501 163 q 554 313 554 256 l 554 506 q 513 597 554 561 q 404 632 472 632 q 295 599 342 632 q 226 515 249 567 l 96 581 q 164 678 117 636 q 274 744 211 721 q 408 768 338 768 q 566 735 497 768 q 673 642 635 701 q 711 506 711 583 l 711 0 l 561 0 l 561 136 l 593 132 q 526 53 567 86 q 433 1 485 19 q 317 -17 381 -17 m 150 889 q 180 999 151 949 q 265 1081 208 1050 q 410 1111 322 1111 q 553 1081 497 1111 q 638 1001 610 1051 q 668 889 667 950 l 517 889 q 488 964 515 938 q 410 990 460 990 q 332 964 360 990 q 303 889 304 938 l 150 889 z "},"ā":{"ha":803,"x_min":61,"x_max":711,"o":"m 317 -17 q 183 10 240 -17 q 93 85 125 38 q 61 199 61 133 q 88 308 61 260 q 172 390 115 357 q 315 438 229 424 l 576 481 l 576 357 l 346 317 q 254 277 283 306 q 225 204 225 249 q 258 134 225 161 q 342 107 290 107 q 453 135 406 107 q 528 209 501 163 q 554 313 554 256 l 554 506 q 513 597 554 561 q 404 632 472 632 q 295 599 342 632 q 226 515 249 567 l 96 581 q 164 678 117 636 q 274 744 211 721 q 408 768 338 768 q 566 735 497 768 q 673 642 635 701 q 711 506 711 583 l 711 0 l 561 0 l 561 136 l 593 132 q 526 53 567 86 q 433 1 485 19 q 317 -17 381 -17 m 197 917 l 197 1049 l 621 1049 l 621 917 l 197 917 z "},"ą":{"ha":803,"x_min":61,"x_max":779,"o":"m 317 -17 q 183 10 240 -17 q 93 85 125 38 q 61 199 61 133 q 88 308 61 260 q 172 390 115 357 q 315 438 229 424 l 576 481 l 576 357 l 346 317 q 254 277 283 306 q 225 204 225 249 q 258 134 225 161 q 342 107 290 107 q 453 135 406 107 q 528 209 501 163 q 554 313 554 256 l 554 506 q 513 597 554 561 q 404 632 472 632 q 295 599 342 632 q 226 515 249 567 l 96 581 q 164 678 117 636 q 274 744 211 721 q 408 768 338 768 q 566 735 497 768 q 673 642 635 701 q 711 506 711 583 l 711 0 l 561 0 l 561 136 l 593 132 q 526 53 567 86 q 433 1 485 19 q 317 -17 381 -17 m 632 -326 q 499 -281 549 -326 q 449 -168 449 -236 q 473 -73 449 -117 q 542 2 497 -29 q 650 46 588 33 l 692 46 l 692 0 q 638 -26 663 -6 q 597 -78 613 -47 q 582 -147 582 -110 q 604 -199 582 -179 q 656 -218 626 -218 q 702 -209 681 -218 q 743 -183 724 -200 l 779 -278 q 714 -313 751 -300 q 632 -326 676 -326 z "},"å":{"ha":803,"x_min":61,"x_max":711,"o":"m 317 -17 q 183 10 240 -17 q 93 85 125 38 q 61 199 61 133 q 88 308 61 260 q 172 390 115 357 q 315 438 229 424 l 576 481 l 576 357 l 346 317 q 254 277 283 306 q 225 204 225 249 q 258 134 225 161 q 342 107 290 107 q 453 135 406 107 q 528 209 501 163 q 554 313 554 256 l 554 506 q 513 597 554 561 q 404 632 472 632 q 295 599 342 632 q 226 515 249 567 l 96 581 q 164 678 117 636 q 274 744 211 721 q 408 768 338 768 q 566 735 497 768 q 673 642 635 701 q 711 506 711 583 l 711 0 l 561 0 l 561 136 l 593 132 q 526 53 567 86 q 433 1 485 19 q 317 -17 381 -17 m 410 840 q 292 885 340 840 q 243 1003 243 929 q 292 1119 243 1075 q 410 1164 340 1164 q 528 1119 479 1164 q 576 1003 576 1075 q 528 885 576 931 q 410 840 479 840 m 410 939 q 455 956 438 939 q 472 1003 472 974 q 455 1049 472 1031 q 410 1067 438 1067 q 365 1049 383 1067 q 347 1003 347 1032 q 365 956 347 974 q 410 939 383 939 z "},"ǻ":{"ha":803,"x_min":61,"x_max":711,"o":"m 317 -17 q 183 10 240 -17 q 93 85 125 38 q 61 199 61 133 q 88 308 61 260 q 172 390 115 357 q 315 438 229 424 l 576 481 l 576 357 l 346 317 q 254 277 283 306 q 225 204 225 249 q 258 134 225 161 q 342 107 290 107 q 453 135 406 107 q 528 209 501 163 q 554 313 554 256 l 554 506 q 513 597 554 561 q 404 632 472 632 q 295 599 342 632 q 226 515 249 567 l 96 581 q 164 678 117 636 q 274 744 211 721 q 408 768 338 768 q 566 735 497 768 q 673 642 635 701 q 711 506 711 583 l 711 0 l 561 0 l 561 136 l 593 132 q 526 53 567 86 q 433 1 485 19 q 317 -17 381 -17 m 410 840 q 292 885 340 840 q 243 1003 243 929 q 292 1119 243 1075 q 410 1164 340 1164 q 528 1119 479 1164 q 576 1003 576 1075 q 528 885 576 931 q 410 840 479 840 m 410 939 q 455 956 438 939 q 472 1003 472 974 q 455 1049 472 1031 q 410 1067 438 1067 q 365 1049 383 1067 q 347 1003 347 1032 q 365 956 347 974 q 410 939 383 939 m 379 1083 l 454 1292 l 639 1292 l 524 1083 l 379 1083 z "},"ã":{"ha":803,"x_min":61,"x_max":711,"o":"m 317 -17 q 183 10 240 -17 q 93 85 125 38 q 61 199 61 133 q 88 308 61 260 q 172 390 115 357 q 315 438 229 424 l 576 481 l 576 357 l 346 317 q 254 277 283 306 q 225 204 225 249 q 258 134 225 161 q 342 107 290 107 q 453 135 406 107 q 528 209 501 163 q 554 313 554 256 l 554 506 q 513 597 554 561 q 404 632 472 632 q 295 599 342 632 q 226 515 249 567 l 96 581 q 164 678 117 636 q 274 744 211 721 q 408 768 338 768 q 566 735 497 768 q 673 642 635 701 q 711 506 711 583 l 711 0 l 561 0 l 561 136 l 593 132 q 526 53 567 86 q 433 1 485 19 q 317 -17 381 -17 m 504 889 q 442 901 467 889 q 401 929 418 914 q 366 957 383 944 q 325 969 349 969 q 289 951 301 969 q 276 894 276 933 l 153 894 q 199 1047 153 997 q 313 1096 244 1096 q 376 1084 351 1096 q 418 1056 400 1072 q 453 1028 436 1040 q 493 1017 471 1017 q 531 1036 519 1017 q 543 1090 543 1056 l 665 1090 q 619 941 665 993 q 504 889 572 889 z "},"æ":{"ha":1350,"x_min":61,"x_max":1289,"o":"m 317 -17 q 183 10 240 -17 q 93 85 125 38 q 61 199 61 133 q 88 308 61 260 q 172 390 115 357 q 315 438 229 424 l 554 476 l 554 506 q 513 597 554 561 q 404 632 472 632 q 295 599 342 632 q 226 515 249 567 l 96 581 q 164 678 117 636 q 274 744 211 721 q 408 768 338 768 q 580 726 507 768 q 686 615 653 685 l 633 615 q 759 727 682 686 q 931 768 836 768 q 1082 739 1015 768 q 1194 659 1149 710 q 1265 543 1240 608 q 1289 404 1289 478 q 1288 367 1289 386 q 1282 331 1286 347 l 724 331 q 758 221 728 268 q 836 148 788 174 q 944 122 885 122 q 1060 153 1013 122 q 1136 232 1108 183 l 1264 169 q 1196 74 1242 117 q 1088 8 1150 32 q 957 -17 1026 -17 q 791 19 865 -17 q 665 126 717 56 l 699 158 l 699 0 l 561 0 l 561 161 l 590 126 q 522 50 563 82 q 431 1 482 18 q 317 -17 379 -17 m 342 107 q 453 135 406 107 q 528 209 501 163 q 554 313 554 256 l 554 353 l 346 317 q 254 277 283 306 q 225 204 225 249 q 258 134 225 161 q 342 107 290 107 m 726 456 l 1122 456 q 1095 550 1121 510 q 1026 613 1069 590 q 931 636 983 636 q 837 615 881 636 q 765 553 793 593 q 726 456 736 513 z "},"ǽ":{"ha":1350,"x_min":61,"x_max":1289,"o":"m 317 -17 q 183 10 240 -17 q 93 85 125 38 q 61 199 61 133 q 88 308 61 260 q 172 390 115 357 q 315 438 229 424 l 554 476 l 554 506 q 513 597 554 561 q 404 632 472 632 q 295 599 342 632 q 226 515 249 567 l 96 581 q 164 678 117 636 q 274 744 211 721 q 408 768 338 768 q 580 726 507 768 q 686 615 653 685 l 633 615 q 759 727 682 686 q 931 768 836 768 q 1082 739 1015 768 q 1194 659 1149 710 q 1265 543 1240 608 q 1289 404 1289 478 q 1288 367 1289 386 q 1282 331 1286 347 l 724 331 q 758 221 728 268 q 836 148 788 174 q 944 122 885 122 q 1060 153 1013 122 q 1136 232 1108 183 l 1264 169 q 1196 74 1242 117 q 1088 8 1150 32 q 957 -17 1026 -17 q 791 19 865 -17 q 665 126 717 56 l 699 158 l 699 0 l 561 0 l 561 161 l 590 126 q 522 50 563 82 q 431 1 482 18 q 317 -17 379 -17 m 342 107 q 453 135 406 107 q 528 209 501 163 q 554 313 554 256 l 554 353 l 346 317 q 254 277 283 306 q 225 204 225 249 q 258 134 225 161 q 342 107 290 107 m 726 456 l 1122 456 q 1095 550 1121 510 q 1026 613 1069 590 q 931 636 983 636 q 837 615 881 636 q 765 553 793 593 q 726 456 736 513 m 599 889 l 700 1118 l 906 1118 l 754 889 l 599 889 z "},"b":{"ha":931,"x_min":92,"x_max":869,"o":"m 493 -17 q 334 19 406 -17 q 224 124 263 56 l 242 153 l 242 0 l 92 0 l 92 1051 l 249 1051 l 249 596 l 224 632 q 335 732 265 696 q 493 768 404 768 q 685 717 600 768 q 820 576 771 665 q 869 376 869 488 q 820 176 869 265 q 686 35 771 88 q 493 -17 601 -17 m 478 129 q 596 161 544 129 q 677 249 647 193 q 707 376 707 306 q 677 503 707 447 q 596 590 647 558 q 478 622 544 622 q 360 590 413 622 q 278 503 308 558 q 249 376 249 447 q 278 249 249 306 q 360 161 308 193 q 478 129 413 129 z "},"c":{"ha":842,"x_min":61,"x_max":781,"o":"m 449 -17 q 249 35 336 -17 q 112 176 163 88 q 61 378 61 265 q 111 578 61 489 q 249 717 161 667 q 449 768 336 768 q 592 741 525 768 q 708 667 658 714 q 781 557 757 619 l 643 493 q 567 587 619 551 q 449 622 515 622 q 334 591 385 622 q 254 503 283 560 q 225 376 225 447 q 254 249 225 306 q 334 161 283 193 q 449 129 385 129 q 567 165 517 129 q 643 260 618 200 l 781 194 q 709 87 758 135 q 593 11 660 39 q 449 -17 526 -17 z "},"ć":{"ha":842,"x_min":61,"x_max":781,"o":"m 449 -17 q 249 35 336 -17 q 112 176 163 88 q 61 378 61 265 q 111 578 61 489 q 249 717 161 667 q 449 768 336 768 q 592 741 525 768 q 708 667 658 714 q 781 557 757 619 l 643 493 q 567 587 619 551 q 449 622 515 622 q 334 591 385 622 q 254 503 283 560 q 225 376 225 447 q 254 249 225 306 q 334 161 283 193 q 449 129 385 129 q 567 165 517 129 q 643 260 618 200 l 781 194 q 709 87 758 135 q 593 11 660 39 q 449 -17 526 -17 m 371 889 l 472 1118 l 678 1118 l 526 889 l 371 889 z "},"č":{"ha":842,"x_min":61,"x_max":781,"o":"m 449 -17 q 249 35 336 -17 q 112 176 163 88 q 61 378 61 265 q 111 578 61 489 q 249 717 161 667 q 449 768 336 768 q 592 741 525 768 q 708 667 658 714 q 781 557 757 619 l 643 493 q 567 587 619 551 q 449 622 515 622 q 334 591 385 622 q 254 503 283 560 q 225 376 225 447 q 254 249 225 306 q 334 161 283 193 q 449 129 385 129 q 567 165 517 129 q 643 260 618 200 l 781 194 q 709 87 758 135 q 593 11 660 39 q 449 -17 526 -17 m 356 889 l 192 1111 l 353 1111 l 447 986 l 543 1111 l 704 1111 l 539 889 l 356 889 z "},"ç":{"ha":842,"x_min":61,"x_max":781,"o":"m 449 -17 q 249 35 336 -17 q 112 176 163 88 q 61 378 61 265 q 111 578 61 489 q 249 717 161 667 q 449 768 336 768 q 592 741 525 768 q 708 667 658 714 q 781 557 757 619 l 643 493 q 567 587 619 551 q 449 622 515 622 q 334 591 385 622 q 254 503 283 560 q 225 376 225 447 q 254 249 225 306 q 334 161 283 193 q 449 129 385 129 q 567 165 517 129 q 643 260 618 200 l 781 194 q 709 87 758 135 q 593 11 660 39 q 449 -17 526 -17 m 464 -326 q 382 -314 425 -326 q 310 -278 339 -301 l 346 -183 q 392 -209 367 -200 q 443 -218 418 -218 q 491 -204 474 -218 q 508 -167 508 -190 q 476 -122 508 -139 q 375 -99 443 -106 l 406 14 l 503 14 l 488 -46 q 601 -92 561 -57 q 640 -179 640 -126 q 592 -285 640 -244 q 464 -326 543 -326 z "},"ḉ":{"ha":842,"x_min":61,"x_max":781,"o":"m 449 -17 q 249 35 336 -17 q 112 176 163 88 q 61 378 61 265 q 111 578 61 489 q 249 717 161 667 q 449 768 336 768 q 592 741 525 768 q 708 667 658 714 q 781 557 757 619 l 643 493 q 567 587 619 551 q 449 622 515 622 q 334 591 385 622 q 254 503 283 560 q 225 376 225 447 q 254 249 225 306 q 334 161 283 193 q 449 129 385 129 q 567 165 517 129 q 643 260 618 200 l 781 194 q 709 87 758 135 q 593 11 660 39 q 449 -17 526 -17 m 464 -326 q 382 -314 425 -326 q 310 -278 339 -301 l 346 -183 q 392 -209 367 -200 q 443 -218 418 -218 q 491 -204 474 -218 q 508 -167 508 -190 q 476 -122 508 -139 q 375 -99 443 -106 l 406 14 l 503 14 l 488 -46 q 601 -92 561 -57 q 640 -179 640 -126 q 592 -285 640 -244 q 464 -326 543 -326 m 371 889 l 472 1118 l 678 1118 l 526 889 l 371 889 z "},"ĉ":{"ha":842,"x_min":61,"x_max":781,"o":"m 449 -17 q 249 35 336 -17 q 112 176 163 88 q 61 378 61 265 q 111 578 61 489 q 249 717 161 667 q 449 768 336 768 q 592 741 525 768 q 708 667 658 714 q 781 557 757 619 l 643 493 q 567 587 619 551 q 449 622 515 622 q 334 591 385 622 q 254 503 283 560 q 225 376 225 447 q 254 249 225 306 q 334 161 283 193 q 449 129 385 129 q 567 165 517 129 q 643 260 618 200 l 781 194 q 709 87 758 135 q 593 11 660 39 q 449 -17 526 -17 m 193 889 l 357 1111 l 540 1111 l 706 889 l 544 889 l 449 1015 l 354 889 l 193 889 z "},"ċ":{"ha":842,"x_min":61,"x_max":781,"o":"m 449 -17 q 249 35 336 -17 q 112 176 163 88 q 61 378 61 265 q 111 578 61 489 q 249 717 161 667 q 449 768 336 768 q 592 741 525 768 q 708 667 658 714 q 781 557 757 619 l 643 493 q 567 587 619 551 q 449 622 515 622 q 334 591 385 622 q 254 503 283 560 q 225 376 225 447 q 254 249 225 306 q 334 161 283 193 q 449 129 385 129 q 567 165 517 129 q 643 260 618 200 l 781 194 q 709 87 758 135 q 593 11 660 39 q 449 -17 526 -17 m 361 889 l 361 1063 l 535 1063 l 535 889 l 361 889 z "},"d":{"ha":931,"x_min":61,"x_max":839,"o":"m 439 -17 q 245 35 331 -17 q 110 176 160 88 q 61 376 61 265 q 111 576 61 488 q 246 717 161 665 q 438 768 331 768 q 597 732 528 768 q 707 632 667 696 l 683 596 l 683 1051 l 839 1051 l 839 0 l 690 0 l 690 153 l 708 124 q 597 19 669 56 q 439 -17 525 -17 m 454 129 q 572 161 519 129 q 653 249 624 193 q 683 376 683 306 q 653 503 683 447 q 572 590 624 558 q 454 622 519 622 q 336 590 389 622 q 254 503 283 558 q 225 376 225 447 q 254 249 225 306 q 335 161 283 193 q 454 129 388 129 z "},"ď":{"ha":1167,"x_min":61,"x_max":1121,"o":"m 439 -17 q 245 35 331 -17 q 110 176 160 88 q 61 376 61 265 q 111 576 61 488 q 246 717 161 665 q 438 768 331 768 q 597 732 528 768 q 707 632 667 696 l 683 596 l 683 1051 l 839 1051 l 839 0 l 690 0 l 690 153 l 708 124 q 597 19 669 56 q 439 -17 525 -17 m 454 129 q 572 161 519 129 q 653 249 624 193 q 683 376 683 306 q 653 503 683 447 q 572 590 624 558 q 454 622 519 622 q 336 590 389 622 q 254 503 283 558 q 225 376 225 447 q 254 249 225 306 q 335 161 283 193 q 454 129 388 129 m 931 799 l 931 1051 l 1121 1051 l 1071 799 l 931 799 z "},"đ":{"ha":931,"x_min":61,"x_max":963,"o":"m 560 826 l 560 951 l 963 951 l 963 826 l 560 826 m 439 -17 q 245 35 331 -17 q 110 176 160 88 q 61 376 61 265 q 111 576 61 488 q 246 717 161 665 q 438 768 331 768 q 597 732 528 768 q 707 632 667 696 l 683 596 l 683 1051 l 839 1051 l 839 0 l 690 0 l 690 153 l 708 124 q 597 19 669 56 q 439 -17 525 -17 m 454 129 q 572 161 519 129 q 653 249 624 193 q 683 376 683 306 q 653 503 683 447 q 572 590 624 558 q 454 622 519 622 q 336 590 389 622 q 254 503 283 558 q 225 376 225 447 q 254 249 225 306 q 335 161 283 193 q 454 129 388 129 z "},"ḍ":{"ha":931,"x_min":61,"x_max":839,"o":"m 439 -17 q 245 35 331 -17 q 110 176 160 88 q 61 376 61 265 q 111 576 61 488 q 246 717 161 665 q 438 768 331 768 q 597 732 528 768 q 707 632 667 696 l 683 596 l 683 1051 l 839 1051 l 839 0 l 690 0 l 690 153 l 708 124 q 597 19 669 56 q 439 -17 525 -17 m 454 129 q 572 161 519 129 q 653 249 624 193 q 683 376 683 306 q 653 503 683 447 q 572 590 624 558 q 454 622 519 622 q 336 590 389 622 q 254 503 283 558 q 225 376 225 447 q 254 249 225 306 q 335 161 283 193 q 454 129 388 129 m 379 -299 l 379 -125 l 553 -125 l 553 -299 l 379 -299 z "},"ḏ":{"ha":931,"x_min":61,"x_max":839,"o":"m 439 -17 q 245 35 331 -17 q 110 176 160 88 q 61 376 61 265 q 111 576 61 488 q 246 717 161 665 q 438 768 331 768 q 597 732 528 768 q 707 632 667 696 l 683 596 l 683 1051 l 839 1051 l 839 0 l 690 0 l 690 153 l 708 124 q 597 19 669 56 q 439 -17 525 -17 m 454 129 q 572 161 519 129 q 653 249 624 193 q 683 376 683 306 q 653 503 683 447 q 572 590 624 558 q 454 622 519 622 q 336 590 389 622 q 254 503 283 558 q 225 376 225 447 q 254 249 225 306 q 335 161 283 193 q 454 129 388 129 m 254 -271 l 254 -139 l 678 -139 l 678 -271 l 254 -271 z "},"ǆ":{"ha":1585,"x_min":61,"x_max":1561,"o":"m 439 -17 q 245 35 331 -17 q 110 176 160 88 q 61 376 61 265 q 111 576 61 488 q 246 717 161 665 q 438 768 331 768 q 597 732 528 768 q 707 632 667 696 l 683 596 l 683 1051 l 839 1051 l 839 0 l 690 0 l 690 153 l 708 124 q 597 19 669 56 q 439 -17 525 -17 m 454 129 q 572 161 519 129 q 653 249 624 193 q 683 376 683 306 q 653 503 683 447 q 572 590 624 558 q 454 622 519 622 q 336 590 389 622 q 254 503 283 558 q 225 376 225 447 q 254 249 225 306 q 335 161 283 193 q 454 129 388 129 m 954 0 l 954 129 l 1396 664 l 1421 610 l 975 610 l 975 751 l 1560 751 l 1560 624 l 1124 88 l 1099 143 l 1561 143 l 1561 0 l 954 0 m 1165 889 l 1001 1111 l 1163 1111 l 1257 986 l 1353 1111 l 1514 1111 l 1349 889 l 1165 889 z "},"ð":{"ha":907,"x_min":61,"x_max":846,"o":"m 458 -17 q 304 13 376 -17 q 178 94 232 42 q 92 217 124 146 q 61 372 61 288 q 112 567 61 481 q 250 704 163 654 q 447 754 338 754 q 542 742 496 754 q 628 705 588 731 q 701 635 668 679 l 672 576 q 650 707 671 647 q 592 815 629 767 q 505 897 556 863 q 396 949 454 931 q 272 967 338 967 q 198 960 236 967 q 122 942 160 954 l 100 1071 q 296 1106 201 1106 q 487 1070 400 1106 q 640 972 574 1035 q 753 827 707 910 q 822 649 799 744 q 846 451 846 553 q 794 188 846 292 q 656 34 743 85 q 458 -17 568 -17 m 454 129 q 572 161 521 129 q 653 248 624 193 q 683 372 683 303 q 655 492 683 439 q 575 577 626 546 q 454 608 524 608 q 335 577 388 608 q 254 492 283 546 q 225 371 225 439 q 256 247 225 301 q 338 160 286 192 q 454 129 390 129 m 318 794 l 318 876 l 771 1049 l 771 965 l 318 794 z "},"e":{"ha":851,"x_min":61,"x_max":790,"o":"m 444 -17 q 245 35 332 -17 q 110 177 158 88 q 61 378 61 267 q 110 579 61 492 q 243 717 160 667 q 432 768 326 768 q 583 739 517 768 q 696 659 650 710 q 766 543 742 608 q 790 404 790 478 q 789 367 790 386 q 783 331 788 347 l 185 331 l 185 456 l 694 456 l 619 399 q 610 520 633 467 q 541 605 588 574 q 432 636 494 636 q 321 605 369 636 q 246 516 272 574 q 225 376 219 458 q 247 243 218 300 q 327 154 275 186 q 446 122 379 122 q 562 153 514 122 q 638 232 610 183 l 765 169 q 697 74 743 117 q 585 8 650 32 q 444 -17 521 -17 z "},"é":{"ha":851,"x_min":61,"x_max":790,"o":"m 444 -17 q 245 35 332 -17 q 110 177 158 88 q 61 378 61 267 q 110 579 61 492 q 243 717 160 667 q 432 768 326 768 q 583 739 517 768 q 696 659 650 710 q 766 543 742 608 q 790 404 790 478 q 789 367 790 386 q 783 331 788 347 l 185 331 l 185 456 l 694 456 l 619 399 q 610 520 633 467 q 541 605 588 574 q 432 636 494 636 q 321 605 369 636 q 246 516 272 574 q 225 376 219 458 q 247 243 218 300 q 327 154 275 186 q 446 122 379 122 q 562 153 514 122 q 638 232 610 183 l 765 169 q 697 74 743 117 q 585 8 650 32 q 444 -17 521 -17 m 349 889 l 450 1118 l 656 1118 l 504 889 l 349 889 z "},"ĕ":{"ha":851,"x_min":61,"x_max":790,"o":"m 444 -17 q 245 35 332 -17 q 110 177 158 88 q 61 378 61 267 q 110 579 61 492 q 243 717 160 667 q 432 768 326 768 q 583 739 517 768 q 696 659 650 710 q 766 543 742 608 q 790 404 790 478 q 789 367 790 386 q 783 331 788 347 l 185 331 l 185 456 l 694 456 l 619 399 q 610 520 633 467 q 541 605 588 574 q 432 636 494 636 q 321 605 369 636 q 246 516 272 574 q 225 376 219 458 q 247 243 218 300 q 327 154 275 186 q 446 122 379 122 q 562 153 514 122 q 638 232 610 183 l 765 169 q 697 74 743 117 q 585 8 650 32 q 444 -17 521 -17 m 428 893 q 283 924 340 893 q 198 1006 226 956 q 168 1115 169 1057 l 321 1115 q 350 1042 322 1068 q 428 1015 378 1015 q 506 1042 478 1015 q 535 1115 533 1068 l 686 1115 q 656 1005 685 1056 q 572 924 628 954 q 428 893 515 893 z "},"ě":{"ha":851,"x_min":61,"x_max":790,"o":"m 444 -17 q 245 35 332 -17 q 110 177 158 88 q 61 378 61 267 q 110 579 61 492 q 243 717 160 667 q 432 768 326 768 q 583 739 517 768 q 696 659 650 710 q 766 543 742 608 q 790 404 790 478 q 789 367 790 386 q 783 331 788 347 l 185 331 l 185 456 l 694 456 l 619 399 q 610 520 633 467 q 541 605 588 574 q 432 636 494 636 q 321 605 369 636 q 246 516 272 574 q 225 376 219 458 q 247 243 218 300 q 327 154 275 186 q 446 122 379 122 q 562 153 514 122 q 638 232 610 183 l 765 169 q 697 74 743 117 q 585 8 650 32 q 444 -17 521 -17 m 335 889 l 171 1111 l 332 1111 l 426 986 l 522 1111 l 683 1111 l 518 889 l 335 889 z "},"ḝ":{"ha":851,"x_min":61,"x_max":790,"o":"m 444 -17 q 245 35 332 -17 q 110 177 158 88 q 61 378 61 267 q 110 579 61 492 q 243 717 160 667 q 432 768 326 768 q 583 739 517 768 q 696 659 650 710 q 766 543 742 608 q 790 404 790 478 q 789 367 790 386 q 783 331 788 347 l 185 331 l 185 456 l 694 456 l 619 399 q 610 520 633 467 q 541 605 588 574 q 432 636 494 636 q 321 605 369 636 q 246 516 272 574 q 225 376 219 458 q 247 243 218 300 q 327 154 275 186 q 446 122 379 122 q 562 153 514 122 q 638 232 610 183 l 765 169 q 697 74 743 117 q 585 8 650 32 q 444 -17 521 -17 m 443 -326 q 361 -314 404 -326 q 289 -278 318 -301 l 325 -183 q 372 -209 346 -200 q 422 -218 397 -218 q 470 -204 453 -218 q 488 -167 488 -190 q 455 -122 488 -139 q 354 -99 422 -106 l 385 14 l 482 14 l 467 -46 q 580 -92 540 -57 q 619 -179 619 -126 q 571 -285 619 -244 q 443 -326 522 -326 m 428 893 q 283 924 340 893 q 198 1006 226 956 q 168 1115 169 1057 l 321 1115 q 350 1042 322 1068 q 428 1015 378 1015 q 506 1042 478 1015 q 535 1115 533 1068 l 686 1115 q 656 1005 685 1056 q 572 924 628 954 q 428 893 515 893 z "},"ê":{"ha":851,"x_min":61,"x_max":790,"o":"m 444 -17 q 245 35 332 -17 q 110 177 158 88 q 61 378 61 267 q 110 579 61 492 q 243 717 160 667 q 432 768 326 768 q 583 739 517 768 q 696 659 650 710 q 766 543 742 608 q 790 404 790 478 q 789 367 790 386 q 783 331 788 347 l 185 331 l 185 456 l 694 456 l 619 399 q 610 520 633 467 q 541 605 588 574 q 432 636 494 636 q 321 605 369 636 q 246 516 272 574 q 225 376 219 458 q 247 243 218 300 q 327 154 275 186 q 446 122 379 122 q 562 153 514 122 q 638 232 610 183 l 765 169 q 697 74 743 117 q 585 8 650 32 q 444 -17 521 -17 m 171 889 l 335 1111 l 518 1111 l 683 889 l 522 889 l 426 1015 l 332 889 l 171 889 z "},"ế":{"ha":851,"x_min":61,"x_max":882,"o":"m 444 -17 q 245 35 332 -17 q 110 177 158 88 q 61 378 61 267 q 110 579 61 492 q 243 717 160 667 q 432 768 326 768 q 583 739 517 768 q 696 659 650 710 q 766 543 742 608 q 790 404 790 478 q 789 367 790 386 q 783 331 788 347 l 185 331 l 185 456 l 694 456 l 619 399 q 610 520 633 467 q 541 605 588 574 q 432 636 494 636 q 321 605 369 636 q 246 516 272 574 q 225 376 219 458 q 247 243 218 300 q 327 154 275 186 q 446 122 379 122 q 562 153 514 122 q 638 232 610 183 l 765 169 q 697 74 743 117 q 585 8 650 32 q 444 -17 521 -17 m 171 889 l 335 1097 l 518 1097 l 683 889 l 522 889 l 426 1001 l 332 889 l 171 889 m 625 993 l 697 1188 l 882 1188 l 758 993 l 625 993 z "},"ệ":{"ha":851,"x_min":61,"x_max":790,"o":"m 444 -17 q 245 35 332 -17 q 110 177 158 88 q 61 378 61 267 q 110 579 61 492 q 243 717 160 667 q 432 768 326 768 q 583 739 517 768 q 696 659 650 710 q 766 543 742 608 q 790 404 790 478 q 789 367 790 386 q 783 331 788 347 l 185 331 l 185 456 l 694 456 l 619 399 q 610 520 633 467 q 541 605 588 574 q 432 636 494 636 q 321 605 369 636 q 246 516 272 574 q 225 376 219 458 q 247 243 218 300 q 327 154 275 186 q 446 122 379 122 q 562 153 514 122 q 638 232 610 183 l 765 169 q 697 74 743 117 q 585 8 650 32 q 444 -17 521 -17 m 340 -299 l 340 -125 l 514 -125 l 514 -299 l 340 -299 m 171 889 l 335 1111 l 518 1111 l 683 889 l 522 889 l 426 1015 l 332 889 l 171 889 z "},"ề":{"ha":851,"x_min":61,"x_max":839,"o":"m 444 -17 q 245 35 332 -17 q 110 177 158 88 q 61 378 61 267 q 110 579 61 492 q 243 717 160 667 q 432 768 326 768 q 583 739 517 768 q 696 659 650 710 q 766 543 742 608 q 790 404 790 478 q 789 367 790 386 q 783 331 788 347 l 185 331 l 185 456 l 694 456 l 619 399 q 610 520 633 467 q 541 605 588 574 q 432 636 494 636 q 321 605 369 636 q 246 516 272 574 q 225 376 219 458 q 247 243 218 300 q 327 154 275 186 q 446 122 379 122 q 562 153 514 122 q 638 232 610 183 l 765 169 q 697 74 743 117 q 585 8 650 32 q 444 -17 521 -17 m 171 889 l 335 1097 l 518 1097 l 683 889 l 522 889 l 426 1001 l 332 889 l 171 889 m 706 993 l 582 1188 l 767 1188 l 839 993 l 706 993 z "},"ể":{"ha":851,"x_min":61,"x_max":808,"o":"m 444 -17 q 245 35 332 -17 q 110 177 158 88 q 61 378 61 267 q 110 579 61 492 q 243 717 160 667 q 432 768 326 768 q 583 739 517 768 q 696 659 650 710 q 766 543 742 608 q 790 404 790 478 q 789 367 790 386 q 783 331 788 347 l 185 331 l 185 456 l 694 456 l 619 399 q 610 520 633 467 q 541 605 588 574 q 432 636 494 636 q 321 605 369 636 q 246 516 272 574 q 225 376 219 458 q 247 243 218 300 q 327 154 275 186 q 446 122 379 122 q 562 153 514 122 q 638 232 610 183 l 765 169 q 697 74 743 117 q 585 8 650 32 q 444 -17 521 -17 m 171 889 l 335 1097 l 518 1097 l 683 889 l 522 889 l 426 1001 l 332 889 l 171 889 m 674 986 l 611 1063 q 662 1097 647 1078 q 676 1140 676 1115 q 657 1179 676 1164 q 604 1194 638 1194 q 572 1192 588 1194 q 536 1182 556 1190 l 518 1276 q 571 1294 543 1289 q 628 1299 599 1299 q 759 1258 710 1299 q 808 1151 808 1218 q 772 1057 808 1100 q 674 986 735 1014 z "},"ễ":{"ha":851,"x_min":61,"x_max":790,"o":"m 444 -17 q 245 35 332 -17 q 110 177 158 88 q 61 378 61 267 q 110 579 61 492 q 243 717 160 667 q 432 768 326 768 q 583 739 517 768 q 696 659 650 710 q 766 543 742 608 q 790 404 790 478 q 789 367 790 386 q 783 331 788 347 l 185 331 l 185 456 l 694 456 l 619 399 q 610 520 633 467 q 541 605 588 574 q 432 636 494 636 q 321 605 369 636 q 246 516 272 574 q 225 376 219 458 q 247 243 218 300 q 327 154 275 186 q 446 122 379 122 q 562 153 514 122 q 638 232 610 183 l 765 169 q 697 74 743 117 q 585 8 650 32 q 444 -17 521 -17 m 172 889 l 336 1097 l 518 1097 l 683 889 l 522 889 l 428 1001 l 333 889 l 172 889 m 510 1183 q 458 1195 478 1183 q 422 1223 438 1207 q 393 1251 407 1239 q 360 1263 379 1263 q 332 1244 342 1263 q 322 1189 322 1226 l 201 1189 q 221 1301 201 1257 q 273 1367 240 1346 q 343 1389 306 1389 q 397 1377 375 1389 q 433 1349 418 1365 q 463 1322 449 1333 q 494 1310 478 1310 q 525 1329 517 1310 q 533 1383 533 1349 l 653 1383 q 610 1235 653 1288 q 510 1183 568 1183 z "},"ȅ":{"ha":851,"x_min":61,"x_max":790,"o":"m 444 -17 q 245 35 332 -17 q 110 177 158 88 q 61 378 61 267 q 110 579 61 492 q 243 717 160 667 q 432 768 326 768 q 583 739 517 768 q 696 659 650 710 q 766 543 742 608 q 790 404 790 478 q 789 367 790 386 q 783 331 788 347 l 185 331 l 185 456 l 694 456 l 619 399 q 610 520 633 467 q 541 605 588 574 q 432 636 494 636 q 321 605 369 636 q 246 516 272 574 q 225 376 219 458 q 247 243 218 300 q 327 154 275 186 q 446 122 379 122 q 562 153 514 122 q 638 232 610 183 l 765 169 q 697 74 743 117 q 585 8 650 32 q 444 -17 521 -17 m 213 889 l 61 1121 l 260 1121 l 361 889 l 213 889 m 492 889 l 340 1121 l 539 1121 l 640 889 l 492 889 z "},"ë":{"ha":851,"x_min":61,"x_max":790,"o":"m 444 -17 q 245 35 332 -17 q 110 177 158 88 q 61 378 61 267 q 110 579 61 492 q 243 717 160 667 q 432 768 326 768 q 583 739 517 768 q 696 659 650 710 q 766 543 742 608 q 790 404 790 478 q 789 367 790 386 q 783 331 788 347 l 185 331 l 185 456 l 694 456 l 619 399 q 610 520 633 467 q 541 605 588 574 q 432 636 494 636 q 321 605 369 636 q 246 516 272 574 q 225 376 219 458 q 247 243 218 300 q 327 154 275 186 q 446 122 379 122 q 562 153 514 122 q 638 232 610 183 l 765 169 q 697 74 743 117 q 585 8 650 32 q 444 -17 521 -17 m 197 889 l 197 1063 l 371 1063 l 371 889 l 197 889 m 482 889 l 482 1063 l 656 1063 l 656 889 l 482 889 z "},"ė":{"ha":851,"x_min":61,"x_max":790,"o":"m 444 -17 q 245 35 332 -17 q 110 177 158 88 q 61 378 61 267 q 110 579 61 492 q 243 717 160 667 q 432 768 326 768 q 583 739 517 768 q 696 659 650 710 q 766 543 742 608 q 790 404 790 478 q 789 367 790 386 q 783 331 788 347 l 185 331 l 185 456 l 694 456 l 619 399 q 610 520 633 467 q 541 605 588 574 q 432 636 494 636 q 321 605 369 636 q 246 516 272 574 q 225 376 219 458 q 247 243 218 300 q 327 154 275 186 q 446 122 379 122 q 562 153 514 122 q 638 232 610 183 l 765 169 q 697 74 743 117 q 585 8 650 32 q 444 -17 521 -17 m 340 889 l 340 1063 l 514 1063 l 514 889 l 340 889 z "},"ẹ":{"ha":851,"x_min":61,"x_max":790,"o":"m 444 -17 q 245 35 332 -17 q 110 177 158 88 q 61 378 61 267 q 110 579 61 492 q 243 717 160 667 q 432 768 326 768 q 583 739 517 768 q 696 659 650 710 q 766 543 742 608 q 790 404 790 478 q 789 367 790 386 q 783 331 788 347 l 185 331 l 185 456 l 694 456 l 619 399 q 610 520 633 467 q 541 605 588 574 q 432 636 494 636 q 321 605 369 636 q 246 516 272 574 q 225 376 219 458 q 247 243 218 300 q 327 154 275 186 q 446 122 379 122 q 562 153 514 122 q 638 232 610 183 l 765 169 q 697 74 743 117 q 585 8 650 32 q 444 -17 521 -17 m 340 -299 l 340 -125 l 514 -125 l 514 -299 l 340 -299 z "},"è":{"ha":851,"x_min":61,"x_max":790,"o":"m 444 -17 q 245 35 332 -17 q 110 177 158 88 q 61 378 61 267 q 110 579 61 492 q 243 717 160 667 q 432 768 326 768 q 583 739 517 768 q 696 659 650 710 q 766 543 742 608 q 790 404 790 478 q 789 367 790 386 q 783 331 788 347 l 185 331 l 185 456 l 694 456 l 619 399 q 610 520 633 467 q 541 605 588 574 q 432 636 494 636 q 321 605 369 636 q 246 516 272 574 q 225 376 219 458 q 247 243 218 300 q 327 154 275 186 q 446 122 379 122 q 562 153 514 122 q 638 232 610 183 l 765 169 q 697 74 743 117 q 585 8 650 32 q 444 -17 521 -17 m 350 889 l 199 1118 l 404 1118 l 506 889 l 350 889 z "},"ẻ":{"ha":851,"x_min":61,"x_max":790,"o":"m 444 -17 q 245 35 332 -17 q 110 177 158 88 q 61 378 61 267 q 110 579 61 492 q 243 717 160 667 q 432 768 326 768 q 583 739 517 768 q 696 659 650 710 q 766 543 742 608 q 790 404 790 478 q 789 367 790 386 q 783 331 788 347 l 185 331 l 185 456 l 694 456 l 619 399 q 610 520 633 467 q 541 605 588 574 q 432 636 494 636 q 321 605 369 636 q 246 516 272 574 q 225 376 219 458 q 247 243 218 300 q 327 154 275 186 q 446 122 379 122 q 562 153 514 122 q 638 232 610 183 l 765 169 q 697 74 743 117 q 585 8 650 32 q 444 -17 521 -17 m 438 833 l 371 915 q 424 951 408 932 q 439 996 439 969 q 419 1038 439 1021 q 363 1054 399 1054 q 329 1051 346 1054 q 292 1040 313 1049 l 272 1140 q 328 1158 299 1153 q 388 1164 357 1164 q 527 1122 475 1164 q 579 1008 579 1079 q 541 910 579 956 q 438 833 503 864 z "},"ȇ":{"ha":851,"x_min":61,"x_max":790,"o":"m 444 -17 q 245 35 332 -17 q 110 177 158 88 q 61 378 61 267 q 110 579 61 492 q 243 717 160 667 q 432 768 326 768 q 583 739 517 768 q 696 659 650 710 q 766 543 742 608 q 790 404 790 478 q 789 367 790 386 q 783 331 788 347 l 185 331 l 185 456 l 694 456 l 619 399 q 610 520 633 467 q 541 605 588 574 q 432 636 494 636 q 321 605 369 636 q 246 516 272 574 q 225 376 219 458 q 247 243 218 300 q 327 154 275 186 q 446 122 379 122 q 562 153 514 122 q 638 232 610 183 l 765 169 q 697 74 743 117 q 585 8 650 32 q 444 -17 521 -17 m 168 889 q 198 999 169 949 q 283 1081 226 1050 q 428 1111 340 1111 q 572 1081 515 1111 q 656 1001 628 1051 q 686 889 685 950 l 535 889 q 506 964 533 938 q 428 990 478 990 q 350 964 378 990 q 321 889 322 938 l 168 889 z "},"ē":{"ha":851,"x_min":61,"x_max":790,"o":"m 444 -17 q 245 35 332 -17 q 110 177 158 88 q 61 378 61 267 q 110 579 61 492 q 243 717 160 667 q 432 768 326 768 q 583 739 517 768 q 696 659 650 710 q 766 543 742 608 q 790 404 790 478 q 789 367 790 386 q 783 331 788 347 l 185 331 l 185 456 l 694 456 l 619 399 q 610 520 633 467 q 541 605 588 574 q 432 636 494 636 q 321 605 369 636 q 246 516 272 574 q 225 376 219 458 q 247 243 218 300 q 327 154 275 186 q 446 122 379 122 q 562 153 514 122 q 638 232 610 183 l 765 169 q 697 74 743 117 q 585 8 650 32 q 444 -17 521 -17 m 215 917 l 215 1049 l 639 1049 l 639 917 l 215 917 z "},"ḗ":{"ha":851,"x_min":61,"x_max":790,"o":"m 444 -17 q 245 35 332 -17 q 110 177 158 88 q 61 378 61 267 q 110 579 61 492 q 243 717 160 667 q 432 768 326 768 q 583 739 517 768 q 696 659 650 710 q 766 543 742 608 q 790 404 790 478 q 789 367 790 386 q 783 331 788 347 l 185 331 l 185 456 l 694 456 l 619 399 q 610 520 633 467 q 541 605 588 574 q 432 636 494 636 q 321 605 369 636 q 246 516 272 574 q 225 376 219 458 q 247 243 218 300 q 327 154 275 186 q 446 122 379 122 q 562 153 514 122 q 638 232 610 183 l 765 169 q 697 74 743 117 q 585 8 650 32 q 444 -17 521 -17 m 343 1139 l 443 1368 l 649 1368 l 497 1139 l 343 1139 m 208 917 l 208 1049 l 632 1049 l 632 917 l 208 917 z "},"ḕ":{"ha":851,"x_min":61,"x_max":790,"o":"m 444 -17 q 245 35 332 -17 q 110 177 158 88 q 61 378 61 267 q 110 579 61 492 q 243 717 160 667 q 432 768 326 768 q 583 739 517 768 q 696 659 650 710 q 766 543 742 608 q 790 404 790 478 q 789 367 790 386 q 783 331 788 347 l 185 331 l 185 456 l 694 456 l 619 399 q 610 520 633 467 q 541 605 588 574 q 432 636 494 636 q 321 605 369 636 q 246 516 272 574 q 225 376 219 458 q 247 243 218 300 q 327 154 275 186 q 446 122 379 122 q 562 153 514 122 q 638 232 610 183 l 765 169 q 697 74 743 117 q 585 8 650 32 q 444 -17 521 -17 m 215 917 l 215 1049 l 639 1049 l 639 917 l 215 917 m 350 1139 l 199 1368 l 404 1368 l 506 1139 l 350 1139 z "},"ę":{"ha":851,"x_min":61,"x_max":790,"o":"m 444 -17 q 245 35 332 -17 q 110 177 158 88 q 61 378 61 267 q 110 579 61 492 q 243 717 160 667 q 432 768 326 768 q 583 739 517 768 q 696 659 650 710 q 766 543 742 608 q 790 404 790 478 q 789 367 790 386 q 783 331 788 347 l 185 331 l 185 456 l 694 456 l 619 399 q 610 520 633 467 q 541 605 588 574 q 432 636 494 636 q 321 605 369 636 q 246 516 272 574 q 225 376 219 458 q 247 243 218 300 q 327 154 275 186 q 446 122 379 122 q 562 153 514 122 q 638 232 610 183 l 765 169 q 697 74 743 117 q 585 8 650 32 q 444 -17 521 -17 m 406 -326 q 272 -281 322 -326 q 222 -168 222 -236 q 247 -73 222 -117 q 316 2 271 -29 q 424 46 361 33 l 465 46 l 465 0 q 411 -26 436 -6 q 371 -78 386 -47 q 356 -147 356 -110 q 378 -199 356 -179 q 429 -218 400 -218 q 476 -209 454 -218 q 517 -183 497 -200 l 553 -278 q 488 -313 525 -300 q 406 -326 450 -326 z "},"ẽ":{"ha":851,"x_min":61,"x_max":790,"o":"m 444 -17 q 245 35 332 -17 q 110 177 158 88 q 61 378 61 267 q 110 579 61 492 q 243 717 160 667 q 432 768 326 768 q 583 739 517 768 q 696 659 650 710 q 766 543 742 608 q 790 404 790 478 q 789 367 790 386 q 783 331 788 347 l 185 331 l 185 456 l 694 456 l 619 399 q 610 520 633 467 q 541 605 588 574 q 432 636 494 636 q 321 605 369 636 q 246 516 272 574 q 225 376 219 458 q 247 243 218 300 q 327 154 275 186 q 446 122 379 122 q 562 153 514 122 q 638 232 610 183 l 765 169 q 697 74 743 117 q 585 8 650 32 q 444 -17 521 -17 m 522 889 q 460 901 485 889 q 419 929 436 914 q 384 957 401 944 q 343 969 367 969 q 307 951 319 969 q 294 894 294 933 l 171 894 q 217 1047 171 997 q 331 1096 263 1096 q 394 1084 369 1096 q 436 1056 418 1072 q 472 1028 454 1040 q 511 1017 489 1017 q 549 1036 538 1017 q 561 1090 561 1056 l 683 1090 q 637 941 683 993 q 522 889 590 889 z "},"ə":{"ha":851,"x_min":61,"x_max":790,"o":"m 421 -17 q 269 13 335 -17 q 156 93 203 42 q 85 210 110 144 q 61 347 61 275 q 63 385 61 367 q 69 421 65 404 l 668 421 l 668 296 l 158 296 l 232 353 q 242 232 219 286 q 312 147 264 178 q 421 115 360 115 q 531 147 482 115 q 607 236 581 178 q 628 375 633 294 q 606 510 633 453 q 525 598 578 567 q 407 629 472 629 q 291 599 339 629 q 214 519 243 568 l 86 583 q 156 678 110 636 q 267 744 203 719 q 408 768 332 768 q 607 716 521 768 q 742 575 693 664 q 790 374 790 486 q 742 174 790 263 q 610 34 693 85 q 421 -17 526 -17 z "},"f":{"ha":558,"x_min":38,"x_max":517,"o":"m 176 0 l 176 610 l 38 610 l 38 751 l 176 751 l 176 790 q 211 933 176 875 q 308 1021 246 990 q 450 1051 369 1051 q 485 1049 465 1051 q 517 1044 504 1047 l 517 908 q 492 912 506 911 q 469 913 478 913 q 369 884 407 913 q 332 790 332 856 l 332 751 l 504 751 l 504 610 l 332 610 l 332 0 l 176 0 z "},"g":{"ha":910,"x_min":61,"x_max":818,"o":"m 454 -306 q 303 -279 372 -306 q 183 -206 233 -253 q 108 -97 133 -160 l 253 -37 q 324 -125 272 -90 q 453 -160 376 -160 q 560 -137 513 -160 q 635 -70 607 -114 q 663 35 663 -26 l 663 204 l 690 172 q 583 63 651 100 q 428 25 514 25 q 240 74 324 25 q 109 207 157 122 q 61 397 61 292 q 109 588 61 504 q 239 719 157 671 q 426 768 321 768 q 580 731 513 768 q 690 625 647 694 l 669 586 l 669 751 l 818 751 l 818 35 q 772 -140 818 -62 q 643 -261 725 -217 q 454 -306 561 -306 m 446 171 q 557 201 508 171 q 634 281 606 231 q 663 396 663 332 q 633 511 663 460 q 556 592 604 563 q 446 622 507 622 q 332 592 382 622 q 253 512 282 563 q 225 396 225 461 q 253 282 225 333 q 332 201 282 231 q 446 171 382 171 z "},"ğ":{"ha":910,"x_min":61,"x_max":818,"o":"m 454 -306 q 303 -279 372 -306 q 183 -206 233 -253 q 108 -97 133 -160 l 253 -37 q 324 -125 272 -90 q 453 -160 376 -160 q 560 -137 513 -160 q 635 -70 607 -114 q 663 35 663 -26 l 663 204 l 690 172 q 583 63 651 100 q 428 25 514 25 q 240 74 324 25 q 109 207 157 122 q 61 397 61 292 q 109 588 61 504 q 239 719 157 671 q 426 768 321 768 q 580 731 513 768 q 690 625 647 694 l 669 586 l 669 751 l 818 751 l 818 35 q 772 -140 818 -62 q 643 -261 725 -217 q 454 -306 561 -306 m 446 171 q 557 201 508 171 q 634 281 606 231 q 663 396 663 332 q 633 511 663 460 q 556 592 604 563 q 446 622 507 622 q 332 592 382 622 q 253 512 282 563 q 225 396 225 461 q 253 282 225 333 q 332 201 282 231 q 446 171 382 171 m 456 893 q 311 924 368 893 q 226 1006 254 956 q 196 1115 197 1057 l 349 1115 q 378 1042 350 1068 q 456 1015 406 1015 q 533 1042 506 1015 q 563 1115 561 1068 l 714 1115 q 684 1005 713 1056 q 599 924 656 954 q 456 893 543 893 z "},"ǧ":{"ha":910,"x_min":61,"x_max":818,"o":"m 454 -306 q 303 -279 372 -306 q 183 -206 233 -253 q 108 -97 133 -160 l 253 -37 q 324 -125 272 -90 q 453 -160 376 -160 q 560 -137 513 -160 q 635 -70 607 -114 q 663 35 663 -26 l 663 204 l 690 172 q 583 63 651 100 q 428 25 514 25 q 240 74 324 25 q 109 207 157 122 q 61 397 61 292 q 109 588 61 504 q 239 719 157 671 q 426 768 321 768 q 580 731 513 768 q 690 625 647 694 l 669 586 l 669 751 l 818 751 l 818 35 q 772 -140 818 -62 q 643 -261 725 -217 q 454 -306 561 -306 m 446 171 q 557 201 508 171 q 634 281 606 231 q 663 396 663 332 q 633 511 663 460 q 556 592 604 563 q 446 622 507 622 q 332 592 382 622 q 253 512 282 563 q 225 396 225 461 q 253 282 225 333 q 332 201 282 231 q 446 171 382 171 m 363 889 l 199 1111 l 360 1111 l 454 986 l 550 1111 l 711 1111 l 546 889 l 363 889 z "},"ĝ":{"ha":910,"x_min":61,"x_max":818,"o":"m 454 -306 q 303 -279 372 -306 q 183 -206 233 -253 q 108 -97 133 -160 l 253 -37 q 324 -125 272 -90 q 453 -160 376 -160 q 560 -137 513 -160 q 635 -70 607 -114 q 663 35 663 -26 l 663 204 l 690 172 q 583 63 651 100 q 428 25 514 25 q 240 74 324 25 q 109 207 157 122 q 61 397 61 292 q 109 588 61 504 q 239 719 157 671 q 426 768 321 768 q 580 731 513 768 q 690 625 647 694 l 669 586 l 669 751 l 818 751 l 818 35 q 772 -140 818 -62 q 643 -261 725 -217 q 454 -306 561 -306 m 446 171 q 557 201 508 171 q 634 281 606 231 q 663 396 663 332 q 633 511 663 460 q 556 592 604 563 q 446 622 507 622 q 332 592 382 622 q 253 512 282 563 q 225 396 225 461 q 253 282 225 333 q 332 201 282 231 q 446 171 382 171 m 200 889 l 364 1111 l 547 1111 l 713 889 l 551 889 l 456 1015 l 361 889 l 200 889 z "},"ģ":{"ha":910,"x_min":61,"x_max":818,"o":"m 454 -306 q 303 -279 372 -306 q 183 -206 233 -253 q 108 -97 133 -160 l 253 -37 q 324 -125 272 -90 q 453 -160 376 -160 q 560 -137 513 -160 q 635 -70 607 -114 q 663 35 663 -26 l 663 204 l 690 172 q 583 63 651 100 q 428 25 514 25 q 240 74 324 25 q 109 207 157 122 q 61 397 61 292 q 109 588 61 504 q 239 719 157 671 q 426 768 321 768 q 580 731 513 768 q 690 625 647 694 l 669 586 l 669 751 l 818 751 l 818 35 q 772 -140 818 -62 q 643 -261 725 -217 q 454 -306 561 -306 m 446 171 q 557 201 508 171 q 634 281 606 231 q 663 396 663 332 q 633 511 663 460 q 556 592 604 563 q 446 622 507 622 q 332 592 382 622 q 253 512 282 563 q 225 396 225 461 q 253 282 225 333 q 332 201 282 231 q 446 171 382 171 m 340 849 l 438 1101 l 585 1101 l 538 849 l 340 849 z "},"ġ":{"ha":910,"x_min":61,"x_max":818,"o":"m 454 -306 q 303 -279 372 -306 q 183 -206 233 -253 q 108 -97 133 -160 l 253 -37 q 324 -125 272 -90 q 453 -160 376 -160 q 560 -137 513 -160 q 635 -70 607 -114 q 663 35 663 -26 l 663 204 l 690 172 q 583 63 651 100 q 428 25 514 25 q 240 74 324 25 q 109 207 157 122 q 61 397 61 292 q 109 588 61 504 q 239 719 157 671 q 426 768 321 768 q 580 731 513 768 q 690 625 647 694 l 669 586 l 669 751 l 818 751 l 818 35 q 772 -140 818 -62 q 643 -261 725 -217 q 454 -306 561 -306 m 446 171 q 557 201 508 171 q 634 281 606 231 q 663 396 663 332 q 633 511 663 460 q 556 592 604 563 q 446 622 507 622 q 332 592 382 622 q 253 512 282 563 q 225 396 225 461 q 253 282 225 333 q 332 201 282 231 q 446 171 382 171 m 368 889 l 368 1063 l 542 1063 l 542 889 l 368 889 z "},"ḡ":{"ha":910,"x_min":61,"x_max":818,"o":"m 454 -306 q 303 -279 372 -306 q 183 -206 233 -253 q 108 -97 133 -160 l 253 -37 q 324 -125 272 -90 q 453 -160 376 -160 q 560 -137 513 -160 q 635 -70 607 -114 q 663 35 663 -26 l 663 204 l 690 172 q 583 63 651 100 q 428 25 514 25 q 240 74 324 25 q 109 207 157 122 q 61 397 61 292 q 109 588 61 504 q 239 719 157 671 q 426 768 321 768 q 580 731 513 768 q 690 625 647 694 l 669 586 l 669 751 l 818 751 l 818 35 q 772 -140 818 -62 q 643 -261 725 -217 q 454 -306 561 -306 m 446 171 q 557 201 508 171 q 634 281 606 231 q 663 396 663 332 q 633 511 663 460 q 556 592 604 563 q 446 622 507 622 q 332 592 382 622 q 253 512 282 563 q 225 396 225 461 q 253 282 225 333 q 332 201 282 231 q 446 171 382 171 m 243 917 l 243 1049 l 667 1049 l 667 917 l 243 917 z "},"h":{"ha":814,"x_min":92,"x_max":738,"o":"m 92 0 l 92 1051 l 249 1051 l 249 604 l 224 624 q 313 731 251 694 q 454 768 374 768 q 601 732 538 768 q 701 632 665 696 q 738 486 738 568 l 738 0 l 582 0 l 582 443 q 560 540 582 500 q 501 601 539 579 q 415 622 464 622 q 330 601 368 622 q 270 539 292 579 q 249 443 249 499 l 249 0 l 92 0 z "},"ħ":{"ha":814,"x_min":-31,"x_max":738,"o":"m -31 826 l -31 951 l 372 951 l 372 826 l -31 826 m 92 0 l 92 1051 l 249 1051 l 249 604 l 224 624 q 313 731 251 694 q 454 768 374 768 q 601 732 538 768 q 701 632 665 696 q 738 486 738 568 l 738 0 l 582 0 l 582 443 q 560 540 582 500 q 501 601 539 579 q 415 622 464 622 q 330 601 368 622 q 270 539 292 579 q 249 443 249 499 l 249 0 l 92 0 z "},"ḫ":{"ha":814,"x_min":92,"x_max":738,"o":"m 92 0 l 92 1051 l 249 1051 l 249 604 l 224 624 q 313 731 251 694 q 454 768 374 768 q 601 732 538 768 q 701 632 665 696 q 738 486 738 568 l 738 0 l 582 0 l 582 443 q 560 540 582 500 q 501 601 539 579 q 415 622 464 622 q 330 601 368 622 q 270 539 292 579 q 249 443 249 499 l 249 0 l 92 0 m 408 -347 q 264 -316 321 -347 q 178 -234 207 -285 q 149 -125 150 -183 l 301 -125 q 331 -199 303 -172 q 408 -225 358 -225 q 486 -199 458 -225 q 515 -125 514 -172 l 667 -125 q 637 -235 665 -185 q 552 -317 608 -286 q 408 -347 496 -347 z "},"ĥ":{"ha":814,"x_min":-85,"x_max":738,"o":"m 92 0 l 92 1051 l 249 1051 l 249 604 l 224 624 q 313 731 251 694 q 454 768 374 768 q 601 732 538 768 q 701 632 665 696 q 738 486 738 568 l 738 0 l 582 0 l 582 443 q 560 540 582 500 q 501 601 539 579 q 415 622 464 622 q 330 601 368 622 q 270 539 292 579 q 249 443 249 499 l 249 0 l 92 0 m -85 1172 l 79 1394 l 263 1394 l 428 1172 l 267 1172 l 171 1299 l 76 1172 l -85 1172 z "},"ḥ":{"ha":814,"x_min":92,"x_max":738,"o":"m 92 0 l 92 1051 l 249 1051 l 249 604 l 224 624 q 313 731 251 694 q 454 768 374 768 q 601 732 538 768 q 701 632 665 696 q 738 486 738 568 l 738 0 l 582 0 l 582 443 q 560 540 582 500 q 501 601 539 579 q 415 622 464 622 q 330 601 368 622 q 270 539 292 579 q 249 443 249 499 l 249 0 l 92 0 m 321 -299 l 321 -125 l 494 -125 l 494 -299 l 321 -299 z "},"i":{"ha":340,"x_min":92,"x_max":249,"o":"m 92 0 l 92 751 l 249 751 l 249 0 l 92 0 m 92 854 l 92 1035 l 249 1035 l 249 854 l 92 854 z "},"ı":{"ha":304,"x_min":74,"x_max":231,"o":"m 74 0 l 74 751 l 231 751 l 231 0 l 74 0 z "},"í":{"ha":304,"x_min":74,"x_max":381,"o":"m 74 0 l 74 751 l 231 751 l 231 0 l 74 0 m 74 889 l 175 1118 l 381 1118 l 229 889 l 74 889 z "},"ĭ":{"ha":304,"x_min":-107,"x_max":410,"o":"m 74 0 l 74 751 l 231 751 l 231 0 l 74 0 m 153 893 q 8 924 65 893 q -77 1006 -49 956 q -107 1115 -106 1057 l 46 1115 q 75 1042 47 1068 q 153 1015 103 1015 q 231 1042 203 1015 q 260 1115 258 1068 l 411 1115 q 381 1005 410 1056 q 297 924 353 954 q 153 893 240 893 z "},"î":{"ha":304,"x_min":-104,"x_max":408,"o":"m 74 0 l 74 751 l 231 751 l 231 0 l 74 0 m -104 889 l 60 1111 l 243 1111 l 408 889 l 247 889 l 151 1015 l 57 889 l -104 889 z "},"ȉ":{"ha":304,"x_min":-214,"x_max":365,"o":"m 74 0 l 74 751 l 231 751 l 231 0 l 74 0 m -62 889 l -214 1121 l -15 1121 l 86 889 l -62 889 m 217 889 l 65 1121 l 264 1121 l 365 889 l 217 889 z "},"ï":{"ha":304,"x_min":-78,"x_max":381,"o":"m 74 0 l 74 751 l 231 751 l 231 0 l 74 0 m -78 889 l -78 1063 l 96 1063 l 96 889 l -78 889 m 207 889 l 207 1063 l 381 1063 l 381 889 l 207 889 z "},"ḯ":{"ha":304,"x_min":-81,"x_max":378,"o":"m 74 0 l 74 751 l 231 751 l 231 0 l 74 0 m 71 1139 l 172 1368 l 378 1368 l 226 1139 l 71 1139 m -81 889 l -81 1063 l 93 1063 l 93 889 l -81 889 m 204 889 l 204 1063 l 378 1063 l 378 889 l 204 889 z "},"ị":{"ha":340,"x_min":83,"x_max":257,"o":"m 92 0 l 92 751 l 249 751 l 249 0 l 92 0 m 92 854 l 92 1035 l 249 1035 l 249 854 l 92 854 m 83 -299 l 83 -125 l 257 -125 l 257 -299 l 83 -299 z "},"ì":{"ha":304,"x_min":-76,"x_max":231,"o":"m 74 0 l 74 751 l 231 751 l 231 0 l 74 0 m 75 889 l -76 1118 l 129 1118 l 231 889 l 75 889 z "},"ỉ":{"ha":304,"x_min":-3,"x_max":304,"o":"m 74 0 l 74 751 l 231 751 l 231 0 l 74 0 m 163 833 l 96 915 q 149 951 133 932 q 164 996 164 969 q 144 1038 164 1021 q 88 1054 124 1054 q 54 1051 71 1054 q 17 1040 38 1049 l -3 1140 q 53 1158 24 1153 q 113 1164 82 1164 q 252 1122 200 1164 q 304 1008 304 1079 q 266 910 304 956 q 163 833 228 864 z "},"ȋ":{"ha":304,"x_min":-107,"x_max":410,"o":"m 74 0 l 74 751 l 231 751 l 231 0 l 74 0 m -107 889 q -77 999 -106 949 q 8 1081 -49 1050 q 153 1111 65 1111 q 297 1081 240 1111 q 381 1001 353 1051 q 411 889 410 950 l 260 889 q 231 964 258 938 q 153 990 203 990 q 75 964 103 990 q 46 889 47 938 l -107 889 z "},"ī":{"ha":304,"x_min":-60,"x_max":364,"o":"m 74 0 l 74 751 l 231 751 l 231 0 l 74 0 m -60 917 l -60 1049 l 364 1049 l 364 917 l -60 917 z "},"į":{"ha":304,"x_min":-42,"x_max":288,"o":"m 74 0 l 74 751 l 231 751 l 231 0 l 74 0 m 65 889 l 65 1063 l 239 1063 l 239 889 l 65 889 m 142 -326 q 8 -281 58 -326 q -42 -168 -42 -236 q -17 -73 -42 -117 q 52 2 7 -29 q 160 46 97 33 l 201 46 l 201 0 q 147 -26 172 -6 q 107 -78 122 -47 q 92 -147 92 -110 q 114 -199 92 -179 q 165 -218 136 -218 q 212 -209 190 -218 q 253 -183 233 -200 l 289 -278 q 224 -313 261 -300 q 142 -326 186 -326 z "},"ĩ":{"ha":304,"x_min":-104,"x_max":408,"o":"m 74 0 l 74 751 l 231 751 l 231 0 l 74 0 m 247 889 q 185 901 210 889 q 144 929 161 914 q 109 957 126 944 q 68 969 92 969 q 32 951 44 969 q 19 894 19 933 l -104 894 q -58 1047 -104 997 q 56 1096 -12 1096 q 119 1084 94 1096 q 161 1056 143 1072 q 197 1028 179 1040 q 236 1017 214 1017 q 274 1036 263 1017 q 286 1090 286 1056 l 408 1090 q 362 941 408 993 q 247 889 315 889 z "},"ĳ":{"ha":679,"x_min":92,"x_max":588,"o":"m 92 0 l 92 751 l 249 751 l 249 0 l 92 0 m 92 854 l 92 1035 l 249 1035 l 249 854 l 92 854 m 317 -307 q 283 -305 301 -307 q 251 -300 264 -303 l 251 -164 q 304 -168 278 -168 q 397 -138 363 -168 q 432 -49 432 -108 l 432 751 l 589 751 l 589 -49 q 554 -189 589 -131 q 458 -277 519 -247 q 317 -307 397 -307 m 432 854 l 432 1035 l 589 1035 l 589 854 l 432 854 z "},"j":{"ha":340,"x_min":-89,"x_max":249,"o":"m -24 -307 q -58 -305 -39 -307 q -89 -300 -76 -303 l -89 -164 q -36 -168 -62 -168 q 57 -138 22 -168 q 92 -49 92 -108 l 92 751 l 249 751 l 249 -49 q 214 -189 249 -131 q 118 -277 179 -247 q -24 -307 57 -307 m 92 854 l 92 1035 l 249 1035 l 249 854 l 92 854 z "},"ȷ":{"ha":340,"x_min":-89,"x_max":249,"o":"m -24 -307 q -58 -305 -39 -307 q -89 -300 -76 -303 l -89 -164 q -36 -168 -62 -168 q 57 -138 22 -168 q 92 -49 92 -108 l 92 751 l 249 751 l 249 -49 q 214 -189 249 -131 q 118 -277 179 -247 q -24 -307 57 -307 z "},"ĵ":{"ha":340,"x_min":-89,"x_max":426,"o":"m -24 -307 q -58 -305 -39 -307 q -89 -300 -76 -303 l -89 -164 q -36 -168 -62 -168 q 57 -138 22 -168 q 92 -49 92 -108 l 92 751 l 249 751 l 249 -49 q 214 -189 249 -131 q 118 -277 179 -247 q -24 -307 57 -307 m -85 889 l 79 1111 l 263 1111 l 428 889 l 267 889 l 171 1015 l 76 889 l -85 889 z "},"k":{"ha":788,"x_min":92,"x_max":772,"o":"m 92 0 l 92 1051 l 249 1051 l 249 347 l 188 363 l 564 751 l 760 751 l 476 450 l 772 0 l 592 0 l 328 399 l 421 411 l 199 175 l 249 279 l 249 0 l 92 0 z "},"ķ":{"ha":788,"x_min":92,"x_max":772,"o":"m 92 0 l 92 1051 l 249 1051 l 249 347 l 188 363 l 564 751 l 760 751 l 476 450 l 772 0 l 592 0 l 328 399 l 421 411 l 199 175 l 249 279 l 249 0 l 92 0 m 249 -349 l 296 -97 l 493 -97 l 396 -349 l 249 -349 z "},"ĸ":{"ha":788,"x_min":92,"x_max":772,"o":"m 593 0 l 361 329 l 367 458 l 558 751 l 736 751 l 501 390 l 772 0 l 593 0 m 92 0 l 92 751 l 249 751 l 249 0 l 92 0 m 188 324 l 188 465 l 457 465 l 457 324 l 188 324 z "},"l":{"ha":340,"x_min":92,"x_max":249,"o":"m 92 0 l 92 1051 l 249 1051 l 249 0 l 92 0 z "},"ĺ":{"ha":340,"x_min":92,"x_max":399,"o":"m 92 0 l 92 1051 l 249 1051 l 249 0 l 92 0 m 93 1172 l 194 1401 l 400 1401 l 249 1172 l 93 1172 z "},"ľ":{"ha":576,"x_min":92,"x_max":529,"o":"m 92 0 l 92 1051 l 249 1051 l 249 0 l 92 0 m 340 799 l 340 1051 l 531 1051 l 481 799 l 340 799 z "},"ļ":{"ha":340,"x_min":25,"x_max":269,"o":"m 92 0 l 92 1051 l 249 1051 l 249 0 l 92 0 m 25 -349 l 72 -97 l 269 -97 l 172 -349 l 25 -349 z "},"ŀ":{"ha":571,"x_min":92,"x_max":524,"o":"m 431 424 q 364 451 392 424 q 336 518 336 478 q 364 584 336 557 q 431 611 392 611 q 497 584 469 611 q 524 518 524 557 q 497 451 524 478 q 431 424 469 424 m 92 0 l 92 1051 l 249 1051 l 249 0 l 92 0 z "},"ḷ":{"ha":340,"x_min":83,"x_max":257,"o":"m 92 0 l 92 1051 l 249 1051 l 249 0 l 92 0 m 83 -299 l 83 -125 l 257 -125 l 257 -299 l 83 -299 z "},"ǉ":{"ha":679,"x_min":92,"x_max":588,"o":"m 92 0 l 92 1051 l 249 1051 l 249 0 l 92 0 m 317 -307 q 283 -305 301 -307 q 251 -300 264 -303 l 251 -164 q 304 -168 278 -168 q 397 -138 363 -168 q 432 -49 432 -108 l 432 751 l 589 751 l 589 -49 q 554 -189 589 -131 q 458 -277 519 -247 q 317 -307 397 -307 m 432 854 l 432 1035 l 589 1035 l 589 854 l 432 854 z "},"ḻ":{"ha":340,"x_min":-42,"x_max":382,"o":"m 92 0 l 92 1051 l 249 1051 l 249 0 l 92 0 m -42 -271 l -42 -139 l 382 -139 l 382 -271 l -42 -271 z "},"ł":{"ha":488,"x_min":46,"x_max":442,"o":"m 46 349 l 46 506 l 442 740 l 442 583 l 46 349 m 167 0 l 167 1051 l 322 1051 l 322 0 l 167 0 z "},"m":{"ha":1276,"x_min":92,"x_max":1200,"o":"m 92 0 l 92 751 l 242 751 l 242 589 l 222 614 q 308 729 246 690 q 451 768 371 768 q 612 720 542 768 q 706 593 682 672 l 661 589 q 763 724 694 679 q 921 768 832 768 q 1062 732 999 768 q 1163 632 1125 696 q 1200 486 1200 568 l 1200 0 l 1043 0 l 1043 443 q 1023 540 1043 500 q 967 601 1003 579 q 885 622 932 622 q 801 601 838 622 q 744 539 765 579 q 724 443 724 499 l 724 0 l 568 0 l 568 443 q 548 540 568 500 q 492 601 528 579 q 408 622 457 622 q 325 601 361 622 q 269 539 289 579 q 249 443 249 499 l 249 0 l 92 0 z "},"ṃ":{"ha":1276,"x_min":92,"x_max":1200,"o":"m 92 0 l 92 751 l 242 751 l 242 589 l 222 614 q 308 729 246 690 q 451 768 371 768 q 612 720 542 768 q 706 593 682 672 l 661 589 q 763 724 694 679 q 921 768 832 768 q 1062 732 999 768 q 1163 632 1125 696 q 1200 486 1200 568 l 1200 0 l 1043 0 l 1043 443 q 1023 540 1043 500 q 967 601 1003 579 q 885 622 932 622 q 801 601 838 622 q 744 539 765 579 q 724 443 724 499 l 724 0 l 568 0 l 568 443 q 548 540 568 500 q 492 601 528 579 q 408 622 457 622 q 325 601 361 622 q 269 539 289 579 q 249 443 249 499 l 249 0 l 92 0 m 551 -299 l 551 -125 l 725 -125 l 725 -299 l 551 -299 z "},"n":{"ha":814,"x_min":92,"x_max":738,"o":"m 92 0 l 92 751 l 242 751 l 242 604 l 224 624 q 313 731 251 694 q 454 768 374 768 q 601 732 538 768 q 701 632 665 696 q 738 485 738 568 l 738 0 l 582 0 l 582 443 q 561 540 582 500 q 502 601 540 579 q 415 622 464 622 q 328 601 367 622 q 269 539 290 579 q 249 443 249 499 l 249 0 l 92 0 z "},"ń":{"ha":814,"x_min":92,"x_max":738,"o":"m 92 0 l 92 751 l 242 751 l 242 604 l 224 624 q 313 731 251 694 q 454 768 374 768 q 601 732 538 768 q 701 632 665 696 q 738 485 738 568 l 738 0 l 582 0 l 582 443 q 561 540 582 500 q 502 601 540 579 q 415 622 464 622 q 328 601 367 622 q 269 539 290 579 q 249 443 249 499 l 249 0 l 92 0 m 331 889 l 432 1118 l 638 1118 l 486 889 l 331 889 z "},"ň":{"ha":814,"x_min":92,"x_max":738,"o":"m 92 0 l 92 751 l 242 751 l 242 604 l 224 624 q 313 731 251 694 q 454 768 374 768 q 601 732 538 768 q 701 632 665 696 q 738 485 738 568 l 738 0 l 582 0 l 582 443 q 561 540 582 500 q 502 601 540 579 q 415 622 464 622 q 328 601 367 622 q 269 539 290 579 q 249 443 249 499 l 249 0 l 92 0 m 315 889 l 151 1111 l 313 1111 l 407 986 l 503 1111 l 664 1111 l 499 889 l 315 889 z "},"ņ":{"ha":814,"x_min":92,"x_max":738,"o":"m 92 0 l 92 751 l 242 751 l 242 604 l 224 624 q 313 731 251 694 q 454 768 374 768 q 601 732 538 768 q 701 632 665 696 q 738 485 738 568 l 738 0 l 582 0 l 582 443 q 561 540 582 500 q 502 601 540 579 q 415 622 464 622 q 328 601 367 622 q 269 539 290 579 q 249 443 249 499 l 249 0 l 92 0 m 263 -349 l 310 -97 l 507 -97 l 410 -349 l 263 -349 z "},"ṅ":{"ha":814,"x_min":92,"x_max":738,"o":"m 92 0 l 92 751 l 242 751 l 242 604 l 224 624 q 313 731 251 694 q 454 768 374 768 q 601 732 538 768 q 701 632 665 696 q 738 485 738 568 l 738 0 l 582 0 l 582 443 q 561 540 582 500 q 502 601 540 579 q 415 622 464 622 q 328 601 367 622 q 269 539 290 579 q 249 443 249 499 l 249 0 l 92 0 m 321 889 l 321 1063 l 494 1063 l 494 889 l 321 889 z "},"ṇ":{"ha":814,"x_min":92,"x_max":738,"o":"m 92 0 l 92 751 l 242 751 l 242 604 l 224 624 q 313 731 251 694 q 454 768 374 768 q 601 732 538 768 q 701 632 665 696 q 738 485 738 568 l 738 0 l 582 0 l 582 443 q 561 540 582 500 q 502 601 540 579 q 415 622 464 622 q 328 601 367 622 q 269 539 290 579 q 249 443 249 499 l 249 0 l 92 0 m 321 -299 l 321 -125 l 494 -125 l 494 -299 l 321 -299 z "},"ǌ":{"ha":1154,"x_min":92,"x_max":1063,"o":"m 92 0 l 92 751 l 242 751 l 242 604 l 224 624 q 313 731 251 694 q 454 768 374 768 q 601 732 538 768 q 701 632 665 696 q 738 485 738 568 l 738 0 l 582 0 l 582 443 q 561 540 582 500 q 502 601 540 579 q 415 622 464 622 q 328 601 367 622 q 269 539 290 579 q 249 443 249 499 l 249 0 l 92 0 m 790 -307 q 756 -305 775 -307 q 725 -300 738 -303 l 725 -164 q 778 -168 751 -168 q 871 -138 836 -168 q 906 -49 906 -108 l 906 751 l 1063 751 l 1063 -49 q 1028 -189 1063 -131 q 932 -277 993 -247 q 790 -307 871 -307 m 906 854 l 906 1035 l 1063 1035 l 1063 854 l 906 854 z "},"ṉ":{"ha":814,"x_min":92,"x_max":738,"o":"m 92 0 l 92 751 l 242 751 l 242 604 l 224 624 q 313 731 251 694 q 454 768 374 768 q 601 732 538 768 q 701 632 665 696 q 738 485 738 568 l 738 0 l 582 0 l 582 443 q 561 540 582 500 q 502 601 540 579 q 415 622 464 622 q 328 601 367 622 q 269 539 290 579 q 249 443 249 499 l 249 0 l 92 0 m 196 -271 l 196 -139 l 619 -139 l 619 -271 l 196 -271 z "},"ñ":{"ha":814,"x_min":92,"x_max":738,"o":"m 92 0 l 92 751 l 242 751 l 242 604 l 224 624 q 313 731 251 694 q 454 768 374 768 q 601 732 538 768 q 701 632 665 696 q 738 485 738 568 l 738 0 l 582 0 l 582 443 q 561 540 582 500 q 502 601 540 579 q 415 622 464 622 q 328 601 367 622 q 269 539 290 579 q 249 443 249 499 l 249 0 l 92 0 m 503 889 q 441 901 465 889 q 399 929 417 914 q 365 957 382 944 q 324 969 347 969 q 288 951 300 969 q 275 894 275 933 l 151 894 q 197 1047 151 997 q 311 1096 243 1096 q 374 1084 350 1096 q 417 1056 399 1072 q 452 1028 435 1040 q 492 1017 469 1017 q 530 1036 518 1017 q 542 1090 542 1056 l 664 1090 q 617 941 664 993 q 503 889 571 889 z "},"ŋ":{"ha":833,"x_min":81,"x_max":726,"o":"m 454 -307 q 420 -305 439 -307 q 389 -300 401 -303 l 389 -164 q 442 -168 415 -168 q 535 -138 500 -168 q 569 -49 569 -108 l 569 443 q 549 540 569 500 q 490 601 528 579 q 404 622 453 622 q 317 601 356 622 q 258 539 279 579 q 236 443 236 499 l 236 0 l 81 0 l 81 751 l 229 751 l 229 604 l 213 624 q 300 731 239 694 q 443 768 361 768 q 589 732 525 768 q 690 632 653 696 q 726 486 726 568 l 726 -49 q 692 -189 726 -131 q 596 -277 657 -247 q 454 -307 535 -307 z "},"o":{"ha":907,"x_min":61,"x_max":846,"o":"m 454 -17 q 256 35 346 -17 q 114 175 167 86 q 61 376 61 264 q 114 578 61 490 q 256 717 167 667 q 454 768 344 768 q 653 717 565 768 q 794 578 742 667 q 846 376 846 490 q 793 174 846 263 q 651 34 740 85 q 454 -17 563 -17 m 454 129 q 572 161 521 129 q 653 249 624 193 q 683 376 683 306 q 653 503 683 447 q 572 590 624 558 q 454 622 521 622 q 337 590 389 622 q 255 503 285 558 q 225 376 225 447 q 255 249 225 306 q 337 161 285 193 q 454 129 389 129 z "},"ó":{"ha":907,"x_min":61,"x_max":846,"o":"m 454 -17 q 256 35 346 -17 q 114 175 167 86 q 61 376 61 264 q 114 578 61 490 q 256 717 167 667 q 454 768 344 768 q 653 717 565 768 q 794 578 742 667 q 846 376 846 490 q 793 174 846 263 q 651 34 740 85 q 454 -17 563 -17 m 454 129 q 572 161 521 129 q 653 249 624 193 q 683 376 683 306 q 653 503 683 447 q 572 590 624 558 q 454 622 521 622 q 337 590 389 622 q 255 503 285 558 q 225 376 225 447 q 255 249 225 306 q 337 161 285 193 q 454 129 389 129 m 376 889 l 478 1118 l 683 1118 l 532 889 l 376 889 z "},"ŏ":{"ha":907,"x_min":61,"x_max":846,"o":"m 454 -17 q 256 35 346 -17 q 114 175 167 86 q 61 376 61 264 q 114 578 61 490 q 256 717 167 667 q 454 768 344 768 q 653 717 565 768 q 794 578 742 667 q 846 376 846 490 q 793 174 846 263 q 651 34 740 85 q 454 -17 563 -17 m 454 129 q 572 161 521 129 q 653 249 624 193 q 683 376 683 306 q 653 503 683 447 q 572 590 624 558 q 454 622 521 622 q 337 590 389 622 q 255 503 285 558 q 225 376 225 447 q 255 249 225 306 q 337 161 285 193 q 454 129 389 129 m 456 893 q 311 924 368 893 q 226 1006 254 956 q 196 1115 197 1057 l 349 1115 q 378 1042 350 1068 q 456 1015 406 1015 q 533 1042 506 1015 q 563 1115 561 1068 l 714 1115 q 684 1005 713 1056 q 599 924 656 954 q 456 893 543 893 z "},"ô":{"ha":907,"x_min":61,"x_max":846,"o":"m 454 -17 q 256 35 346 -17 q 114 175 167 86 q 61 376 61 264 q 114 578 61 490 q 256 717 167 667 q 454 768 344 768 q 653 717 565 768 q 794 578 742 667 q 846 376 846 490 q 793 174 846 263 q 651 34 740 85 q 454 -17 563 -17 m 454 129 q 572 161 521 129 q 653 249 624 193 q 683 376 683 306 q 653 503 683 447 q 572 590 624 558 q 454 622 521 622 q 337 590 389 622 q 255 503 285 558 q 225 376 225 447 q 255 249 225 306 q 337 161 285 193 q 454 129 389 129 m 199 889 l 363 1111 l 546 1111 l 711 889 l 550 889 l 454 1015 l 360 889 l 199 889 z "},"ố":{"ha":907,"x_min":61,"x_max":910,"o":"m 454 -17 q 256 35 346 -17 q 114 175 167 86 q 61 376 61 264 q 114 578 61 490 q 256 717 167 667 q 454 768 344 768 q 653 717 565 768 q 794 578 742 667 q 846 376 846 490 q 793 174 846 263 q 651 34 740 85 q 454 -17 563 -17 m 454 129 q 572 161 521 129 q 653 249 624 193 q 683 376 683 306 q 653 503 683 447 q 572 590 624 558 q 454 622 521 622 q 337 590 389 622 q 255 503 285 558 q 225 376 225 447 q 255 249 225 306 q 337 161 285 193 q 454 129 389 129 m 199 889 l 363 1097 l 546 1097 l 711 889 l 550 889 l 454 1001 l 360 889 l 199 889 m 653 993 l 725 1188 l 910 1188 l 786 993 l 653 993 z "},"ộ":{"ha":907,"x_min":61,"x_max":846,"o":"m 454 -17 q 256 35 346 -17 q 114 175 167 86 q 61 376 61 264 q 114 578 61 490 q 256 717 167 667 q 454 768 344 768 q 653 717 565 768 q 794 578 742 667 q 846 376 846 490 q 793 174 846 263 q 651 34 740 85 q 454 -17 563 -17 m 454 129 q 572 161 521 129 q 653 249 624 193 q 683 376 683 306 q 653 503 683 447 q 572 590 624 558 q 454 622 521 622 q 337 590 389 622 q 255 503 285 558 q 225 376 225 447 q 255 249 225 306 q 337 161 285 193 q 454 129 389 129 m 368 -299 l 368 -125 l 542 -125 l 542 -299 l 368 -299 m 199 889 l 363 1111 l 546 1111 l 711 889 l 550 889 l 454 1015 l 360 889 l 199 889 z "},"ồ":{"ha":907,"x_min":61,"x_max":867,"o":"m 454 -17 q 256 35 346 -17 q 114 175 167 86 q 61 376 61 264 q 114 578 61 490 q 256 717 167 667 q 454 768 344 768 q 653 717 565 768 q 794 578 742 667 q 846 376 846 490 q 793 174 846 263 q 651 34 740 85 q 454 -17 563 -17 m 454 129 q 572 161 521 129 q 653 249 624 193 q 683 376 683 306 q 653 503 683 447 q 572 590 624 558 q 454 622 521 622 q 337 590 389 622 q 255 503 285 558 q 225 376 225 447 q 255 249 225 306 q 337 161 285 193 q 454 129 389 129 m 199 889 l 363 1097 l 546 1097 l 711 889 l 550 889 l 454 1001 l 360 889 l 199 889 m 733 993 l 610 1188 l 794 1188 l 867 993 l 733 993 z "},"ổ":{"ha":907,"x_min":61,"x_max":846,"o":"m 454 -17 q 256 35 346 -17 q 114 175 167 86 q 61 376 61 264 q 114 578 61 490 q 256 717 167 667 q 454 768 344 768 q 653 717 565 768 q 794 578 742 667 q 846 376 846 490 q 793 174 846 263 q 651 34 740 85 q 454 -17 563 -17 m 454 129 q 572 161 521 129 q 653 249 624 193 q 683 376 683 306 q 653 503 683 447 q 572 590 624 558 q 454 622 521 622 q 337 590 389 622 q 255 503 285 558 q 225 376 225 447 q 255 249 225 306 q 337 161 285 193 q 454 129 389 129 m 199 889 l 363 1097 l 546 1097 l 711 889 l 550 889 l 454 1001 l 360 889 l 199 889 m 701 986 l 639 1063 q 690 1097 675 1078 q 704 1140 704 1115 q 685 1179 704 1164 q 632 1194 665 1194 q 599 1192 615 1194 q 564 1182 583 1190 l 546 1276 q 599 1294 571 1289 q 656 1299 626 1299 q 787 1258 738 1299 q 836 1151 836 1218 q 799 1057 836 1100 q 701 986 763 1014 z "},"ỗ":{"ha":907,"x_min":61,"x_max":846,"o":"m 454 -17 q 256 35 346 -17 q 114 175 167 86 q 61 376 61 264 q 114 578 61 490 q 256 717 167 667 q 454 768 344 768 q 653 717 565 768 q 794 578 742 667 q 846 376 846 490 q 793 174 846 263 q 651 34 740 85 q 454 -17 563 -17 m 454 129 q 572 161 521 129 q 653 249 624 193 q 683 376 683 306 q 653 503 683 447 q 572 590 624 558 q 454 622 521 622 q 337 590 389 622 q 255 503 285 558 q 225 376 225 447 q 255 249 225 306 q 337 161 285 193 q 454 129 389 129 m 200 889 l 364 1097 l 546 1097 l 711 889 l 550 889 l 456 1001 l 361 889 l 200 889 m 538 1183 q 485 1195 506 1183 q 450 1223 465 1207 q 421 1251 435 1239 q 388 1263 407 1263 q 360 1244 369 1263 q 350 1189 350 1226 l 229 1189 q 249 1301 229 1257 q 301 1367 268 1346 q 371 1389 333 1389 q 424 1377 403 1389 q 461 1349 446 1365 q 491 1322 476 1333 q 522 1310 506 1310 q 553 1329 544 1310 q 561 1383 561 1349 l 681 1383 q 638 1235 681 1288 q 538 1183 596 1183 z "},"ȍ":{"ha":907,"x_min":61,"x_max":846,"o":"m 454 -17 q 256 35 346 -17 q 114 175 167 86 q 61 376 61 264 q 114 578 61 490 q 256 717 167 667 q 454 768 344 768 q 653 717 565 768 q 794 578 742 667 q 846 376 846 490 q 793 174 846 263 q 651 34 740 85 q 454 -17 563 -17 m 454 129 q 572 161 521 129 q 653 249 624 193 q 683 376 683 306 q 653 503 683 447 q 572 590 624 558 q 454 622 521 622 q 337 590 389 622 q 255 503 285 558 q 225 376 225 447 q 255 249 225 306 q 337 161 285 193 q 454 129 389 129 m 240 889 l 89 1121 l 288 1121 l 389 889 l 240 889 m 519 889 l 368 1121 l 567 1121 l 668 889 l 519 889 z "},"ö":{"ha":907,"x_min":61,"x_max":846,"o":"m 454 -17 q 256 35 346 -17 q 114 175 167 86 q 61 376 61 264 q 114 578 61 490 q 256 717 167 667 q 454 768 344 768 q 653 717 565 768 q 794 578 742 667 q 846 376 846 490 q 793 174 846 263 q 651 34 740 85 q 454 -17 563 -17 m 454 129 q 572 161 521 129 q 653 249 624 193 q 683 376 683 306 q 653 503 683 447 q 572 590 624 558 q 454 622 521 622 q 337 590 389 622 q 255 503 285 558 q 225 376 225 447 q 255 249 225 306 q 337 161 285 193 q 454 129 389 129 m 225 889 l 225 1063 l 399 1063 l 399 889 l 225 889 m 510 889 l 510 1063 l 683 1063 l 683 889 l 510 889 z "},"ȫ":{"ha":907,"x_min":61,"x_max":846,"o":"m 454 -17 q 256 35 346 -17 q 114 175 167 86 q 61 376 61 264 q 114 578 61 490 q 256 717 167 667 q 454 768 344 768 q 653 717 565 768 q 794 578 742 667 q 846 376 846 490 q 793 174 846 263 q 651 34 740 85 q 454 -17 563 -17 m 454 129 q 572 161 521 129 q 653 249 624 193 q 683 376 683 306 q 653 503 683 447 q 572 590 624 558 q 454 622 521 622 q 337 590 389 622 q 255 503 285 558 q 225 376 225 447 q 255 249 225 306 q 337 161 285 193 q 454 129 389 129 m 225 889 l 225 1063 l 399 1063 l 399 889 l 225 889 m 510 889 l 510 1063 l 683 1063 l 683 889 l 510 889 m 243 1161 l 243 1293 l 667 1293 l 667 1161 l 243 1161 z "},"ȱ":{"ha":907,"x_min":61,"x_max":846,"o":"m 454 -17 q 256 35 346 -17 q 114 175 167 86 q 61 376 61 264 q 114 578 61 490 q 256 717 167 667 q 454 768 344 768 q 653 717 565 768 q 794 578 742 667 q 846 376 846 490 q 793 174 846 263 q 651 34 740 85 q 454 -17 563 -17 m 454 129 q 572 161 521 129 q 653 249 624 193 q 683 376 683 306 q 653 503 683 447 q 572 590 624 558 q 454 622 521 622 q 337 590 389 622 q 255 503 285 558 q 225 376 225 447 q 255 249 225 306 q 337 161 285 193 q 454 129 389 129 m 368 889 l 368 1063 l 542 1063 l 542 889 l 368 889 m 243 1161 l 243 1293 l 667 1293 l 667 1161 l 243 1161 z "},"ọ":{"ha":907,"x_min":61,"x_max":846,"o":"m 454 -17 q 256 35 346 -17 q 114 175 167 86 q 61 376 61 264 q 114 578 61 490 q 256 717 167 667 q 454 768 344 768 q 653 717 565 768 q 794 578 742 667 q 846 376 846 490 q 793 174 846 263 q 651 34 740 85 q 454 -17 563 -17 m 454 129 q 572 161 521 129 q 653 249 624 193 q 683 376 683 306 q 653 503 683 447 q 572 590 624 558 q 454 622 521 622 q 337 590 389 622 q 255 503 285 558 q 225 376 225 447 q 255 249 225 306 q 337 161 285 193 q 454 129 389 129 m 368 -299 l 368 -125 l 542 -125 l 542 -299 l 368 -299 z "},"ò":{"ha":907,"x_min":61,"x_max":846,"o":"m 454 -17 q 256 35 346 -17 q 114 175 167 86 q 61 376 61 264 q 114 578 61 490 q 256 717 167 667 q 454 768 344 768 q 653 717 565 768 q 794 578 742 667 q 846 376 846 490 q 793 174 846 263 q 651 34 740 85 q 454 -17 563 -17 m 454 129 q 572 161 521 129 q 653 249 624 193 q 683 376 683 306 q 653 503 683 447 q 572 590 624 558 q 454 622 521 622 q 337 590 389 622 q 255 503 285 558 q 225 376 225 447 q 255 249 225 306 q 337 161 285 193 q 454 129 389 129 m 378 889 l 226 1118 l 432 1118 l 533 889 l 378 889 z "},"ỏ":{"ha":907,"x_min":61,"x_max":846,"o":"m 454 -17 q 256 35 346 -17 q 114 175 167 86 q 61 376 61 264 q 114 578 61 490 q 256 717 167 667 q 454 768 344 768 q 653 717 565 768 q 794 578 742 667 q 846 376 846 490 q 793 174 846 263 q 651 34 740 85 q 454 -17 563 -17 m 454 129 q 572 161 521 129 q 653 249 624 193 q 683 376 683 306 q 653 503 683 447 q 572 590 624 558 q 454 622 521 622 q 337 590 389 622 q 255 503 285 558 q 225 376 225 447 q 255 249 225 306 q 337 161 285 193 q 454 129 389 129 m 465 833 l 399 915 q 451 951 436 932 q 467 996 467 969 q 447 1038 467 1021 q 390 1054 426 1054 q 357 1051 374 1054 q 319 1040 340 1049 l 300 1140 q 356 1158 326 1153 q 415 1164 385 1164 q 555 1122 503 1164 q 607 1008 607 1079 q 569 910 607 956 q 465 833 531 864 z "},"ơ":{"ha":907,"x_min":61,"x_max":846,"o":"m 454 -17 q 256 35 346 -17 q 114 175 167 86 q 61 376 61 264 q 114 578 61 490 q 256 717 167 667 q 454 768 344 768 l 606 768 q 634 772 618 768 q 662 792 650 776 q 674 839 674 807 q 665 893 674 865 q 644 947 656 921 l 783 947 q 806 890 796 919 q 815 825 815 861 q 777 710 815 751 q 676 658 739 669 l 686 696 q 803 562 760 644 q 846 376 846 479 q 793 174 846 263 q 651 34 740 85 q 454 -17 563 -17 m 454 129 q 572 161 521 129 q 653 249 624 193 q 683 376 683 306 q 653 503 683 447 q 572 590 624 558 q 454 622 521 622 q 337 590 389 622 q 255 503 285 558 q 225 376 225 447 q 255 249 225 306 q 337 161 285 193 q 454 129 389 129 z "},"ớ":{"ha":907,"x_min":61,"x_max":846,"o":"m 454 -17 q 256 35 346 -17 q 114 175 167 86 q 61 376 61 264 q 114 578 61 490 q 256 717 167 667 q 454 768 344 768 l 606 768 q 634 772 618 768 q 662 792 650 776 q 674 839 674 807 q 665 893 674 865 q 644 947 656 921 l 783 947 q 806 890 796 919 q 815 825 815 861 q 777 710 815 751 q 676 658 739 669 l 686 696 q 803 562 760 644 q 846 376 846 479 q 793 174 846 263 q 651 34 740 85 q 454 -17 563 -17 m 454 129 q 572 161 521 129 q 653 249 624 193 q 683 376 683 306 q 653 503 683 447 q 572 590 624 558 q 454 622 521 622 q 337 590 389 622 q 255 503 285 558 q 225 376 225 447 q 255 249 225 306 q 337 161 285 193 q 454 129 389 129 m 376 889 l 478 1118 l 683 1118 l 532 889 l 376 889 z "},"ợ":{"ha":907,"x_min":61,"x_max":846,"o":"m 454 -17 q 256 35 346 -17 q 114 175 167 86 q 61 376 61 264 q 114 578 61 490 q 256 717 167 667 q 454 768 344 768 l 606 768 q 634 772 618 768 q 662 792 650 776 q 674 839 674 807 q 665 893 674 865 q 644 947 656 921 l 783 947 q 806 890 796 919 q 815 825 815 861 q 777 710 815 751 q 676 658 739 669 l 686 696 q 803 562 760 644 q 846 376 846 479 q 793 174 846 263 q 651 34 740 85 q 454 -17 563 -17 m 454 129 q 572 161 521 129 q 653 249 624 193 q 683 376 683 306 q 653 503 683 447 q 572 590 624 558 q 454 622 521 622 q 337 590 389 622 q 255 503 285 558 q 225 376 225 447 q 255 249 225 306 q 337 161 285 193 q 454 129 389 129 m 368 -299 l 368 -125 l 542 -125 l 542 -299 l 368 -299 z "},"ờ":{"ha":907,"x_min":61,"x_max":846,"o":"m 454 -17 q 256 35 346 -17 q 114 175 167 86 q 61 376 61 264 q 114 578 61 490 q 256 717 167 667 q 454 768 344 768 l 606 768 q 634 772 618 768 q 662 792 650 776 q 674 839 674 807 q 665 893 674 865 q 644 947 656 921 l 783 947 q 806 890 796 919 q 815 825 815 861 q 777 710 815 751 q 676 658 739 669 l 686 696 q 803 562 760 644 q 846 376 846 479 q 793 174 846 263 q 651 34 740 85 q 454 -17 563 -17 m 454 129 q 572 161 521 129 q 653 249 624 193 q 683 376 683 306 q 653 503 683 447 q 572 590 624 558 q 454 622 521 622 q 337 590 389 622 q 255 503 285 558 q 225 376 225 447 q 255 249 225 306 q 337 161 285 193 q 454 129 389 129 m 378 889 l 226 1118 l 432 1118 l 533 889 l 378 889 z "},"ở":{"ha":907,"x_min":61,"x_max":846,"o":"m 454 -17 q 256 35 346 -17 q 114 175 167 86 q 61 376 61 264 q 114 578 61 490 q 256 717 167 667 q 454 768 344 768 l 606 768 q 634 772 618 768 q 662 792 650 776 q 674 839 674 807 q 665 893 674 865 q 644 947 656 921 l 783 947 q 806 890 796 919 q 815 825 815 861 q 777 710 815 751 q 676 658 739 669 l 686 696 q 803 562 760 644 q 846 376 846 479 q 793 174 846 263 q 651 34 740 85 q 454 -17 563 -17 m 454 129 q 572 161 521 129 q 653 249 624 193 q 683 376 683 306 q 653 503 683 447 q 572 590 624 558 q 454 622 521 622 q 337 590 389 622 q 255 503 285 558 q 225 376 225 447 q 255 249 225 306 q 337 161 285 193 q 454 129 389 129 m 465 833 l 399 915 q 451 951 436 932 q 467 996 467 969 q 447 1038 467 1021 q 390 1054 426 1054 q 357 1051 374 1054 q 319 1040 340 1049 l 300 1140 q 356 1158 326 1153 q 415 1164 385 1164 q 555 1122 503 1164 q 607 1008 607 1079 q 569 910 607 956 q 465 833 531 864 z "},"ỡ":{"ha":907,"x_min":61,"x_max":846,"o":"m 454 -17 q 256 35 346 -17 q 114 175 167 86 q 61 376 61 264 q 114 578 61 490 q 256 717 167 667 q 454 768 344 768 l 606 768 q 634 772 618 768 q 662 792 650 776 q 674 839 674 807 q 665 893 674 865 q 644 947 656 921 l 783 947 q 806 890 796 919 q 815 825 815 861 q 777 710 815 751 q 676 658 739 669 l 686 696 q 803 562 760 644 q 846 376 846 479 q 793 174 846 263 q 651 34 740 85 q 454 -17 563 -17 m 454 129 q 572 161 521 129 q 653 249 624 193 q 683 376 683 306 q 653 503 683 447 q 572 590 624 558 q 454 622 521 622 q 337 590 389 622 q 255 503 285 558 q 225 376 225 447 q 255 249 225 306 q 337 161 285 193 q 454 129 389 129 m 550 889 q 488 901 513 889 q 447 929 464 914 q 412 957 429 944 q 371 969 394 969 q 335 951 347 969 q 322 894 322 933 l 199 894 q 244 1047 199 997 q 358 1096 290 1096 q 422 1084 397 1096 q 464 1056 446 1072 q 499 1028 482 1040 q 539 1017 517 1017 q 577 1036 565 1017 q 589 1090 589 1056 l 711 1090 q 665 941 711 993 q 550 889 618 889 z "},"ő":{"ha":907,"x_min":61,"x_max":846,"o":"m 454 -17 q 256 35 346 -17 q 114 175 167 86 q 61 376 61 264 q 114 578 61 490 q 256 717 167 667 q 454 768 344 768 q 653 717 565 768 q 794 578 742 667 q 846 376 846 490 q 793 174 846 263 q 651 34 740 85 q 454 -17 563 -17 m 454 129 q 572 161 521 129 q 653 249 624 193 q 683 376 683 306 q 653 503 683 447 q 572 590 624 558 q 454 622 521 622 q 337 590 389 622 q 255 503 285 558 q 225 376 225 447 q 255 249 225 306 q 337 161 285 193 q 454 129 389 129 m 240 889 l 307 1118 l 506 1118 l 389 889 l 240 889 m 519 889 l 586 1118 l 785 1118 l 668 889 l 519 889 z "},"ȏ":{"ha":907,"x_min":61,"x_max":846,"o":"m 454 -17 q 256 35 346 -17 q 114 175 167 86 q 61 376 61 264 q 114 578 61 490 q 256 717 167 667 q 454 768 344 768 q 653 717 565 768 q 794 578 742 667 q 846 376 846 490 q 793 174 846 263 q 651 34 740 85 q 454 -17 563 -17 m 454 129 q 572 161 521 129 q 653 249 624 193 q 683 376 683 306 q 653 503 683 447 q 572 590 624 558 q 454 622 521 622 q 337 590 389 622 q 255 503 285 558 q 225 376 225 447 q 255 249 225 306 q 337 161 285 193 q 454 129 389 129 m 196 889 q 226 999 197 949 q 311 1081 254 1050 q 456 1111 368 1111 q 599 1081 543 1111 q 684 1001 656 1051 q 714 889 713 950 l 563 889 q 533 964 561 938 q 456 990 506 990 q 378 964 406 990 q 349 889 350 938 l 196 889 z "}}}
